<svg width="325" height="76" viewBox="0 0 325 76" fill="none" xmlns="http://www.w3.org/2000/svg">
<mask id="path-1-outside-1_286_16086" maskUnits="userSpaceOnUse" x="-2.5" y="-2" width="329" height="80" fill="black">
<rect fill="white" x="-2.5" y="-2" width="329" height="80"/>
<path d="M31.9318 4.18182H44.4773V53.2727C44.4545 57.7727 43.5 61.6477 41.6136 64.8977C39.7273 68.125 37.0909 70.6136 33.7045 72.3636C30.3409 74.0909 26.4205 74.9545 21.9432 74.9545C17.8523 74.9545 14.1705 74.2273 10.8977 72.7727C7.64773 71.2955 5.06818 69.1136 3.15909 66.2273C1.25 63.3409 0.295455 59.75 0.295455 55.4545H12.875C12.8977 57.3409 13.3068 58.9659 14.1023 60.3295C14.9205 61.6932 16.0455 62.7386 17.4773 63.4659C18.9091 64.1932 20.5568 64.5568 22.4205 64.5568C24.4432 64.5568 26.1591 64.1364 27.5682 63.2955C28.9773 62.4318 30.0455 61.1591 30.7727 59.4773C31.5227 57.7955 31.9091 55.7273 31.9318 53.2727V4.18182ZM80.4943 75.0227C75.3807 75.0227 70.9489 73.8977 67.1989 71.6477C63.4489 69.3977 60.5398 66.25 58.4716 62.2045C56.4261 58.1591 55.4034 53.4318 55.4034 48.0227C55.4034 42.6136 56.4261 37.875 58.4716 33.8068C60.5398 29.7386 63.4489 26.5795 67.1989 24.3295C70.9489 22.0795 75.3807 20.9545 80.4943 20.9545C85.608 20.9545 90.0398 22.0795 93.7898 24.3295C97.5398 26.5795 100.438 29.7386 102.483 33.8068C104.551 37.875 105.585 42.6136 105.585 48.0227C105.585 53.4318 104.551 58.1591 102.483 62.2045C100.438 66.25 97.5398 69.3977 93.7898 71.6477C90.0398 73.8977 85.608 75.0227 80.4943 75.0227ZM80.5625 65.1364C83.3352 65.1364 85.6534 64.375 87.517 62.8523C89.3807 61.3068 90.767 59.2386 91.6761 56.6477C92.608 54.0568 93.0739 51.1705 93.0739 47.9886C93.0739 44.7841 92.608 41.8864 91.6761 39.2955C90.767 36.6818 89.3807 34.6023 87.517 33.0568C85.6534 31.5114 83.3352 30.7386 80.5625 30.7386C77.7216 30.7386 75.358 31.5114 73.4716 33.0568C71.608 34.6023 70.2102 36.6818 69.2784 39.2955C68.3693 41.8864 67.9148 44.7841 67.9148 47.9886C67.9148 51.1705 68.3693 54.0568 69.2784 56.6477C70.2102 59.2386 71.608 61.3068 73.4716 62.8523C75.358 64.375 77.7216 65.1364 80.5625 65.1364ZM116.06 74V21.6364H128.401V74H116.06ZM122.264 14.2045C120.31 14.2045 118.628 13.5568 117.219 12.2614C115.81 10.9432 115.105 9.36363 115.105 7.52272C115.105 5.65909 115.81 4.07954 117.219 2.78409C118.628 1.46591 120.31 0.806816 122.264 0.806816C124.241 0.806816 125.923 1.46591 127.31 2.78409C128.719 4.07954 129.423 5.65909 129.423 7.52272C129.423 9.36363 128.719 10.9432 127.31 12.2614C125.923 13.5568 124.241 14.2045 122.264 14.2045ZM153.432 43.3182V74H141.091V21.6364H152.886V30.5341H153.5C154.705 27.6023 156.625 25.2727 159.261 23.5455C161.92 21.8182 165.205 20.9545 169.114 20.9545C172.727 20.9545 175.875 21.7273 178.557 23.2727C181.261 24.8182 183.352 27.0568 184.83 29.9886C186.33 32.9205 187.068 36.4773 187.045 40.6591V74H174.705V42.5682C174.705 39.0682 173.795 36.3295 171.977 34.3523C170.182 32.375 167.693 31.3864 164.511 31.3864C162.352 31.3864 160.432 31.8636 158.75 32.8182C157.091 33.75 155.784 35.1023 154.83 36.875C153.898 38.6477 153.432 40.7955 153.432 43.3182ZM256.778 51.9773V21.6364H269.119V74H257.153V64.6932H256.608C255.426 67.625 253.483 70.0227 250.778 71.8864C248.097 73.75 244.79 74.6818 240.858 74.6818C237.426 74.6818 234.392 73.9205 231.756 72.3977C229.142 70.8523 227.097 68.6136 225.619 65.6818C224.142 62.7273 223.403 59.1591 223.403 54.9773V21.6364H235.744V53.0682C235.744 56.3864 236.653 59.0227 238.472 60.9773C240.29 62.9318 242.676 63.9091 245.631 63.9091C247.449 63.9091 249.21 63.4659 250.915 62.5795C252.619 61.6932 254.017 60.375 255.108 58.625C256.222 56.8523 256.778 54.6364 256.778 51.9773ZM323.196 35.4773L311.946 36.7045C311.628 35.5682 311.071 34.5 310.276 33.5C309.503 32.5 308.457 31.6932 307.139 31.0795C305.821 30.4659 304.207 30.1591 302.298 30.1591C299.73 30.1591 297.571 30.7159 295.821 31.8295C294.094 32.9432 293.241 34.3864 293.264 36.1591C293.241 37.6818 293.798 38.9205 294.935 39.875C296.094 40.8295 298.003 41.6136 300.662 42.2273L309.594 44.1364C314.548 45.2045 318.23 46.8977 320.639 49.2159C323.071 51.5341 324.298 54.5682 324.321 58.3182C324.298 61.6136 323.332 64.5227 321.423 67.0455C319.537 69.5455 316.912 71.5 313.548 72.9091C310.185 74.3182 306.321 75.0227 301.957 75.0227C295.548 75.0227 290.389 73.6818 286.48 71C282.571 68.2955 280.241 64.5341 279.491 59.7159L291.526 58.5568C292.071 60.9205 293.23 62.7045 295.003 63.9091C296.776 65.1136 299.082 65.7159 301.923 65.7159C304.855 65.7159 307.207 65.1136 308.98 63.9091C310.776 62.7045 311.673 61.2159 311.673 59.4432C311.673 57.9432 311.094 56.7045 309.935 55.7273C308.798 54.75 307.026 54 304.616 53.4773L295.685 51.6023C290.662 50.5568 286.946 48.7955 284.537 46.3182C282.128 43.8182 280.935 40.6591 280.957 36.8409C280.935 33.6136 281.81 30.8182 283.582 28.4545C285.378 26.0682 287.866 24.2273 291.048 22.9318C294.253 21.6136 297.946 20.9545 302.128 20.9545C308.264 20.9545 313.094 22.2614 316.616 24.875C320.162 27.4886 322.355 31.0227 323.196 35.4773Z"/>
</mask>
<path d="M31.9318 4.18182V2.18182H29.9318V4.18182H31.9318ZM44.4773 4.18182H46.4773V2.18182H44.4773V4.18182ZM44.4773 53.2727L46.4773 53.2828V53.2727H44.4773ZM41.6136 64.8977L43.3403 65.907L43.3434 65.9017L41.6136 64.8977ZM33.7045 72.3636L34.6182 74.1428L34.6227 74.1404L33.7045 72.3636ZM10.8977 72.7727L10.0701 74.5935L10.0778 74.5969L10.0855 74.6003L10.8977 72.7727ZM3.15909 66.2273L4.82722 65.1239L3.15909 66.2273ZM0.295455 55.4545V53.4545H-1.70455V55.4545H0.295455ZM12.875 55.4545L14.8749 55.4305L14.851 53.4545H12.875V55.4545ZM14.1023 60.3295L12.3747 61.3373L12.3809 61.3479L12.3873 61.3585L14.1023 60.3295ZM17.4773 63.4659L18.383 61.6828H18.383L17.4773 63.4659ZM27.5682 63.2955L28.5931 65.0129L28.6032 65.0068L28.6133 65.0007L27.5682 63.2955ZM30.7727 59.4773L28.9461 58.6627L28.9415 58.673L28.937 58.6834L30.7727 59.4773ZM31.9318 53.2727L33.9317 53.2912L33.9318 53.282V53.2727H31.9318ZM31.9318 6.18182H44.4773V2.18182H31.9318V6.18182ZM42.4773 4.18182V53.2727H46.4773V4.18182H42.4773ZM42.4773 53.2626C42.456 57.4825 41.5633 61.0004 39.8839 63.8937L43.3434 65.9017C45.4367 62.2951 46.4531 58.063 46.4772 53.2828L42.4773 53.2626ZM39.887 63.8885C38.1959 66.7817 35.8429 69.0073 32.7864 70.5869L34.6227 74.1404C38.3389 72.22 41.2587 69.4683 43.3403 65.907L39.887 63.8885ZM32.7909 70.5845C29.7576 72.1422 26.1609 72.9545 21.9432 72.9545V76.9545C26.68 76.9545 30.9242 76.0396 34.6182 74.1428L32.7909 70.5845ZM21.9432 72.9545C18.0924 72.9545 14.6931 72.2709 11.71 70.9451L10.0855 74.6003C13.6478 76.1836 17.6121 76.9545 21.9432 76.9545V72.9545ZM11.7253 70.952C8.80594 69.625 6.52228 67.6867 4.82722 65.1239L1.49096 67.3306C3.61408 70.5406 6.48952 72.9659 10.0701 74.5935L11.7253 70.952ZM4.82722 65.1239C3.18162 62.636 2.29545 59.4526 2.29545 55.4545H-1.70455C-1.70455 60.0474 -0.681624 64.0459 1.49096 67.3306L4.82722 65.1239ZM0.295455 57.4545H12.875V53.4545H0.295455V57.4545ZM10.8751 55.4786C10.9012 57.6434 11.3738 59.6215 12.3747 61.3373L15.8298 59.3218C15.2398 58.3103 14.8942 57.0384 14.8749 55.4305L10.8751 55.4786ZM12.3873 61.3585C13.401 63.048 14.8079 64.3533 16.5715 65.2491L18.383 61.6828C17.283 61.124 16.4399 60.3384 15.8173 59.3006L12.3873 61.3585ZM16.5715 65.2491C18.3259 66.1401 20.2926 66.5568 22.4205 66.5568V62.5568C20.821 62.5568 19.4923 62.2462 18.383 61.6828L16.5715 65.2491ZM22.4205 66.5568C24.7205 66.5568 26.8095 66.0773 28.5931 65.0129L26.5433 61.578C25.5087 62.1954 24.1659 62.5568 22.4205 62.5568V66.5568ZM28.6133 65.0007C30.4113 63.8986 31.7363 62.2879 32.6084 60.2711L28.937 58.6834C28.3546 60.0303 27.5432 60.965 26.5231 61.5902L28.6133 65.0007ZM32.5993 60.2918C33.4917 58.2908 33.9073 55.9336 33.9317 53.2912L29.9319 53.2542C29.9109 55.5209 29.5538 57.3001 28.9461 58.6627L32.5993 60.2918ZM33.9318 53.2727V4.18182H29.9318V53.2727H33.9318ZM67.1989 71.6477L66.1699 73.3627L67.1989 71.6477ZM58.4716 62.2045L56.6867 63.107L56.6908 63.1149L58.4716 62.2045ZM58.4716 33.8068L56.6887 32.9004L56.6847 32.9084L58.4716 33.8068ZM67.1989 24.3295L68.2279 26.0445L67.1989 24.3295ZM93.7898 24.3295L92.7608 26.0445L93.7898 24.3295ZM102.483 33.8068L100.696 34.7052L100.7 34.7132L102.483 33.8068ZM102.483 62.2045L100.702 61.2941L100.698 61.3021L102.483 62.2045ZM93.7898 71.6477L92.7608 69.9327L93.7898 71.6477ZM87.517 62.8523L88.7825 64.401L88.7881 64.3964L88.7937 64.3918L87.517 62.8523ZM91.6761 56.6477L89.7942 55.9709L89.7915 55.9782L89.7889 55.9855L91.6761 56.6477ZM91.6761 39.2955L89.7871 39.9525L89.7906 39.9624L89.7942 39.9723L91.6761 39.2955ZM87.517 33.0568L88.7937 31.5173L87.517 33.0568ZM73.4716 33.0568L72.2041 31.5097L72.1949 31.5173L73.4716 33.0568ZM69.2784 39.2955L67.3945 38.6238L67.3912 38.6333L69.2784 39.2955ZM69.2784 56.6477L67.3912 57.3099L67.3938 57.3173L67.3964 57.3246L69.2784 56.6477ZM73.4716 62.8523L72.1949 64.3918L72.2051 64.4002L72.2154 64.4085L73.4716 62.8523ZM80.4943 73.0227C75.681 73.0227 71.6177 71.9667 68.2279 69.9327L66.1699 73.3627C70.28 75.8288 75.0803 77.0227 80.4943 77.0227V73.0227ZM68.2279 69.9327C64.8117 67.883 62.1572 65.02 60.2524 61.2941L56.6908 63.1149C58.9224 67.48 62.086 70.9124 66.1699 73.3627L68.2279 69.9327ZM60.2564 61.3021C58.3773 57.5856 57.4034 53.1784 57.4034 48.0227H53.4034C53.4034 53.6852 54.475 58.7326 56.6868 63.107L60.2564 61.3021ZM57.4034 48.0227C57.4034 42.8674 58.3771 38.4469 60.2584 34.7052L56.6847 32.9084C54.4751 37.3031 53.4034 42.3599 53.4034 48.0227H57.4034ZM60.2544 34.7132C62.1601 30.9647 64.8146 28.0925 68.2279 26.0445L66.1699 22.6146C62.0832 25.0666 58.9195 28.5126 56.6888 32.9005L60.2544 34.7132ZM68.2279 26.0445C71.6177 24.0106 75.681 22.9545 80.4943 22.9545V18.9545C75.0803 18.9545 70.28 20.1485 66.1699 22.6146L68.2279 26.0445ZM80.4943 22.9545C85.3076 22.9545 89.3709 24.0106 92.7608 26.0445L94.8188 22.6146C90.7087 20.1485 85.9083 18.9545 80.4943 18.9545V22.9545ZM92.7608 26.0445C96.1721 28.0913 98.8135 30.9609 100.696 34.7052L104.27 32.9084C102.062 28.5164 98.9074 25.0678 94.8188 22.6146L92.7608 26.0445ZM100.7 34.7132C102.601 38.453 103.585 42.8706 103.585 48.0227H107.585C107.585 42.3567 106.501 37.297 104.266 32.9005L100.7 34.7132ZM103.585 48.0227C103.585 53.1752 102.601 57.5794 100.702 61.2941L104.264 63.1149C106.501 58.7387 107.585 53.6884 107.585 48.0227H103.585ZM100.698 61.3021C98.8164 65.0238 96.175 67.8842 92.7608 69.9327L94.8188 73.3627C98.9045 70.9112 102.059 67.4762 104.268 63.107L100.698 61.3021ZM92.7608 69.9327C89.3709 71.9667 85.3076 73.0227 80.4943 73.0227V77.0227C85.9083 77.0227 90.7087 75.8288 94.8188 73.3627L92.7608 69.9327ZM80.5625 67.1364C83.7226 67.1364 86.5084 66.2591 88.7825 64.401L86.2516 61.3035C84.7984 62.4909 82.9479 63.1364 80.5625 63.1364V67.1364ZM88.7937 64.3918C90.9726 62.5849 92.5506 60.1963 93.5633 57.3099L89.7889 55.9855C88.9835 58.281 87.7887 60.0288 86.2404 61.3128L88.7937 64.3918ZM93.5581 57.3246C94.5791 54.4856 95.0739 51.3659 95.0739 47.9886H91.0739C91.0739 50.975 90.6368 53.628 89.7942 55.9709L93.5581 57.3246ZM95.0739 47.9886C95.0739 44.5904 94.5797 41.459 93.5581 38.6186L89.7942 39.9723C90.6362 42.3137 91.0739 44.9777 91.0739 47.9886H95.0739ZM93.5651 38.6384C92.5537 35.7305 90.9764 33.3273 88.7937 31.5173L86.2404 34.5963C87.785 35.8772 88.9804 37.6331 89.7871 39.9525L93.5651 38.6384ZM88.7937 31.5173C86.5197 29.6316 83.7299 28.7386 80.5625 28.7386V32.7386C82.9406 32.7386 84.7871 33.3912 86.2404 34.5963L88.7937 31.5173ZM80.5625 28.7386C77.3395 28.7386 74.5053 29.6244 72.2041 31.5097L74.7391 34.6039C76.2106 33.3983 78.1037 32.7386 80.5625 32.7386V28.7386ZM72.1949 31.5173C70.0161 33.3241 68.4291 35.7219 67.3946 38.6238L71.1623 39.9671C71.9913 37.6417 73.1998 35.8804 74.7483 34.5963L72.1949 31.5173ZM67.3912 38.6333C66.3961 41.4692 65.9148 44.5955 65.9148 47.9886H69.9148C69.9148 44.9727 70.3425 42.3035 71.1656 39.9576L67.3912 38.6333ZM65.9148 47.9886C65.9148 51.3608 66.3966 54.4754 67.3912 57.3099L71.1656 55.9855C70.342 53.6382 69.9148 50.9801 69.9148 47.9886H65.9148ZM67.3964 57.3246C68.4323 60.2049 70.0199 62.5881 72.1949 64.3918L74.7483 61.3128C73.196 60.0255 71.9881 58.2724 71.1604 55.9709L67.3964 57.3246ZM72.2154 64.4085C74.5165 66.2661 77.3466 67.1364 80.5625 67.1364V63.1364C78.0966 63.1364 76.1994 62.4839 74.7278 61.296L72.2154 64.4085ZM116.06 74H114.06V76H116.06V74ZM116.06 21.6364V19.6364H114.06V21.6364H116.06ZM128.401 21.6364H130.401V19.6364H128.401V21.6364ZM128.401 74V76H130.401V74H128.401ZM117.219 12.2614L115.852 13.7219L115.859 13.7278L115.865 13.7337L117.219 12.2614ZM117.219 2.78409L118.572 4.25642L118.579 4.25055L118.585 4.24463L117.219 2.78409ZM127.31 2.78409L125.932 4.23349L125.944 4.24506L125.956 4.25642L127.31 2.78409ZM127.31 12.2614L128.675 13.7227L128.676 13.7219L127.31 12.2614ZM118.06 74V21.6364H114.06V74H118.06ZM116.06 23.6364H128.401V19.6364H116.06V23.6364ZM126.401 21.6364V74H130.401V21.6364H126.401ZM128.401 72H116.06V76H128.401V72ZM122.264 12.2045C120.799 12.2045 119.604 11.7373 118.572 10.789L115.865 13.7337C117.652 15.3764 119.82 16.2045 122.264 16.2045V12.2045ZM118.585 10.8008C117.558 9.84032 117.105 8.78077 117.105 7.52272H113.105C113.105 9.9465 114.061 12.046 115.852 13.7219L118.585 10.8008ZM117.105 7.52272C117.105 6.23565 117.563 5.18478 118.572 4.25642L115.865 1.31175C114.057 2.97431 113.105 5.08253 113.105 7.52272H117.105ZM118.585 4.24463C119.618 3.27803 120.81 2.80682 122.264 2.80682V-1.19318C119.81 -1.19318 117.637 -0.346218 115.852 1.32354L118.585 4.24463ZM122.264 2.80682C123.748 2.80682 124.931 3.28174 125.932 4.23349L128.688 1.33468C126.916 -0.34993 124.735 -1.19318 122.264 -1.19318V2.80682ZM125.956 4.25642C126.966 5.18478 127.423 6.23565 127.423 7.52272H131.423C131.423 5.08253 130.472 2.97431 128.663 1.31175L125.956 4.25642ZM127.423 7.52272C127.423 8.78077 126.97 9.84032 125.943 10.8008L128.676 13.7219C130.467 12.046 131.423 9.9465 131.423 7.52272H127.423ZM125.944 10.8C124.945 11.7336 123.758 12.2045 122.264 12.2045V16.2045C124.725 16.2045 126.902 15.38 128.675 13.7227L125.944 10.8ZM153.432 74V76H155.432V74H153.432ZM141.091 74H139.091V76H141.091V74ZM141.091 21.6364V19.6364H139.091V21.6364H141.091ZM152.886 21.6364H154.886V19.6364H152.886V21.6364ZM152.886 30.5341H150.886V32.5341H152.886V30.5341ZM153.5 30.5341V32.5341H154.841L155.35 31.2941L153.5 30.5341ZM159.261 23.5455L158.172 21.8682L158.165 21.8725L159.261 23.5455ZM178.557 23.2727L177.558 25.0056L177.565 25.0092L178.557 23.2727ZM184.83 29.9886L183.043 30.8886L183.049 30.8996L184.83 29.9886ZM187.045 40.6591L185.045 40.6482V40.6591H187.045ZM187.045 74V76H189.045V74H187.045ZM174.705 74H172.705V76H174.705V74ZM171.977 34.3523L170.497 35.6968L170.505 35.706L171.977 34.3523ZM158.75 32.8182L159.729 34.562L159.737 34.5576L158.75 32.8182ZM154.83 36.875L153.069 35.9268L153.064 35.9356L153.059 35.9444L154.83 36.875ZM151.432 43.3182V74H155.432V43.3182H151.432ZM153.432 72H141.091V76H153.432V72ZM143.091 74V21.6364H139.091V74H143.091ZM141.091 23.6364H152.886V19.6364H141.091V23.6364ZM150.886 21.6364V30.5341H154.886V21.6364H150.886ZM152.886 32.5341H153.5V28.5341H152.886V32.5341ZM155.35 31.2941C156.402 28.7335 158.061 26.7231 160.357 25.2184L158.165 21.8725C155.189 23.8224 153.007 26.4711 151.65 29.774L155.35 31.2941ZM160.351 25.2227C162.617 23.7504 165.501 22.9545 169.114 22.9545V18.9545C164.908 18.9545 161.224 19.886 158.172 21.8682L160.351 25.2227ZM169.114 22.9545C172.436 22.9545 175.228 23.6625 177.558 25.0056L179.555 21.5399C176.522 19.792 173.019 18.9545 169.114 18.9545V22.9545ZM177.565 25.0092C179.909 26.349 181.733 28.2876 183.043 30.8886L186.616 29.0887C184.972 25.826 182.614 23.2873 179.549 21.5362L177.565 25.0092ZM183.049 30.8996C184.369 33.4796 185.067 36.7026 185.045 40.6482L189.045 40.67C189.069 36.252 188.29 32.3614 186.61 29.0777L183.049 30.8996ZM185.045 40.6591V74H189.045V40.6591H185.045ZM187.045 72H174.705V76H187.045V72ZM176.705 74V42.5682H172.705V74H176.705ZM176.705 42.5682C176.705 38.723 175.7 35.4458 173.449 32.9985L170.505 35.706C171.891 37.2133 172.705 39.4134 172.705 42.5682H176.705ZM173.458 33.0078C171.211 30.5333 168.14 29.3864 164.511 29.3864V33.3864C167.247 33.3864 169.153 34.2167 170.497 35.6968L173.458 33.0078ZM164.511 29.3864C162.047 29.3864 159.779 29.9342 157.763 31.0788L159.737 34.5576C161.084 33.7931 162.657 33.3864 164.511 33.3864V29.3864ZM157.771 31.0744C155.761 32.2029 154.192 33.8405 153.069 35.9268L156.59 37.8232C157.376 36.3641 158.421 35.2971 159.729 34.562L157.771 31.0744ZM153.059 35.9444C151.942 38.0691 151.432 40.5536 151.432 43.3182H155.432C155.432 41.0373 155.853 39.2263 156.6 37.8056L153.059 35.9444ZM256.778 21.6364V19.6364H254.778V21.6364H256.778ZM269.119 21.6364H271.119V19.6364H269.119V21.6364ZM269.119 74V76H271.119V74H269.119ZM257.153 74H255.153V76H257.153V74ZM257.153 64.6932H259.153V62.6932H257.153V64.6932ZM256.608 64.6932V62.6932H255.258L254.753 63.9454L256.608 64.6932ZM250.778 71.8864L249.644 70.2395L249.637 70.244L250.778 71.8864ZM231.756 72.3977L230.738 74.1193L230.747 74.1245L230.755 74.1296L231.756 72.3977ZM225.619 65.6818L223.83 66.5762L223.833 66.5818L225.619 65.6818ZM223.403 21.6364V19.6364H221.403V21.6364H223.403ZM235.744 21.6364H237.744V19.6364H235.744V21.6364ZM238.472 60.9773L237.007 62.3395L238.472 60.9773ZM250.915 62.5795L249.992 60.8051L250.915 62.5795ZM255.108 58.625L253.414 57.5611L253.411 57.567L255.108 58.625ZM258.778 51.9773V21.6364H254.778V51.9773H258.778ZM256.778 23.6364H269.119V19.6364H256.778V23.6364ZM267.119 21.6364V74H271.119V21.6364H267.119ZM269.119 72H257.153V76H269.119V72ZM259.153 74V64.6932H255.153V74H259.153ZM257.153 62.6932H256.608V66.6932H257.153V62.6932ZM254.753 63.9454C253.724 66.4987 252.038 68.5893 249.644 70.2395L251.913 73.5332C254.927 71.4562 257.128 68.7513 258.463 65.4409L254.753 63.9454ZM249.637 70.244C247.354 71.8307 244.467 72.6818 240.858 72.6818V76.6818C245.113 76.6818 248.839 75.6693 251.92 73.5287L249.637 70.244ZM240.858 72.6818C237.732 72.6818 235.051 71.9915 232.756 70.6659L230.755 74.1296C233.733 75.8494 237.121 76.6818 240.858 76.6818V72.6818ZM232.774 70.6762C230.516 69.3413 228.725 67.4009 227.405 64.7819L223.833 66.5818C225.468 69.8264 227.768 72.3632 230.738 74.1193L232.774 70.6762ZM227.408 64.7874C226.102 62.1745 225.403 58.9289 225.403 54.9773H221.403C221.403 59.3892 222.182 63.2801 223.83 66.5762L227.408 64.7874ZM225.403 54.9773V21.6364H221.403V54.9773H225.403ZM223.403 23.6364H235.744V19.6364H223.403V23.6364ZM233.744 21.6364V53.0682H237.744V21.6364H233.744ZM233.744 53.0682C233.744 56.7632 234.766 59.9304 237.007 62.3395L239.936 59.6151C238.541 58.1151 237.744 56.0095 237.744 53.0682H233.744ZM237.007 62.3395C239.246 64.7466 242.186 65.9091 245.631 65.9091V61.9091C243.166 61.9091 241.333 61.1171 239.936 59.6151L237.007 62.3395ZM245.631 65.9091C247.788 65.9091 249.865 65.3799 251.837 64.354L249.992 60.8051C248.556 61.5519 247.109 61.9091 245.631 61.9091V65.9091ZM251.837 64.354C253.883 63.2903 255.539 61.7137 256.805 59.683L253.411 57.567C252.495 59.0363 251.356 60.096 249.992 60.8051L251.837 64.354ZM256.802 59.6889C258.163 57.5217 258.778 54.912 258.778 51.9773H254.778C254.778 54.3607 254.28 56.1828 253.414 57.5611L256.802 59.6889ZM323.196 35.4773L323.413 37.4655L325.562 37.231L325.161 35.1063L323.196 35.4773ZM311.946 36.7045L310.02 37.2438L310.477 38.8766L312.163 38.6927L311.946 36.7045ZM310.276 33.5L308.693 34.7229L308.702 34.734L308.71 34.745L310.276 33.5ZM307.139 31.0795L307.983 29.2664L307.139 31.0795ZM295.821 31.8295L294.747 30.1422L294.737 30.1486L295.821 31.8295ZM293.264 36.1591L295.264 36.1889L295.264 36.1612L295.264 36.1334L293.264 36.1591ZM294.935 39.875L293.648 41.4064L293.656 41.4127L293.663 41.4189L294.935 39.875ZM300.662 42.2273L300.212 44.1761L300.228 44.1797L300.244 44.1831L300.662 42.2273ZM309.594 44.1364L310.015 42.1813L310.012 42.1805L309.594 44.1364ZM320.639 49.2159L319.252 50.6571L319.259 50.6635L320.639 49.2159ZM324.321 58.3182L326.321 58.332L326.321 58.319L326.321 58.3061L324.321 58.3182ZM321.423 67.0455L319.828 65.8386L319.827 65.8408L321.423 67.0455ZM313.548 72.9091L314.321 74.7538L313.548 72.9091ZM286.48 71L285.342 72.6447L285.349 72.6492L286.48 71ZM279.491 59.7159L279.3 57.7251L277.189 57.9284L277.515 60.0235L279.491 59.7159ZM291.526 58.5568L293.474 58.1071L293.08 56.3979L291.334 56.566L291.526 58.5568ZM295.003 63.9091L296.127 62.2548L295.003 63.9091ZM308.98 63.9091L307.866 62.2482L307.856 62.2548L308.98 63.9091ZM309.935 55.7273L308.631 57.2436L308.638 57.25L308.645 57.2563L309.935 55.7273ZM304.616 53.4773L305.041 51.5227L305.027 51.5199L304.616 53.4773ZM295.685 51.6023L296.096 49.6449L296.092 49.6442L295.685 51.6023ZM284.537 46.3182L283.097 47.706L283.103 47.7125L284.537 46.3182ZM280.957 36.8409L282.957 36.8528L282.957 36.8398L282.957 36.8268L280.957 36.8409ZM283.582 28.4545L281.984 27.2521L281.982 27.2545L283.582 28.4545ZM291.048 22.9318L291.802 24.7842L291.809 24.7814L291.048 22.9318ZM316.616 24.875L315.425 26.4812L315.43 26.4849L316.616 24.875ZM322.979 33.4891L311.729 34.7163L312.163 38.6927L323.413 37.4655L322.979 33.4891ZM313.872 36.1653C313.476 34.7513 312.788 33.4463 311.841 32.255L308.71 34.745C309.354 35.5537 309.78 36.3851 310.02 37.2438L313.872 36.1653ZM311.858 32.2771C310.862 30.9885 309.547 29.9945 307.983 29.2664L306.295 32.8927C307.367 33.3918 308.143 34.0115 308.693 34.7229L311.858 32.2771ZM307.983 29.2664C306.332 28.4975 304.412 28.1591 302.298 28.1591V32.1591C304.003 32.1591 305.31 32.4343 306.295 32.8927L307.983 29.2664ZM302.298 28.1591C299.44 28.1591 296.887 28.7807 294.747 30.1422L296.895 33.5169C298.255 32.6512 300.02 32.1591 302.298 32.1591V28.1591ZM294.737 30.1486C292.539 31.5656 291.231 33.6037 291.264 36.1847L295.264 36.1334C295.252 35.169 295.648 34.3207 296.905 33.5105L294.737 30.1486ZM291.264 36.1292C291.233 38.2349 292.038 40.0536 293.648 41.4064L296.221 38.3436C295.559 37.7873 295.25 37.1287 295.264 36.1889L291.264 36.1292ZM293.663 41.4189C295.184 42.6715 297.46 43.5409 300.212 44.1761L301.112 40.2785C298.546 39.6864 297.003 38.9875 296.206 38.3311L293.663 41.4189ZM300.244 44.1831L309.176 46.0922L310.012 42.1805L301.08 40.2715L300.244 44.1831ZM309.172 46.0914C313.937 47.1188 317.215 48.6969 319.252 50.6571L322.026 47.7748C319.245 45.0985 315.159 43.2903 310.015 42.1813L309.172 46.0914ZM319.259 50.6635C321.251 52.5619 322.301 55.0537 322.321 58.3303L326.321 58.3061C326.295 54.0826 324.891 50.5063 322.019 47.7683L319.259 50.6635ZM322.321 58.3044C322.301 61.1881 321.466 63.6745 319.828 65.8386L323.018 68.2523C325.199 65.3709 326.295 62.0392 326.321 58.332L322.321 58.3044ZM319.827 65.8408C318.186 68.0148 315.867 69.7693 312.776 71.0644L314.321 74.7538C317.957 73.2307 320.887 71.0761 323.02 68.2501L319.827 65.8408ZM312.776 71.0644C309.7 72.3529 306.107 73.0227 301.957 73.0227V77.0227C306.535 77.0227 310.67 76.2834 314.321 74.7538L312.776 71.0644ZM301.957 73.0227C295.813 73.0227 291.089 71.7364 287.612 69.3508L285.349 72.6492C289.69 75.6273 295.283 77.0227 301.957 77.0227V73.0227ZM287.618 69.3553C284.173 66.9717 282.136 63.7005 281.468 59.4083L277.515 60.0235C278.347 65.3677 280.969 69.6192 285.342 72.6447L287.618 69.3553ZM279.683 61.7067L291.717 60.5476L291.334 56.566L279.3 57.7251L279.683 61.7067ZM289.577 59.0065C290.219 61.7915 291.634 64.0377 293.879 65.5633L296.127 62.2548C294.827 61.3714 293.923 60.0494 293.474 58.1071L289.577 59.0065ZM293.879 65.5633C296.075 67.0559 298.81 67.7159 301.923 67.7159V63.7159C299.355 63.7159 297.476 63.1714 296.127 62.2548L293.879 65.5633ZM301.923 67.7159C305.112 67.7159 307.898 67.0622 310.104 65.5633L307.856 62.2548C306.517 63.165 304.598 63.7159 301.923 63.7159V67.7159ZM310.094 65.5699C312.305 64.0871 313.673 62.0339 313.673 59.4432H309.673C309.673 60.3979 309.247 61.322 307.866 62.2482L310.094 65.5699ZM313.673 59.4432C313.673 57.3464 312.828 55.5508 311.224 54.1982L308.645 57.2563C309.359 57.8583 309.673 58.54 309.673 59.4432H313.673ZM311.239 54.2109C309.737 52.9195 307.589 52.0757 305.041 51.5228L304.192 55.4318C306.462 55.9243 307.86 56.5805 308.631 57.2436L311.239 54.2109ZM305.027 51.5199L296.096 49.6449L295.274 53.5596L304.206 55.4346L305.027 51.5199ZM296.092 49.6442C291.282 48.6429 287.997 47.0075 285.971 44.9238L283.103 47.7125C285.895 50.5834 290.042 52.4707 295.277 53.5603L296.092 49.6442ZM285.977 44.9304C283.968 42.8452 282.937 40.2062 282.957 36.8528L278.957 36.829C278.932 41.1119 280.288 44.7912 283.097 47.706L285.977 44.9304ZM282.957 36.8268C282.937 33.9943 283.697 31.6354 285.182 29.6545L281.982 27.2545C279.923 30.001 278.932 33.233 278.957 36.855L282.957 36.8268ZM285.181 29.657C286.728 27.6008 288.904 25.9641 291.802 24.7842L290.294 21.0795C286.829 22.4904 284.028 24.5356 281.984 27.2521L285.181 29.657ZM291.809 24.7814C294.728 23.5808 298.154 22.9545 302.128 22.9545V18.9545C297.738 18.9545 293.778 19.6465 290.287 21.0822L291.809 24.7814ZM302.128 22.9545C308.002 22.9545 312.36 24.2075 315.425 26.4812L317.808 23.2688C313.827 20.3152 308.526 18.9545 302.128 18.9545V22.9545ZM315.43 26.4849C318.556 28.7892 320.481 31.8742 321.231 35.8483L325.161 35.1063C324.23 30.1713 321.768 26.1881 317.803 23.2651L315.43 26.4849Z" fill="white" mask="url(#path-1-outside-1_286_16086)"/>
</svg>
