<svg width="25" height="24" viewBox="0 0 25 24" fill="none" xmlns="http://www.w3.org/2000/svg">
<path d="M12.5005 6L13.9345 8.77725L17.0005 9.22275L14.7505 11.25L15.5005 14.25L12.5005 12.5625L9.50049 14.25L10.2505 11.25L8.00049 9.22275L11.1505 8.77725L12.5005 6Z" fill="black"/>
<path d="M13.8025 22.5L12.5005 21.75L15.5005 16.5H20.0005C20.1976 16.5003 20.3927 16.4617 20.5749 16.3864C20.757 16.3111 20.9225 16.2007 21.0618 16.0613C21.2012 15.922 21.3116 15.7565 21.3869 15.5744C21.4622 15.3923 21.5008 15.1971 21.5005 15V6C21.5008 5.80293 21.4622 5.60775 21.3869 5.42562C21.3116 5.2435 21.2012 5.07803 21.0618 4.93868C20.9225 4.79933 20.757 4.68885 20.5749 4.61358C20.3927 4.5383 20.1976 4.4997 20.0005 4.5H5.00049C4.80342 4.4997 4.60824 4.5383 4.42611 4.61358C4.24399 4.68885 4.07851 4.79933 3.93917 4.93868C3.79982 5.07803 3.68934 5.2435 3.61407 5.42562C3.53879 5.60775 3.50019 5.80293 3.50049 6V15C3.50019 15.1971 3.53879 15.3923 3.61407 15.5744C3.68934 15.7565 3.79982 15.922 3.93917 16.0613C4.07851 16.2007 4.24399 16.3111 4.42611 16.3864C4.60824 16.4617 4.80342 16.5003 5.00049 16.5H11.7505V18H5.00049C4.20484 18 3.44178 17.6839 2.87917 17.1213C2.31656 16.5587 2.00049 15.7956 2.00049 15V6C2.00039 5.60601 2.07792 5.21585 2.22865 4.85183C2.37938 4.48781 2.60035 4.15706 2.87895 3.87846C3.15754 3.59986 3.4883 3.37889 3.85232 3.22816C4.21634 3.07743 4.60649 2.9999 5.00049 3H20.0005C20.3945 2.9999 20.7846 3.07743 21.1487 3.22816C21.5127 3.37889 21.8434 3.59986 22.122 3.87846C22.4006 4.15706 22.6216 4.48781 22.7723 4.85183C22.9231 5.21585 23.0006 5.60601 23.0005 6V15C23.0005 15.7956 22.6844 16.5587 22.1218 17.1213C21.5592 17.6839 20.7961 18 20.0005 18H16.3742L13.8025 22.5Z" fill="black"/>
</svg>
