<svg width="24" height="24" viewBox="0 0 24 24" fill="none" xmlns="http://www.w3.org/2000/svg">
<path opacity="0.5" fill-rule="evenodd" clip-rule="evenodd" d="M2 5.75C2 5.55109 2.07902 5.36032 2.21967 5.21967C2.36032 5.07902 2.55109 5 2.75 5H20.75C20.9489 5 21.1397 5.07902 21.2803 5.21967C21.421 5.36032 21.5 5.55109 21.5 5.75C21.5 5.94891 21.421 6.13968 21.2803 6.28033C21.1397 6.42098 20.9489 6.5 20.75 6.5H2.75C2.55109 6.5 2.36032 6.42098 2.21967 6.28033C2.07902 6.13968 2 5.94891 2 5.75ZM2 9.75C2 9.55109 2.07902 9.36032 2.21967 9.21967C2.36032 9.07902 2.55109 9 2.75 9H20.75C20.9489 9 21.1397 9.07902 21.2803 9.21967C21.421 9.36032 21.5 9.55109 21.5 9.75C21.5 9.94891 21.421 10.1397 21.2803 10.2803C21.1397 10.421 20.9489 10.5 20.75 10.5H2.75C2.55109 10.5 2.36032 10.421 2.21967 10.2803C2.07902 10.1397 2 9.94891 2 9.75ZM2 13.75C2 13.5511 2.07902 13.3603 2.21967 13.2197C2.36032 13.079 2.55109 13 2.75 13H10.75C10.9489 13 11.1397 13.079 11.2803 13.2197C11.421 13.3603 11.5 13.5511 11.5 13.75C11.5 13.9489 11.421 14.1397 11.2803 14.2803C11.1397 14.421 10.9489 14.5 10.75 14.5H2.75C2.55109 14.5 2.36032 14.421 2.21967 14.2803C2.07902 14.1397 2 13.9489 2 13.75ZM2 17.75C2 17.5511 2.07902 17.3603 2.21967 17.2197C2.36032 17.079 2.55109 17 2.75 17H10.75C10.9489 17 11.1397 17.079 11.2803 17.2197C11.421 17.3603 11.5 17.5511 11.5 17.75C11.5 17.9489 11.421 18.1397 11.2803 18.2803C11.1397 18.421 10.9489 18.5 10.75 18.5H2.75C2.55109 18.5 2.36032 18.421 2.21967 18.2803C2.07902 18.1397 2 17.9489 2 17.75Z" fill="#623CE7"/>
<path d="M16.762 14.18C16.8979 14.0635 17.071 13.9995 17.25 13.9995C17.429 13.9995 17.602 14.0635 17.738 14.18L21.238 17.18C21.3128 17.2441 21.3743 17.3223 21.4189 17.4101C21.4636 17.498 21.4905 17.5938 21.4981 17.692C21.5057 17.7903 21.4939 17.889 21.4633 17.9827C21.4328 18.0764 21.384 18.1631 21.32 18.238C21.2559 18.3128 21.1777 18.3743 21.0898 18.419C21.002 18.4636 20.9062 18.4905 20.8079 18.4981C20.7097 18.5057 20.6109 18.4939 20.5172 18.4634C20.4236 18.4328 20.3368 18.3841 20.262 18.32L17.25 15.737L14.238 18.318C14.1638 18.3859 14.0768 18.4382 13.982 18.4718C13.8872 18.5054 13.7867 18.5196 13.6863 18.5135C13.5859 18.5075 13.4878 18.4813 13.3978 18.4366C13.3077 18.3918 13.2276 18.3294 13.1621 18.2531C13.0967 18.1768 13.0472 18.0881 13.0168 17.9923C12.9863 17.8965 12.9754 17.7955 12.9847 17.6954C12.994 17.5953 13.0233 17.4981 13.071 17.4095C13.1186 17.321 13.1836 17.2429 13.262 17.18L16.762 14.18Z" fill="#623CE7"/>
</svg>
