<svg width="469" height="469" viewBox="0 0 469 469" fill="none" xmlns="http://www.w3.org/2000/svg">
<path d="M235.641 404H240.411V419.457H235.43C233.93 419.457 232.647 419.148 231.581 418.529C230.514 417.915 229.696 417.032 229.128 415.88C228.559 414.733 228.275 413.359 228.275 411.759C228.275 410.149 228.562 408.762 229.135 407.6C229.709 406.443 230.544 405.552 231.641 404.928C232.738 404.309 234.071 404 235.641 404ZM238.539 405.66H235.762C234.484 405.66 233.425 405.907 232.584 406.4C231.744 406.893 231.118 407.595 230.705 408.506C230.293 409.417 230.086 410.501 230.086 411.759C230.086 413.007 230.29 414.081 230.698 414.982C231.105 415.887 231.714 416.582 232.524 417.065C233.334 417.553 234.343 417.797 235.551 417.797H238.539V405.66Z" fill="white"/>
<path d="M219.073 403.57C219.804 403.638 220.455 403.837 221.026 404.168C221.596 404.504 222.032 404.952 222.335 405.51C222.636 406.074 222.752 406.732 222.683 407.483C222.622 408.145 222.442 408.669 222.143 409.055C221.844 409.447 221.466 409.74 221.009 409.935C220.551 410.13 220.054 410.261 219.517 410.327C218.975 410.398 218.432 410.444 217.89 410.464C217.18 410.489 216.605 410.504 216.165 410.508C215.72 410.517 215.391 410.57 215.18 410.667C214.964 410.763 214.843 410.954 214.817 411.24L214.811 411.3C214.743 412.041 214.892 412.636 215.26 413.085C215.623 413.533 216.213 413.795 217.029 413.871C217.876 413.949 218.557 413.826 219.072 413.5C219.587 413.174 219.962 412.809 220.197 412.407L221.824 413.164C221.459 413.838 221.008 414.347 220.471 414.691C219.928 415.04 219.351 415.264 218.741 415.364C218.125 415.468 217.526 415.494 216.945 415.44C216.574 415.405 216.153 415.32 215.68 415.186C215.202 415.055 214.75 414.834 214.324 414.521C213.893 414.209 213.553 413.765 213.302 413.191C213.052 412.617 212.97 411.871 213.054 410.955L213.757 403.349L215.531 403.514L215.386 405.077L215.476 405.085C215.62 404.846 215.845 404.596 216.152 404.337C216.459 404.077 216.855 403.869 217.339 403.712C217.823 403.555 218.401 403.508 219.073 403.57ZM218.655 405.138C217.953 405.073 217.35 405.156 216.843 405.387C216.332 405.617 215.933 405.939 215.647 406.352C215.357 406.764 215.189 407.211 215.144 407.692L214.994 409.316C215.078 409.232 215.251 409.165 215.513 409.114C215.77 409.067 216.067 409.031 216.403 409.007C216.733 408.987 217.055 408.971 217.369 408.96C217.678 408.954 217.929 408.947 218.122 408.939C218.588 408.922 219.028 408.864 219.441 408.766C219.849 408.673 220.188 408.505 220.458 408.262C220.723 408.024 220.876 407.679 220.918 407.228C220.975 406.612 220.79 406.125 220.363 405.767C219.931 405.413 219.361 405.204 218.655 405.138Z" fill="black"/>
<path d="M197.698 412.365L197.974 410.881L203.879 411.988L203.603 413.472L197.698 412.365ZM201.373 415.88L199.622 415.552L201.647 404.689C201.739 404.194 201.736 403.81 201.639 403.536C201.536 403.266 201.378 403.067 201.167 402.94C200.949 402.818 200.711 402.732 200.454 402.684C200.261 402.648 200.101 402.628 199.974 402.625C199.846 402.626 199.743 402.628 199.666 402.628L199.603 400.989C199.73 400.966 199.904 400.953 200.125 400.948C200.347 400.939 200.621 400.965 200.948 401.026C201.442 401.118 201.907 401.316 202.342 401.617C202.772 401.918 203.103 402.315 203.333 402.809C203.559 403.302 203.609 403.88 203.486 404.542L201.373 415.88Z" fill="black"/>
<path d="M188.324 397.79C189.03 397.991 189.634 398.307 190.134 398.738C190.633 399.173 190.98 399.693 191.174 400.298C191.367 400.908 191.361 401.576 191.155 402.302C190.973 402.941 190.701 403.423 190.336 403.748C189.971 404.078 189.545 404.297 189.06 404.404C188.574 404.512 188.062 404.549 187.522 404.515C186.976 404.485 186.435 404.43 185.898 404.35C185.196 404.244 184.628 404.152 184.195 404.076C183.755 404.003 183.423 403.994 183.198 404.05C182.968 404.105 182.814 404.27 182.735 404.546L182.719 404.604C182.516 405.321 182.554 405.933 182.833 406.442C183.107 406.949 183.639 407.316 184.428 407.541C185.245 407.774 185.937 407.778 186.503 407.552C187.07 407.326 187.505 407.037 187.809 406.684L189.27 407.729C188.787 408.324 188.25 408.741 187.659 408.981C187.062 409.224 186.454 409.338 185.836 409.324C185.211 409.313 184.618 409.228 184.057 409.067C183.699 408.965 183.3 408.804 182.86 408.585C182.414 408.369 182.011 408.068 181.649 407.682C181.283 407.295 181.03 406.796 180.889 406.186C180.749 405.575 180.804 404.827 181.055 403.941L183.14 396.593L184.853 397.082L184.425 398.592L184.512 398.617C184.697 398.408 184.964 398.204 185.313 398.006C185.662 397.807 186.089 397.675 186.594 397.61C187.099 397.545 187.676 397.605 188.324 397.79ZM187.626 399.255C186.949 399.061 186.34 399.031 185.8 399.165C185.255 399.297 184.804 399.54 184.448 399.894C184.086 400.246 183.84 400.654 183.708 401.119L183.263 402.687C183.36 402.621 183.542 402.587 183.81 402.584C184.071 402.586 184.369 402.605 184.703 402.643C185.031 402.685 185.351 402.729 185.662 402.775C185.967 402.826 186.214 402.865 186.405 402.893C186.867 402.962 187.31 402.987 187.734 402.966C188.152 402.95 188.516 402.847 188.826 402.658C189.129 402.472 189.343 402.162 189.467 401.726C189.636 401.131 189.543 400.618 189.189 400.187C188.829 399.76 188.308 399.449 187.626 399.255Z" fill="black"/>
<path d="M150.731 395.484C150.472 396.209 150.536 396.905 150.924 397.572C151.313 398.238 151.925 398.78 152.763 399.198C153.375 399.504 153.96 399.672 154.517 399.703C155.071 399.732 155.562 399.637 155.991 399.418C156.415 399.197 156.737 398.865 156.956 398.424C157.14 398.054 157.21 397.693 157.166 397.339C157.116 396.988 156.995 396.655 156.803 396.34C156.609 396.029 156.387 395.741 156.137 395.475C155.884 395.214 155.646 394.986 155.423 394.79L154.207 393.71C153.894 393.436 153.558 393.105 153.2 392.718C152.837 392.329 152.524 391.889 152.262 391.398C151.994 390.91 151.837 390.376 151.793 389.797C151.749 389.218 151.888 388.604 152.211 387.956C152.582 387.207 153.114 386.629 153.805 386.221C154.492 385.81 155.298 385.614 156.222 385.631C157.141 385.646 158.132 385.918 159.195 386.449C160.185 386.943 160.963 387.531 161.529 388.213C162.09 388.893 162.436 389.622 162.566 390.402C162.691 391.178 162.593 391.959 162.271 392.743L160.543 391.88C160.757 391.335 160.796 390.814 160.66 390.319C160.518 389.826 160.251 389.378 159.861 388.975C159.465 388.575 158.992 388.237 158.443 387.963C157.803 387.644 157.178 387.461 156.566 387.414C155.952 387.372 155.404 387.464 154.921 387.689C154.436 387.92 154.068 388.287 153.818 388.792C153.589 389.251 153.532 389.69 153.645 390.106C153.759 390.523 153.98 390.926 154.309 391.315C154.638 391.704 155.012 392.088 155.431 392.466L156.891 393.802C157.817 394.653 158.452 395.524 158.796 396.415C159.14 397.307 159.08 398.219 158.617 399.152C158.232 399.927 157.687 400.499 156.982 400.866C156.27 401.236 155.479 401.404 154.609 401.369C153.732 401.336 152.853 401.099 151.97 400.658C151.079 400.213 150.366 399.658 149.832 398.992C149.295 398.33 148.961 397.623 148.829 396.871C148.692 396.117 148.786 395.385 149.11 394.675L150.731 395.484Z" fill="black"/>
<path d="M144.331 378.094C145.255 378.667 145.915 379.379 146.312 380.23C146.709 381.081 146.851 382.001 146.737 382.99C146.623 383.98 146.262 384.967 145.654 385.951C145.035 386.953 144.305 387.723 143.465 388.261C142.617 388.801 141.728 389.081 140.799 389.102C139.862 389.125 138.949 388.86 138.06 388.308C137.368 387.878 136.823 387.362 136.426 386.76C136.029 386.158 135.796 385.516 135.726 384.833C135.657 384.151 135.77 383.475 136.065 382.805L137.578 383.745C137.416 384.266 137.427 384.823 137.61 385.417C137.787 386.012 138.208 386.517 138.875 386.931C139.465 387.297 140.078 387.464 140.712 387.432C141.34 387.401 141.95 387.185 142.542 386.782C143.126 386.381 143.649 385.808 144.109 385.063C144.579 384.301 144.869 383.563 144.979 382.849C145.084 382.133 145.013 381.482 144.766 380.896C144.514 380.307 144.089 379.827 143.491 379.456C143.097 379.211 142.698 379.058 142.293 378.996C141.888 378.934 141.495 378.963 141.114 379.081C140.733 379.2 140.385 379.41 140.068 379.712L138.555 378.772C139 378.243 139.536 377.85 140.161 377.593C140.78 377.337 141.45 377.244 142.171 377.312C142.884 377.382 143.605 377.643 144.331 378.094Z" fill="black"/>
<path d="M133.153 370.662L126.179 379.923L124.759 378.847L131.733 369.586L133.153 370.662ZM124.294 380.919C124.571 381.129 124.739 381.404 124.797 381.745C124.851 382.083 124.779 382.384 124.579 382.649C124.379 382.915 124.11 383.067 123.771 383.107C123.428 383.144 123.118 383.058 122.842 382.849C122.565 382.639 122.399 382.365 122.345 382.028C122.287 381.687 122.357 381.384 122.557 381.118C122.757 380.853 123.028 380.702 123.371 380.665C123.71 380.625 124.018 380.71 124.294 380.919Z" fill="black"/>
<path d="M120.328 359.682C121.152 360.436 121.698 361.269 121.964 362.18C122.223 363.092 122.215 364.025 121.939 364.979C121.655 365.934 121.115 366.851 120.316 367.729C119.517 368.608 118.653 369.237 117.725 369.615C116.789 369.993 115.862 370.107 114.945 369.957C114.02 369.807 113.172 369.379 112.399 368.673C111.954 368.266 111.581 367.789 111.282 367.243C110.983 366.697 110.808 366.093 110.756 365.432C110.7 364.775 110.816 364.076 111.102 363.335C111.387 362.594 111.894 361.824 112.622 361.023L113.13 360.465L119.725 366.494L118.689 367.633L113.431 362.826C112.991 363.31 112.695 363.83 112.543 364.387C112.387 364.939 112.385 365.487 112.539 366.029C112.688 366.568 113 367.055 113.476 367.489C113.999 367.968 114.571 368.252 115.19 368.341C115.803 368.43 116.399 368.362 116.979 368.135C117.559 367.909 118.064 367.559 118.493 367.086L119.184 366.327C119.773 365.679 120.161 365.028 120.347 364.373C120.527 363.72 120.523 363.092 120.335 362.491C120.144 361.893 119.783 361.352 119.252 360.866C118.906 360.551 118.55 360.314 118.184 360.156C117.81 359.999 117.431 359.925 117.048 359.936C116.661 359.95 116.276 360.055 115.894 360.251L114.949 358.733C115.475 358.423 116.045 358.249 116.659 358.21C117.269 358.174 117.889 358.278 118.519 358.519C119.146 358.765 119.749 359.153 120.328 359.682Z" fill="black"/>
<path d="M106.057 355.72L111.204 351.015L112.402 352.333L103.846 360.155L102.688 358.882L104.025 357.659L103.924 357.548C103.306 357.744 102.68 357.758 102.044 357.589C101.404 357.424 100.79 357.018 100.201 356.37C99.6728 355.789 99.3297 355.172 99.1714 354.519C99.0093 353.87 99.0578 353.205 99.3169 352.525C99.5723 351.848 100.064 351.177 100.792 350.512L106.229 345.542L107.427 346.86L102.079 351.748C101.407 352.363 101.042 353.017 100.985 353.71C100.925 354.406 101.172 355.059 101.727 355.67C102.109 356.091 102.542 356.383 103.026 356.548C103.505 356.71 104.006 356.726 104.528 356.596C105.05 356.467 105.559 356.175 106.057 355.72Z" fill="black"/>
<path d="M98.6847 335.594C99.3385 336.462 99.6969 337.365 99.76 338.302C99.823 339.239 99.6226 340.148 99.1589 341.029C98.6951 341.911 98.0019 342.701 97.0793 343.399C96.1407 344.11 95.1822 344.565 94.2039 344.763C93.2185 344.96 92.2887 344.9 91.4144 344.584C90.5331 344.267 89.7776 343.69 89.148 342.854C88.6577 342.203 88.3361 341.525 88.1833 340.82C88.0305 340.115 88.0451 339.432 88.2271 338.77C88.4091 338.109 88.7586 337.519 89.2757 337.001L90.3472 338.424C90.0077 338.852 89.8163 339.375 89.7729 339.995C89.7224 340.614 89.9333 341.237 90.4055 341.864C90.8232 342.419 91.3338 342.796 91.9374 342.995C92.534 343.193 93.1808 343.212 93.8778 343.05C94.5678 342.887 95.2617 342.541 95.9597 342.013C96.6737 341.472 97.2107 340.889 97.5707 340.263C97.9276 339.633 98.0967 339 98.0777 338.364C98.0557 337.724 97.8329 337.123 97.4091 336.56C97.1307 336.19 96.8137 335.903 96.4584 335.699C96.103 335.495 95.7263 335.379 95.3282 335.353C94.9301 335.326 94.5293 335.396 94.1258 335.563L93.0543 334.14C93.6604 333.807 94.3016 333.634 94.9779 333.62C95.6472 333.606 96.3055 333.76 96.9526 334.085C97.5928 334.408 98.1701 334.911 98.6847 335.594Z" fill="black"/>
<path d="M90.5171 323.473C91.104 324.423 91.4007 325.373 91.4074 326.323C91.4072 327.271 91.1437 328.166 90.6171 329.008C90.0835 329.848 89.3124 330.582 88.3035 331.208C87.2947 331.835 86.2919 332.203 85.2951 332.312C84.2914 332.42 83.3688 332.276 82.5274 331.881C81.679 331.484 80.9799 330.84 80.43 329.949C80.1128 329.436 79.885 328.875 79.7467 328.268C79.6084 327.661 79.6048 327.033 79.7357 326.383C79.8624 325.735 80.1646 325.095 80.6423 324.461C81.12 323.826 81.8184 323.224 82.7374 322.653L83.3786 322.255L88.0734 329.859L86.7653 330.671L83.0222 324.609C82.4665 324.954 82.0394 325.373 81.7408 325.866C81.4396 326.355 81.2885 326.881 81.2874 327.445C81.2837 328.004 81.451 328.557 81.7894 329.105C82.1621 329.709 82.6342 330.138 83.2057 330.394C83.7703 330.647 84.3625 330.744 84.9824 330.685C85.6023 330.626 86.1837 330.428 86.7265 330.091L87.5986 329.549C88.3424 329.088 88.8936 328.568 89.2522 327.99C89.6039 327.41 89.7717 326.805 89.7555 326.176C89.735 325.549 89.5358 324.929 89.1578 324.317C88.9119 323.919 88.6343 323.594 88.3249 323.342C88.0086 323.088 87.6645 322.914 87.2925 322.819C86.9163 322.727 86.5175 322.723 86.0963 322.806L85.6026 321.087C86.1936 320.934 86.7895 320.922 87.3904 321.052C87.987 321.185 88.5552 321.454 89.0951 321.859C89.6308 322.267 90.1048 322.805 90.5171 323.473Z" fill="black"/>
<path d="M76.3023 294.794C76.4365 295.142 76.4274 295.488 76.2749 295.833C76.1224 296.179 75.8726 296.419 75.5256 296.554C75.1785 296.689 74.8326 296.68 74.4879 296.528C74.1433 296.375 73.9038 296.126 73.7696 295.778C73.6355 295.431 73.6446 295.085 73.7971 294.739C73.9496 294.394 74.1994 294.154 74.5464 294.019C74.7762 293.93 75.01 293.907 75.2476 293.949C75.4834 293.987 75.6971 294.08 75.8887 294.226C76.0738 294.37 76.2117 294.56 76.3023 294.794Z" fill="black"/>
<path d="M68.8824 270.335L53.6897 273.183L52.7326 268.048C52.5104 266.856 52.5439 265.841 52.8331 265.004C53.1164 264.163 53.5874 263.491 54.2462 262.988C54.905 262.486 55.6819 262.151 56.577 261.983C57.4722 261.815 58.3198 261.846 59.12 262.075C59.9193 262.299 60.607 262.748 61.1833 263.423C61.7546 264.099 62.1505 265.029 62.3709 266.211L63.0569 269.891L61.4249 270.197L60.7499 266.576C60.5978 265.76 60.3347 265.131 59.9606 264.689C59.5865 264.247 59.1388 263.96 58.6176 263.828C58.0905 263.691 57.5228 263.679 56.9145 263.794C56.3062 263.908 55.7834 264.123 55.3461 264.441C54.9079 264.753 54.5993 265.185 54.4205 265.735C54.2367 266.287 54.2217 266.976 54.3757 267.802L54.9787 271.037L68.5394 268.495L68.8824 270.335Z" fill="black"/>
<path d="M70.3579 251.739C70.3857 252.04 70.3854 252.31 70.3571 252.55C70.3337 252.79 70.3037 252.957 70.2669 253.051L68.6621 252.746C68.7325 252.304 68.7374 251.92 68.6768 251.592C68.6162 251.264 68.4413 250.985 68.1521 250.754C67.8675 250.518 67.4222 250.319 66.8161 250.158L65.8837 249.911L54.6748 255.258L54.4971 253.334L63.4011 249.293L63.39 249.173L53.897 246.841L53.7193 244.917L67.3987 248.588C68.0152 248.753 68.534 248.98 68.9549 249.269C69.3807 249.558 69.7088 249.909 69.939 250.323C70.1687 250.731 70.3084 251.203 70.3579 251.739Z" fill="black"/>
<path d="M53.324 230.272H54.8335L54.8335 236.279H53.324L53.324 230.272ZM50.5465 234.528V232.747H61.5961C62.0993 232.747 62.4766 232.674 62.7282 232.528C62.9748 232.377 63.1408 232.186 63.2264 231.955C63.3069 231.718 63.3471 231.469 63.3471 231.208C63.3471 231.011 63.337 230.85 63.3169 230.724C63.2918 230.599 63.2716 230.498 63.2565 230.423L64.8566 230.06C64.9019 230.181 64.9472 230.35 64.9925 230.566C65.0428 230.782 65.0679 231.057 65.0679 231.389C65.0679 231.892 64.9598 232.385 64.7434 232.868C64.527 233.346 64.1975 233.743 63.7547 234.06C63.3119 234.372 62.7534 234.528 62.0791 234.528H50.5465Z" fill="black"/>
<path d="M58.621 220.799L65.565 221.444L65.4011 223.218L50.0101 221.788L50.174 220.014L55.8254 220.539L55.8393 220.389C55.2681 220.063 54.8322 219.613 54.5315 219.039C54.2262 218.46 54.1155 217.717 54.1993 216.81C54.272 216.024 54.4934 215.349 54.8637 214.788C55.229 214.225 55.7498 213.811 56.4262 213.546C57.098 213.275 57.9299 213.185 58.9219 213.277L66.2567 213.959L66.0928 215.733L58.8783 215.062C57.9614 214.977 57.2305 215.149 56.6855 215.578C56.136 216.002 55.8226 216.633 55.7453 217.469C55.6915 218.051 55.7661 218.583 55.969 219.067C56.1724 219.546 56.4973 219.94 56.9437 220.249C57.3906 220.553 57.9497 220.737 58.621 220.799Z" fill="black"/>
<path d="M68.2262 203.073C68.0344 204.102 67.6213 204.959 66.9869 205.644C66.3535 206.324 65.556 206.799 64.5946 207.069C63.6341 207.334 62.5653 207.357 61.3883 207.136C60.2013 206.913 59.2054 206.504 58.4003 205.908C57.5962 205.306 57.0213 204.574 56.6755 203.711C56.3307 202.842 56.2541 201.894 56.4459 200.865C56.6377 199.836 57.0503 198.982 57.6838 198.302C58.3182 197.617 59.1181 197.142 60.0836 196.878C61.0499 196.609 62.1266 196.585 63.3135 196.808C64.4906 197.028 65.4787 197.439 66.2778 198.039C67.0779 198.634 67.6504 199.366 67.9952 200.235C68.341 201.098 68.418 202.044 68.2262 203.073ZM66.6535 202.778C66.7992 201.997 66.7188 201.316 66.4122 200.737C66.1057 200.157 65.6486 199.685 65.041 199.32C64.4333 198.955 63.7487 198.701 62.9871 198.559C62.2255 198.416 61.4932 198.404 60.7903 198.523C60.0874 198.642 59.4861 198.916 58.9865 199.345C58.4869 199.773 58.1643 200.378 58.0186 201.16C57.8729 201.941 57.9558 202.622 58.2673 203.203C58.5788 203.783 59.0408 204.256 59.6534 204.622C60.266 204.988 60.9531 205.242 61.7147 205.385C62.4763 205.528 63.2061 205.539 63.9041 205.419C64.6021 205.299 65.1984 205.024 65.693 204.595C66.1877 204.165 66.5078 203.56 66.6535 202.778Z" fill="black"/>
<path d="M64.0971 188.515L70.8033 190.428L70.3171 192.142L59.1691 188.961L59.6388 187.305L61.3807 187.802L61.4219 187.657C60.9299 187.234 60.5877 186.707 60.3953 186.077C60.1979 185.445 60.2188 184.708 60.4578 183.866C60.672 183.111 61.0143 182.494 61.4847 182.016C61.9502 181.537 62.5397 181.229 63.2531 181.092C63.9617 180.954 64.7902 181.021 65.7386 181.291L72.8222 183.312L72.3361 185.026L65.3685 183.038C64.4927 182.788 63.7459 182.821 63.1281 183.136C62.5055 183.451 62.0816 184.005 61.8563 184.799C61.7011 185.346 61.681 185.868 61.7958 186.367C61.9121 186.86 62.1626 187.295 62.5473 187.672C62.9321 188.049 63.4487 188.33 64.0971 188.515Z" fill="black"/>
<path d="M80.6904 162.812L66.8613 155.906L69.1841 151.228C69.7234 150.142 70.3601 149.352 71.0941 148.858C71.8259 148.358 72.6054 148.106 73.4328 148.103C74.2601 148.1 75.0812 148.301 75.896 148.708C76.7108 149.115 77.3685 149.652 77.8691 150.318C78.372 150.98 78.6503 151.754 78.7041 152.641C78.7534 153.526 78.5106 154.508 77.9758 155.585L76.3109 158.938L74.8253 158.196L76.4634 154.897C76.8326 154.153 77.0008 153.492 76.968 152.913C76.9352 152.335 76.7508 151.835 76.4148 151.414C76.0766 150.986 75.6306 150.634 75.0769 150.358C74.5232 150.081 73.9766 149.938 73.437 149.927C72.8996 149.912 72.3941 150.07 71.9205 150.401C71.4424 150.731 71.0165 151.272 70.6428 152.024L69.1793 154.972L81.5228 161.135L80.6904 162.812Z" fill="black"/>
<path d="M89.2513 146.687L79.4024 140.572L80.3065 139.108L81.7941 140.031L81.8575 139.928C81.4812 139.446 81.2867 138.875 81.274 138.216C81.2613 137.556 81.4373 136.931 81.8021 136.34C81.8709 136.229 81.9589 136.091 82.0663 135.927C82.1736 135.763 82.258 135.64 82.3195 135.56L83.8583 136.516C83.8138 136.559 83.7219 136.665 83.5826 136.833C83.4416 136.994 83.309 137.175 83.1848 137.377C82.8887 137.856 82.7248 138.347 82.6931 138.848C82.6597 139.343 82.7509 139.808 82.9666 140.244C83.1807 140.673 83.51 141.026 83.9546 141.302L90.1871 145.171L89.2513 146.687Z" fill="black"/>
<path d="M99.5083 131.881C98.8787 132.717 98.1278 133.3 97.2555 133.63C96.3862 133.957 95.4613 134.026 94.481 133.839C93.5036 133.648 92.5376 133.191 91.5829 132.468C90.6202 131.739 89.9115 130.928 89.4569 130.035C89.0052 129.137 88.8169 128.224 88.892 127.297C88.9701 126.365 89.3239 125.481 89.9535 124.645C90.5831 123.809 91.3325 123.228 92.2018 122.901C93.0742 122.571 94.001 122.503 94.9823 122.697C95.9667 122.887 96.9403 123.347 97.903 124.076C98.8576 124.799 99.5588 125.607 100.006 126.502C100.457 127.392 100.643 128.303 100.565 129.235C100.49 130.163 100.138 131.045 99.5083 131.881ZM98.2327 130.915C98.711 130.28 98.942 129.634 98.9258 128.978C98.9097 128.322 98.711 127.695 98.3298 127.097C97.9487 126.499 97.4492 125.966 96.8315 125.499C96.2137 125.031 95.564 124.693 94.8821 124.486C94.2003 124.279 93.5406 124.256 92.9029 124.417C92.2653 124.578 91.7073 124.976 91.2291 125.611C90.7508 126.246 90.5218 126.893 90.542 127.552C90.5622 128.211 90.7649 128.841 91.1501 129.442C91.5352 130.043 92.0367 130.578 92.6544 131.045C93.2722 131.513 93.9199 131.849 94.5977 132.053C95.2755 132.257 95.9313 132.277 96.5649 132.113C97.1986 131.949 97.7545 131.55 98.2327 130.915Z" fill="black"/>
<path d="M113.243 122.134C112.664 122.771 112.085 123.244 111.505 123.552C110.929 123.864 110.371 124.052 109.829 124.117C109.295 124.18 108.798 124.166 108.339 124.073L108.558 122.351C108.822 122.374 109.138 122.387 109.504 122.387C109.874 122.392 110.277 122.304 110.713 122.123C111.157 121.942 111.614 121.593 112.084 121.075C112.714 120.383 113.066 119.658 113.141 118.902C113.217 118.146 112.898 117.442 112.185 116.79L110.447 115.202L110.345 115.313C110.413 115.553 110.481 115.867 110.549 116.256C110.616 116.638 110.589 117.076 110.466 117.571C110.342 118.058 110.027 118.581 109.519 119.139C108.89 119.832 108.161 120.304 107.333 120.556C106.509 120.805 105.639 120.804 104.724 120.554C103.813 120.3 102.911 119.766 102.02 118.951C101.144 118.15 100.521 117.298 100.152 116.394C99.7792 115.488 99.665 114.596 99.8094 113.719C99.9501 112.839 100.349 112.038 101.005 111.315C101.513 110.757 102.009 110.399 102.492 110.241C102.975 110.076 103.414 110.013 103.807 110.051C104.199 110.083 104.514 110.119 104.75 110.158L104.872 110.024L103.513 108.781L104.671 107.508L113.472 115.554C114.207 116.226 114.653 116.94 114.809 117.696C114.972 118.452 114.906 119.209 114.61 119.969C114.321 120.727 113.866 121.449 113.243 122.134ZM108.501 117.881C108.981 117.352 109.267 116.795 109.357 116.21C109.447 115.624 109.352 115.029 109.072 114.425C108.791 113.821 108.335 113.23 107.704 112.653C107.088 112.09 106.459 111.685 105.818 111.44C105.177 111.195 104.557 111.133 103.958 111.254C103.359 111.374 102.816 111.702 102.329 112.238C101.821 112.797 101.539 113.391 101.483 114.022C101.43 114.648 101.556 115.272 101.863 115.893C102.172 116.51 102.617 117.083 103.196 117.613C103.79 118.156 104.4 118.543 105.026 118.775C105.652 118.999 106.262 119.046 106.857 118.915C107.452 118.777 108 118.432 108.501 117.881Z" fill="black"/>
<path d="M118.676 110.071L110.878 101.492L112.148 100.331L113.326 101.627L113.415 101.546C113.185 100.979 113.154 100.376 113.322 99.7383C113.491 99.1005 113.831 98.5474 114.343 98.0789C114.44 97.9906 114.562 97.8821 114.711 97.7534C114.859 97.6247 114.973 97.5302 115.054 97.4697L116.273 98.8101C116.218 98.8396 116.101 98.9162 115.921 99.0399C115.741 99.1564 115.564 99.2945 115.39 99.454C114.974 99.8343 114.682 100.261 114.514 100.735C114.347 101.202 114.307 101.674 114.395 102.153C114.484 102.624 114.704 103.053 115.056 103.44L119.991 108.869L118.676 110.071Z" fill="black"/>
<path d="M132.621 98.6515C132.035 99.095 131.421 99.387 130.777 99.5274C130.13 99.6638 129.507 99.6273 128.909 99.4179C128.307 99.2044 127.779 98.7963 127.325 98.1934C126.926 97.6628 126.706 97.1537 126.666 96.6662C126.624 96.1746 126.706 95.7022 126.912 95.249C127.119 94.7958 127.398 94.3635 127.75 93.9521C128.102 93.5337 128.472 93.1338 128.859 92.7525C129.366 92.2549 129.78 91.8558 130.102 91.5554C130.425 91.2479 130.632 90.9871 130.723 90.7732C130.817 90.5562 130.779 90.3331 130.606 90.104L130.57 90.0558C130.122 89.4609 129.611 89.1217 129.038 89.0382C128.469 88.9516 127.857 89.1559 127.204 89.651C126.526 90.1644 126.106 90.7156 125.945 91.3046C125.784 91.8937 125.752 92.4163 125.85 92.8724L124.139 93.4107C123.956 92.6657 123.947 91.9846 124.112 91.3673C124.278 90.743 124.553 90.1877 124.936 89.7016C125.321 89.2085 125.746 88.7857 126.211 88.4334C126.508 88.2086 126.876 87.9866 127.316 87.7673C127.756 87.541 128.239 87.3996 128.763 87.3433C129.292 87.2839 129.841 87.3822 130.412 87.638C130.982 87.8939 131.545 88.3896 132.099 89.1251L136.693 95.2267L135.273 96.302L134.329 95.0479L134.257 95.1026C134.312 95.3765 134.313 95.713 134.261 96.1123C134.209 96.5115 134.057 96.9327 133.805 97.376C133.553 97.8193 133.158 98.2445 132.621 98.6515ZM131.875 97.2093C132.437 96.784 132.827 96.315 133.045 95.8023C133.268 95.2866 133.346 94.7795 133.279 94.281C133.216 93.7794 133.04 93.3357 132.749 92.9498L131.768 91.6475C131.763 91.7654 131.68 91.932 131.521 92.1472C131.363 92.3553 131.168 92.5818 130.937 92.8265C130.706 93.0641 130.479 93.2932 130.254 93.5137C130.031 93.7271 129.85 93.9016 129.713 94.0371C129.38 94.3648 129.094 94.7044 128.855 95.056C128.617 95.4005 128.48 95.7536 128.444 96.1155C128.408 96.4703 128.527 96.8286 128.8 97.1904C129.172 97.6848 129.636 97.9204 130.192 97.8972C130.748 97.8669 131.309 97.6376 131.875 97.2093Z" fill="black"/>
<path d="M139.728 93.0506L133.637 83.1864L135.099 82.2786L136.051 83.8199L136.179 83.7403C136.059 83.0863 136.138 82.4717 136.415 81.8966C136.69 81.3172 137.148 80.8284 137.79 80.4303C138.439 80.0268 139.071 79.8388 139.686 79.8661C140.301 79.8865 140.894 80.0844 141.462 80.4597L141.565 80.396C141.503 79.7299 141.631 79.0904 141.95 78.4775C142.267 77.8604 142.778 77.3328 143.484 76.8949C144.364 76.3481 145.255 76.177 146.156 76.3816C147.054 76.5819 147.862 77.2622 148.578 78.4224L152.654 85.0242L151.141 85.9638L147.065 79.362C146.615 78.6342 146.095 78.2374 145.505 78.1717C144.914 78.106 144.35 78.2404 143.811 78.5748C143.119 79.0048 142.712 79.5477 142.59 80.2035C142.466 80.855 142.601 81.4997 142.995 82.1377L146.96 88.5597L145.421 89.5152L141.25 82.7592C140.904 82.1984 140.443 81.8595 139.868 81.7426C139.291 81.6214 138.716 81.7387 138.143 82.0943C137.75 82.3385 137.447 82.6717 137.234 83.0938C137.026 83.5133 136.932 83.9743 136.953 84.4768C136.975 84.9724 137.136 85.4621 137.434 85.9459L141.241 92.111L139.728 93.0506Z" fill="black"/>
<path d="M153.119 84.8503L147.964 74.4669L149.503 73.6981L150.309 75.3205L150.444 75.2531C150.385 74.5909 150.52 73.9863 150.849 73.4393C151.177 72.8878 151.678 72.4435 152.353 72.1063C153.037 71.7646 153.684 71.6357 154.293 71.7197C154.905 71.7968 155.476 72.0485 156.008 72.4747L156.116 72.4208C156.115 71.7519 156.302 71.127 156.677 70.5463C157.049 69.9611 157.607 69.483 158.349 69.1121C159.277 68.6491 160.18 68.561 161.058 68.8479C161.934 69.1303 162.675 69.8821 163.282 71.1034L166.732 78.0527L165.139 78.8485L161.688 71.8992C161.308 71.133 160.827 70.69 160.245 70.5701C159.663 70.4501 159.088 70.5318 158.521 70.815C157.792 71.1792 157.336 71.6821 157.155 72.3238C156.971 72.961 157.046 73.6154 157.38 74.2869L160.736 81.0469L159.116 81.8561L155.584 74.7446C155.291 74.1542 154.864 73.7743 154.302 73.6048C153.738 73.4308 153.155 73.4945 152.552 73.7957C152.137 74.0025 151.805 74.3062 151.555 74.7069C151.309 75.1053 151.173 75.5556 151.147 76.0578C151.123 76.5533 151.238 77.0556 151.491 77.5649L154.713 84.0545L153.119 84.8503Z" fill="black"/>
<path d="M172.57 75.8433L168.393 65.0292L170.053 64.3842L174.231 75.1982L172.57 75.8433ZM168.541 62.8989C168.217 63.0246 167.895 63.0227 167.576 62.8932C167.261 62.7619 167.043 62.5413 166.924 62.2316C166.804 61.9218 166.816 61.612 166.961 61.3021C167.11 60.9904 167.347 60.7717 167.67 60.6459C167.994 60.5202 168.313 60.523 168.628 60.6543C168.948 60.7838 169.168 61.0035 169.288 61.3132C169.407 61.623 169.392 61.9337 169.243 62.2455C169.098 62.5553 168.864 62.7731 168.541 62.8989Z" fill="black"/>
<path d="M183.667 64.5742L185.571 71.2833L183.858 71.772L180.693 60.6193L182.348 60.1471L182.843 61.8898L182.988 61.8483C183.088 61.2074 183.356 60.6392 183.791 60.1437C184.224 59.6433 184.862 59.273 185.704 59.0328C186.459 58.8174 187.163 58.7839 187.817 58.9321C188.47 59.0756 189.042 59.4146 189.533 59.9493C190.024 60.4792 190.404 61.2185 190.673 62.1673L192.683 69.2539L190.971 69.7426L188.993 62.7721C188.744 61.896 188.323 61.2784 187.73 60.9192C187.135 60.5553 186.44 60.4865 185.647 60.7129C185.1 60.8689 184.645 61.1269 184.282 61.487C183.923 61.8457 183.685 62.2877 183.568 62.8131C183.45 63.3386 183.483 63.9256 183.667 64.5742Z" fill="black"/>
<path d="M205.16 71.2695C204.314 71.428 203.567 71.4554 202.918 71.3518C202.27 71.2532 201.711 71.0662 201.24 70.7911C200.774 70.5199 200.386 70.2087 200.075 69.8575L201.287 68.6167C201.484 68.7948 201.729 68.9946 202.021 69.2163C202.314 69.4429 202.689 69.6158 203.146 69.7348C203.609 69.8579 204.185 69.855 204.872 69.7262C205.792 69.5537 206.51 69.1888 207.025 68.6315C207.541 68.0741 207.71 67.3206 207.533 66.3709L207.101 64.0559L206.953 64.0837C206.863 64.3156 206.728 64.6071 206.548 64.9583C206.371 65.3036 206.085 65.6362 205.69 65.9561C205.298 66.2702 204.731 66.4968 203.989 66.6358C203.069 66.8083 202.203 66.7455 201.39 66.4474C200.581 66.1484 199.887 65.6232 199.307 64.8719C198.732 64.1197 198.333 63.1501 198.112 61.9629C197.895 60.7955 197.91 59.7406 198.159 58.798C198.408 57.8505 198.853 57.0707 199.497 56.4586C200.139 55.8416 200.94 55.4432 201.9 55.2633C202.642 55.1242 203.253 55.1376 203.734 55.3033C204.22 55.4632 204.608 55.6771 204.898 55.9452C205.193 56.2074 205.423 56.4253 205.588 56.5991L205.766 56.5657L205.429 54.7553L207.12 54.4383L209.306 66.1614C209.488 67.1408 209.414 67.9789 209.083 68.6757C208.758 69.3765 208.249 69.9403 207.556 70.3672C206.869 70.7981 206.07 71.0989 205.16 71.2695ZM203.933 65.0184C204.635 64.8867 205.199 64.6147 205.624 64.2023C206.048 63.79 206.331 63.2584 206.47 62.6076C206.61 61.9569 206.602 61.2111 206.445 60.3702C206.292 59.5491 206.033 58.8476 205.669 58.2657C205.304 57.6839 204.847 57.2603 204.295 56.995C203.744 56.7297 203.113 56.6638 202.401 56.7973C201.659 56.9364 201.076 57.2402 200.651 57.7089C200.232 58.1766 199.957 58.7502 199.828 59.4297C199.704 60.1083 199.714 60.8334 199.857 61.605C200.005 62.3965 200.259 63.0732 200.62 63.6353C200.984 64.1915 201.444 64.5968 201.998 64.8513C202.556 65.0999 203.201 65.1556 203.933 65.0184Z" fill="black"/>
<path d="M235.71 64.1208C235.338 64.1208 235.019 63.9874 234.752 63.7207C234.485 63.4541 234.352 63.1346 234.352 62.7622C234.352 62.3899 234.485 62.0704 234.752 61.8037C235.019 61.537 235.338 61.4037 235.71 61.4037C236.083 61.4037 236.402 61.537 236.669 61.8037C236.936 62.0704 237.069 62.3899 237.069 62.7622C237.069 63.0088 237.006 63.2352 236.88 63.4415C236.76 63.6478 236.596 63.8138 236.39 63.9396C236.188 64.0604 235.962 64.1208 235.71 64.1208Z" fill="white"/>
<path d="M273.785 52.6509L275.625 52.9958L273.749 63.0569C273.555 64.0957 273.138 64.9773 272.496 65.7016C271.86 66.422 271.056 66.9342 270.083 67.2381C269.111 67.5372 268.029 67.575 266.837 67.3515C265.645 67.1281 264.65 66.7009 263.852 66.07C263.054 65.4342 262.486 64.6647 262.148 63.7617C261.815 62.8547 261.746 61.8818 261.939 60.8431L263.815 50.782L265.654 51.1268L263.807 61.0395C263.668 61.7815 263.708 62.4725 263.927 63.1124C264.146 63.7474 264.527 64.2871 265.068 64.7316C265.616 65.1721 266.312 65.4716 267.158 65.6302C268.004 65.7887 268.761 65.7617 269.43 65.5493C270.1 65.3319 270.65 64.9665 271.078 64.4529C271.512 63.9354 271.799 63.3056 271.937 62.5637L273.785 52.6509Z" fill="white"/>
<path d="M281.534 54.534L283.611 61.8137L283.727 61.8469L289.315 56.754L291.434 57.3587L284.65 63.4602L287.215 72.229L285.095 71.6243L282.986 64.4608L282.869 64.4277L277.315 69.4044L275.196 68.7997L282.095 62.7313L279.415 53.9294L281.534 54.534Z" fill="white"/>
<path d="M305.882 61.9731L294.57 77.4323L293.05 76.8419L304.362 61.3827L305.882 61.9731Z" fill="white"/>
<path d="M321.85 70.3204L323.525 71.1566L318.973 80.3231C318.503 81.2695 317.861 82.0033 317.046 82.5243C316.238 83.0431 315.324 83.3154 314.306 83.3412C313.29 83.3625 312.239 83.1022 311.154 82.5605C310.07 82.0188 309.229 81.3349 308.634 80.5089C308.041 79.6784 307.705 78.7823 307.626 77.8207C307.554 76.8568 307.753 75.9017 308.223 74.9553L312.775 65.7887L314.449 66.6249L309.965 75.6563C309.629 76.3323 309.479 77.0081 309.514 77.6837C309.552 78.3549 309.77 78.9785 310.17 79.5547C310.576 80.1286 311.163 80.6078 311.933 80.9922C312.703 81.3765 313.439 81.5583 314.14 81.5373C314.844 81.5118 315.472 81.3108 316.024 80.9341C316.583 80.5552 317.03 80.0277 317.366 79.3517L321.85 70.3204Z" fill="white"/>
<path d="M333.012 76.8879L324.891 90.0402L323.301 89.0528L331.422 75.9006L333.012 76.8879Z" fill="white"/>
<path d="M348.344 107.83L344.823 104.612L355.221 93.1742L358.897 96.5352C360.004 97.5469 360.743 98.6416 361.114 99.8193C361.488 100.993 361.498 102.198 361.142 103.435C360.79 104.667 360.076 105.875 359 107.059C357.917 108.251 356.772 109.083 355.567 109.556C354.365 110.025 353.15 110.121 351.921 109.842C350.695 109.56 349.502 108.89 348.344 107.83ZM347.321 104.646L349.371 106.52C350.315 107.382 351.262 107.915 352.214 108.117C353.166 108.319 354.101 108.222 355.018 107.827C355.935 107.431 356.817 106.768 357.663 105.837C358.502 104.914 359.074 103.981 359.379 103.04C359.688 102.095 359.705 101.17 359.432 100.266C359.163 99.3585 358.582 98.4972 357.691 97.6824L355.485 95.6658L347.321 104.646Z" fill="white"/>
<path d="M360.18 120.02C359.428 119.194 358.962 118.314 358.781 117.382C358.607 116.45 358.702 115.522 359.065 114.597C359.435 113.673 360.058 112.81 360.934 112.009C361.811 111.207 362.729 110.661 363.688 110.37C364.655 110.08 365.588 110.052 366.488 110.286C367.395 110.52 368.2 111.025 368.904 111.799C369.31 112.246 369.637 112.755 369.884 113.326C370.132 113.898 370.251 114.515 370.242 115.178C370.236 115.838 370.057 116.523 369.704 117.234C369.351 117.946 368.775 118.666 367.977 119.396L367.419 119.905L361.408 113.293L362.545 112.254L367.337 117.526C367.82 117.085 368.163 116.594 368.366 116.054C368.572 115.518 368.624 114.973 368.521 114.419C368.422 113.869 368.156 113.355 367.723 112.879C367.246 112.354 366.703 112.018 366.094 111.873C365.493 111.727 364.893 111.74 364.295 111.912C363.696 112.085 363.161 112.386 362.69 112.817L361.932 113.51C361.286 114.101 360.839 114.713 360.593 115.347C360.354 115.982 360.3 116.607 360.432 117.223C360.567 117.836 360.877 118.408 361.361 118.941C361.676 119.287 362.008 119.555 362.358 119.746C362.716 119.938 363.086 120.046 363.469 120.071C363.856 120.092 364.249 120.023 364.647 119.863L365.448 121.462C364.896 121.722 364.312 121.843 363.698 121.825C363.087 121.804 362.479 121.644 361.874 121.345C361.272 121.043 360.708 120.601 360.18 120.02Z" fill="white"/>
<path d="M379.906 129.731L378.582 128.726C378.734 128.484 378.851 128.209 378.934 127.901C379.023 127.593 379.035 127.257 378.967 126.891C378.9 126.525 378.71 126.136 378.398 125.722C377.972 125.155 377.486 124.781 376.94 124.601C376.402 124.422 375.934 124.482 375.537 124.783C375.184 125.05 375.002 125.39 374.992 125.802C374.981 126.214 375.113 126.745 375.388 127.395L376.086 129.025C376.509 130.005 376.667 130.854 376.56 131.573C376.456 132.289 376.082 132.892 375.436 133.381C374.906 133.782 374.318 133.987 373.671 133.998C373.027 134.012 372.38 133.839 371.731 133.479C371.081 133.119 370.486 132.579 369.944 131.859C369.233 130.915 368.848 129.978 368.791 129.049C368.734 128.12 369.037 127.276 369.699 126.515L371.053 127.611C370.653 128.116 370.463 128.642 370.483 129.188C370.507 129.738 370.738 130.304 371.177 130.887C371.677 131.55 372.214 131.971 372.788 132.148C373.369 132.326 373.859 132.265 374.256 131.964C374.577 131.721 374.761 131.405 374.808 131.016C374.859 130.624 374.763 130.154 374.52 129.605L373.719 127.788C373.281 126.788 373.123 125.93 373.244 125.213C373.373 124.497 373.756 123.898 374.394 123.415C374.915 123.02 375.487 122.817 376.109 122.807C376.734 122.801 377.353 122.966 377.966 123.303C378.582 123.645 379.135 124.141 379.626 124.792C380.316 125.709 380.657 126.58 380.65 127.406C380.645 128.237 380.397 129.011 379.906 129.731Z" fill="white"/>
<path d="M378.53 143.952L388.378 137.836L389.314 139.352L379.465 145.467L378.53 143.952ZM390.496 137.588C390.313 137.292 390.257 136.975 390.325 136.636C390.397 136.302 390.573 136.047 390.856 135.872C391.138 135.697 391.444 135.652 391.774 135.737C392.107 135.826 392.365 136.018 392.548 136.314C392.73 136.609 392.786 136.924 392.714 137.259C392.645 137.597 392.47 137.854 392.188 138.03C391.906 138.205 391.598 138.248 391.265 138.158C390.935 138.073 390.678 137.883 390.496 137.588Z" fill="white"/>
<path d="M382.862 161.215C382.48 160.444 382.25 159.732 382.173 159.079C382.091 158.428 382.118 157.838 382.254 157.309C382.388 156.786 382.581 156.327 382.834 155.931L384.356 156.757C384.239 156.995 384.114 157.286 383.98 157.628C383.842 157.972 383.778 158.381 383.788 158.854C383.796 159.334 383.956 159.887 384.267 160.513C384.683 161.351 385.229 161.942 385.905 162.285C386.581 162.628 387.351 162.584 388.215 162.152L390.322 161.1L390.255 160.965C390.008 160.942 389.691 160.892 389.304 160.815C388.925 160.741 388.527 160.557 388.112 160.264C387.703 159.973 387.331 159.489 386.996 158.813C386.579 157.975 386.404 157.123 386.469 156.259C386.536 155.398 386.851 154.586 387.415 153.82C387.981 153.06 388.805 152.41 389.885 151.87C390.947 151.34 391.965 151.065 392.939 151.045C393.917 151.024 394.788 151.239 395.551 151.69C396.319 152.139 396.92 152.8 397.354 153.675C397.689 154.351 397.843 154.943 397.815 155.452C397.794 155.963 397.694 156.396 397.515 156.749C397.344 157.105 397.197 157.386 397.075 157.593L397.155 157.756L398.803 156.933L399.568 158.474L388.9 163.802C388.008 164.247 387.183 164.406 386.423 164.279C385.661 164.159 384.981 163.824 384.382 163.273C383.781 162.73 383.274 162.044 382.862 161.215ZM388.535 158.315C388.852 158.955 389.267 159.422 389.779 159.718C390.291 160.013 390.879 160.139 391.542 160.095C392.205 160.05 392.92 159.837 393.685 159.455C394.432 159.082 395.036 158.64 395.495 158.129C395.955 157.618 396.238 157.061 396.342 156.457C396.447 155.854 396.339 155.228 396.016 154.579C395.681 153.903 395.23 153.425 394.664 153.145C394.1 152.87 393.474 152.763 392.786 152.826C392.1 152.893 391.406 153.101 390.704 153.452C389.984 153.812 389.403 154.242 388.961 154.744C388.526 155.248 388.262 155.802 388.168 156.406C388.081 157.011 388.203 157.648 388.535 158.315Z" fill="white"/>
<path d="M398.42 167.686L391.919 170.211L391.277 168.55L402.083 164.352L402.703 165.957L401.015 166.613L401.069 166.754C401.716 166.794 402.305 167.008 402.838 167.394C403.375 167.78 403.801 168.38 404.117 169.197C404.4 169.929 404.497 170.628 404.409 171.294C404.326 171.958 404.041 172.56 403.553 173.1C403.071 173.639 402.37 174.086 401.451 174.443L394.584 177.111L393.942 175.449L400.696 172.826C401.545 172.496 402.121 172.018 402.425 171.393C402.733 170.766 402.738 170.068 402.44 169.298C402.236 168.767 401.938 168.338 401.546 168.01C401.157 167.686 400.696 167.49 400.162 167.422C399.629 167.354 399.048 167.442 398.42 167.686Z" fill="white"/>
<path d="M401.54 204.004C401.471 203.638 401.544 203.299 401.757 202.988C401.97 202.676 402.26 202.487 402.626 202.418C402.992 202.349 403.33 202.422 403.641 202.635C403.952 202.848 404.142 203.137 404.21 203.503C404.279 203.869 404.206 204.208 403.993 204.519C403.78 204.83 403.49 205.02 403.124 205.089C402.882 205.134 402.648 205.114 402.422 205.029C402.197 204.948 402.004 204.818 401.842 204.638C401.687 204.463 401.586 204.251 401.54 204.004Z" fill="white"/>
<path d="M419.248 227.272V229.507L406.418 234.76V234.941L419.248 240.194V242.428H403.791V240.677H415.535V240.526L403.791 235.695V234.005L415.535 229.174V229.023H403.791V227.272H419.248Z" fill="white"/>
<path d="M403.368 249.977C403.435 249.246 403.634 248.595 403.965 248.024C404.301 247.454 404.748 247.018 405.306 246.716C405.87 246.415 406.527 246.299 407.279 246.369C407.94 246.43 408.464 246.61 408.851 246.909C409.243 247.208 409.536 247.587 409.731 248.045C409.927 248.502 410.057 249 410.124 249.536C410.195 250.079 410.241 250.621 410.262 251.164C410.287 251.874 410.302 252.448 410.307 252.889C410.316 253.334 410.369 253.662 410.466 253.874C410.562 254.09 410.753 254.211 411.039 254.238L411.099 254.243C411.84 254.312 412.435 254.163 412.884 253.795C413.332 253.432 413.593 252.843 413.669 252.026C413.747 251.179 413.623 250.498 413.297 249.983C412.97 249.467 412.606 249.092 412.203 248.858L412.96 247.23C413.633 247.596 414.142 248.048 414.487 248.585C414.836 249.128 415.061 249.705 415.161 250.315C415.266 250.931 415.291 251.53 415.237 252.111C415.203 252.482 415.119 252.904 414.984 253.376C414.854 253.854 414.633 254.306 414.321 254.732C414.008 255.163 413.565 255.503 412.991 255.753C412.417 256.003 411.672 256.085 410.755 256L403.149 255.293L403.313 253.52L404.876 253.665L404.885 253.575C404.645 253.431 404.396 253.206 404.136 252.899C403.877 252.592 403.668 252.196 403.511 251.711C403.353 251.227 403.306 250.649 403.368 249.977ZM404.936 250.396C404.871 251.097 404.954 251.701 405.185 252.208C405.416 252.72 405.738 253.118 406.151 253.404C406.564 253.695 407.011 253.863 407.492 253.908L409.115 254.059C409.032 253.975 408.964 253.802 408.913 253.54C408.866 253.283 408.83 252.986 408.806 252.651C408.786 252.32 408.77 251.998 408.758 251.683C408.752 251.375 408.744 251.124 408.737 250.931C408.719 250.465 408.662 250.025 408.563 249.611C408.47 249.203 408.301 248.864 408.059 248.594C407.82 248.329 407.476 248.176 407.025 248.134C406.409 248.077 405.922 248.262 405.564 248.688C405.211 249.12 405.001 249.689 404.936 250.396Z" fill="white"/>
<path d="M400.991 266.848C401.19 265.779 401.614 264.907 402.262 264.229C402.911 263.552 403.716 263.089 404.679 262.839C405.642 262.59 406.692 262.572 407.829 262.785C408.986 263.002 409.968 263.406 410.774 263.997C411.584 264.595 412.167 265.323 412.524 266.184C412.884 267.05 412.969 267.997 412.777 269.026C412.628 269.828 412.345 270.522 411.928 271.109C411.512 271.697 410.998 272.146 410.387 272.456C409.777 272.767 409.106 272.905 408.375 272.87L408.702 271.119C409.246 271.083 409.761 270.872 410.248 270.487C410.738 270.108 411.055 269.533 411.199 268.761C411.326 268.079 411.26 267.447 410.999 266.866C410.743 266.29 410.321 265.799 409.731 265.391C409.146 264.99 408.423 264.708 407.562 264.547C406.682 264.382 405.889 264.377 405.185 264.532C404.48 264.691 403.899 264.992 403.443 265.434C402.986 265.88 402.693 266.45 402.564 267.143C402.479 267.598 402.481 268.025 402.57 268.426C402.659 268.827 402.828 269.184 403.077 269.496C403.326 269.809 403.648 270.059 404.043 270.246L403.717 271.997C403.063 271.772 402.502 271.413 402.036 270.921C401.574 270.436 401.244 269.844 401.046 269.146C400.853 268.455 400.835 267.689 400.991 266.848Z" fill="white"/>
<path d="M405.389 279.995L398.682 278.081L399.169 276.368L414.033 280.609L413.547 282.322L408.089 280.765L408.047 280.91C408.549 281.336 408.895 281.859 409.085 282.478C409.279 283.104 409.252 283.855 409.003 284.731C408.788 285.491 408.446 286.113 407.979 286.597C407.517 287.083 406.93 287.394 406.216 287.53C405.506 287.673 404.672 287.608 403.714 287.334L396.631 285.313L397.117 283.6L404.084 285.588C404.97 285.84 405.72 285.806 406.334 285.484C406.952 285.168 407.375 284.606 407.605 283.798C407.764 283.236 407.788 282.699 407.678 282.186C407.565 281.678 407.318 281.231 406.936 280.845C406.553 280.463 406.037 280.18 405.389 279.995Z" fill="white"/>
<path d="M393.251 294.912L404.057 299.11L403.415 300.771L392.609 296.573L393.251 294.912ZM405.532 300.654C405.657 300.33 405.875 300.094 406.186 299.945C406.495 299.801 406.805 299.788 407.114 299.909C407.424 300.029 407.644 300.247 407.776 300.563C407.906 300.883 407.908 301.205 407.783 301.529C407.658 301.853 407.441 302.087 407.131 302.231C406.82 302.38 406.51 302.395 406.201 302.274C405.891 302.154 405.671 301.934 405.542 301.613C405.41 301.298 405.407 300.978 405.532 300.654Z" fill="white"/>
<path d="M394.098 310.726L387.859 307.611L388.651 306.015L399.022 311.195L398.257 312.736L396.637 311.927L396.569 312.062C396.975 312.568 397.215 313.149 397.288 313.804C397.366 314.462 397.211 315.183 396.821 315.967C396.472 316.67 396.023 317.213 395.473 317.597C394.927 317.982 394.292 318.177 393.565 318.18C392.844 318.185 392.042 317.967 391.159 317.526L384.569 314.236L385.361 312.64L391.844 315.877C392.658 316.284 393.398 316.389 394.063 316.193C394.733 315.998 395.251 315.532 395.618 314.792C395.871 314.283 395.987 313.773 395.965 313.262C395.942 312.755 395.775 312.281 395.466 311.84C395.157 311.399 394.701 311.028 394.098 310.726Z" fill="white"/>
<path d="M378.632 323.993C379.219 323.043 379.935 322.353 380.779 321.924C381.626 321.502 382.542 321.339 383.529 321.436C384.517 321.541 385.515 321.906 386.524 322.532C387.533 323.159 388.308 323.895 388.85 324.741C389.394 325.594 389.677 326.486 389.699 327.418C389.723 328.356 389.46 329.271 388.91 330.162C388.593 330.675 388.194 331.13 387.714 331.524C387.233 331.919 386.674 332.202 386.035 332.375C385.401 332.549 384.695 332.564 383.916 332.418C383.136 332.271 382.287 331.913 381.368 331.342L380.727 330.944L385.422 323.341L386.73 324.153L382.987 330.215C383.543 330.56 384.107 330.757 384.681 330.805C385.251 330.857 385.789 330.758 386.292 330.508C386.793 330.262 387.212 329.866 387.55 329.317C387.923 328.714 388.096 328.099 388.069 327.472C388.044 326.852 387.867 326.277 387.537 325.747C387.208 325.217 386.772 324.783 386.23 324.446L385.357 323.905C384.614 323.443 383.904 323.18 383.228 323.116C382.554 323.058 381.939 323.177 381.385 323.472C380.834 323.77 380.37 324.225 379.992 324.837C379.746 325.236 379.579 325.63 379.492 326.02C379.407 326.417 379.405 326.803 379.486 327.18C379.571 327.558 379.745 327.918 380.008 328.259L378.694 329.468C378.293 329.006 378.017 328.477 377.865 327.879C377.718 327.284 377.705 326.654 377.826 325.989C377.951 325.326 378.22 324.661 378.632 323.993Z" fill="white"/>
<path d="M362.263 346.617L373.671 357.046L372.412 358.431L362.229 349.122L357.396 354.439L356.171 353.318L362.263 346.617Z" fill="white"/>
<path d="M348.69 360.094C349.515 359.341 350.392 358.873 351.321 358.691C352.251 358.517 353.176 358.611 354.099 358.975C355.02 359.345 355.881 359.97 356.679 360.849C357.478 361.727 358.023 362.648 358.312 363.61C358.602 364.579 358.63 365.515 358.396 366.417C358.162 367.327 357.659 368.135 356.886 368.841C356.44 369.248 355.933 369.576 355.363 369.824C354.793 370.072 354.177 370.192 353.516 370.183C352.859 370.177 352.175 369.998 351.466 369.644C350.757 369.29 350.038 368.713 349.31 367.913L348.803 367.354L355.398 361.325L356.434 362.464L351.175 367.271C351.615 367.755 352.105 368.099 352.643 368.302C353.178 368.509 353.721 368.561 354.274 368.458C354.822 368.358 355.334 368.091 355.81 367.657C356.333 367.178 356.668 366.633 356.814 366.023C356.959 365.42 356.946 364.818 356.774 364.218C356.603 363.618 356.302 363.082 355.872 362.609L355.182 361.85C354.593 361.202 353.982 360.754 353.35 360.508C352.717 360.268 352.094 360.214 351.48 360.346C350.869 360.482 350.298 360.793 349.767 361.278C349.421 361.594 349.153 361.928 348.963 362.279C348.772 362.638 348.664 363.009 348.639 363.393C348.618 363.781 348.687 364.174 348.846 364.574L347.251 365.378C346.992 364.824 346.871 364.239 346.889 363.622C346.911 363.01 347.07 362.4 347.369 361.793C347.67 361.19 348.111 360.624 348.69 360.094Z" fill="white"/>
<path d="M336.848 369.919C337.433 369.475 338.048 369.183 338.692 369.043C339.339 368.907 339.962 368.943 340.56 369.152C341.162 369.366 341.69 369.774 342.144 370.377C342.543 370.908 342.763 371.417 342.802 371.904C342.845 372.396 342.763 372.868 342.556 373.321C342.35 373.774 342.07 374.207 341.719 374.618C341.366 375.037 340.997 375.437 340.61 375.818C340.103 376.315 339.688 376.714 339.367 377.015C339.044 377.322 338.837 377.583 338.746 377.797C338.651 378.014 338.69 378.237 338.863 378.466L338.899 378.515C339.347 379.109 339.858 379.449 340.431 379.532C341 379.619 341.611 379.414 342.265 378.919C342.943 378.406 343.363 377.855 343.524 377.266C343.685 376.677 343.716 376.154 343.619 375.698L345.33 375.16C345.513 375.905 345.522 376.586 345.357 377.203C345.191 377.827 344.916 378.383 344.532 378.869C344.148 379.362 343.723 379.785 343.258 380.137C342.961 380.362 342.593 380.584 342.153 380.803C341.712 381.029 341.23 381.171 340.706 381.227C340.177 381.286 339.627 381.188 339.057 380.932C338.486 380.676 337.924 380.181 337.37 379.445L332.775 373.344L334.195 372.268L335.14 373.522L335.212 373.468C335.157 373.194 335.155 372.857 335.207 372.458C335.26 372.059 335.412 371.638 335.664 371.194C335.916 370.751 336.31 370.326 336.848 369.919ZM337.594 371.361C337.032 371.786 336.642 372.255 336.423 372.768C336.201 373.284 336.123 373.791 336.19 374.289C336.253 374.791 336.429 375.235 336.72 375.621L337.7 376.923C337.706 376.805 337.789 376.638 337.948 376.423C338.106 376.215 338.301 375.989 338.532 375.744C338.763 375.506 338.99 375.277 339.215 375.057C339.438 374.843 339.619 374.669 339.756 374.533C340.089 374.205 340.374 373.866 340.614 373.514C340.852 373.17 340.989 372.817 341.025 372.455C341.06 372.1 340.942 371.742 340.669 371.38C340.297 370.886 339.833 370.65 339.277 370.673C338.72 370.703 338.159 370.933 337.594 371.361Z" fill="white"/>
<path d="M326.074 377.796L332.165 387.66L330.703 388.568L329.783 387.078L329.68 387.142C329.802 387.741 329.722 388.339 329.439 388.935C329.157 389.531 328.721 390.012 328.131 390.378C328.02 390.447 327.879 390.532 327.71 390.631C327.541 390.73 327.411 390.802 327.32 390.846L326.368 389.305C326.427 389.286 326.557 389.232 326.757 389.144C326.955 389.063 327.154 388.959 327.355 388.835C327.834 388.537 328.199 388.171 328.451 387.737C328.701 387.309 328.827 386.852 328.828 386.365C328.828 385.886 328.69 385.423 328.415 384.978L324.561 378.736L326.074 377.796Z" fill="white"/>
<path d="M316.02 391.68L312.919 385.433L314.512 384.638L319.668 395.021L318.128 395.79L317.323 394.167L317.188 394.235C317.206 394.883 317.048 395.491 316.711 396.059C316.377 396.63 315.819 397.112 315.035 397.503C314.333 397.854 313.647 398.016 312.977 397.991C312.309 397.97 311.685 397.742 311.104 397.307C310.525 396.876 310.016 396.219 309.577 395.335L306.301 388.738L307.895 387.942L311.117 394.432C311.522 395.247 312.049 395.777 312.698 396.021C313.35 396.269 314.045 396.209 314.783 395.841C315.292 395.587 315.691 395.249 315.982 394.828C316.269 394.41 316.422 393.931 316.441 393.393C316.46 392.855 316.32 392.283 316.02 391.68Z" fill="white"/>
<path d="M296.899 392.726L301.077 403.54L299.417 404.185L295.239 393.371L296.899 392.726ZM300.929 405.67C301.253 405.545 301.574 405.547 301.894 405.676C302.209 405.807 302.426 406.028 302.546 406.338C302.666 406.648 302.653 406.957 302.509 407.267C302.359 407.579 302.123 407.798 301.799 407.923C301.476 408.049 301.156 408.046 300.841 407.915C300.522 407.786 300.302 407.566 300.182 407.256C300.063 406.946 300.077 406.636 300.227 406.324C300.371 406.014 300.605 405.796 300.929 405.67Z" fill="white"/>
<path d="M285.801 403.996L283.897 397.287L285.61 396.798L288.774 407.951L287.12 408.423L286.625 406.681L286.48 406.722C286.379 407.363 286.112 407.931 285.677 408.427C285.244 408.927 284.606 409.297 283.764 409.538C283.009 409.753 282.305 409.786 281.651 409.638C280.998 409.495 280.426 409.156 279.934 408.621C279.444 408.091 279.064 407.352 278.795 406.403L276.784 399.316L278.497 398.828L280.475 405.798C280.724 406.674 281.145 407.292 281.738 407.651C282.333 408.015 283.027 408.084 283.821 407.857C284.368 407.701 284.823 407.443 285.186 407.083C285.544 406.725 285.783 406.283 285.9 405.757C286.018 405.232 285.985 404.645 285.801 403.996Z" fill="white"/>
<path d="M264.309 397.301C265.155 397.142 265.902 397.115 266.551 397.218C267.199 397.317 267.758 397.504 268.229 397.779C268.694 398.05 269.082 398.362 269.394 398.713L268.182 399.954C267.985 399.776 267.74 399.576 267.448 399.354C267.155 399.127 266.78 398.955 266.322 398.835C265.859 398.712 265.284 398.715 264.597 398.844C263.677 399.017 262.959 399.381 262.444 399.939C261.928 400.496 261.759 401.25 261.936 402.199L262.368 404.514L262.516 404.487C262.606 404.255 262.741 403.963 262.921 403.612C263.097 403.267 263.383 402.934 263.779 402.614C264.171 402.3 264.738 402.074 265.48 401.934C266.4 401.762 267.266 401.825 268.079 402.123C268.887 402.422 269.581 402.947 270.162 403.698C270.737 404.451 271.135 405.42 271.357 406.607C271.574 407.775 271.558 408.83 271.309 409.772C271.061 410.72 270.615 411.5 269.972 412.112C269.329 412.729 268.528 413.127 267.569 413.307C266.827 413.446 266.216 413.433 265.734 413.267C265.249 413.107 264.861 412.893 264.57 412.625C264.276 412.363 264.046 412.145 263.88 411.971L263.702 412.005L264.04 413.815L262.349 414.132L260.163 402.409C259.981 401.43 260.055 400.591 260.386 399.895C260.71 399.194 261.22 398.63 261.913 398.203C262.6 397.772 263.399 397.471 264.309 397.301ZM265.536 403.552C264.833 403.684 264.27 403.956 263.845 404.368C263.42 404.78 263.138 405.312 262.998 405.963C262.859 406.613 262.867 407.359 263.024 408.2C263.177 409.021 263.436 409.723 263.8 410.305C264.164 410.886 264.622 411.31 265.173 411.575C265.724 411.841 266.356 411.906 267.068 411.773C267.81 411.634 268.393 411.33 268.818 410.861C269.237 410.394 269.511 409.82 269.641 409.141C269.765 408.462 269.755 407.737 269.611 406.965C269.464 406.174 269.21 405.497 268.849 404.935C268.484 404.379 268.025 403.974 267.471 403.719C266.913 403.47 266.268 403.415 265.536 403.552Z" fill="white"/>
<path d="M249.428 403.811C249.799 403.776 250.129 403.88 250.419 404.12C250.709 404.361 250.872 404.667 250.906 405.038C250.94 405.409 250.837 405.739 250.596 406.029C250.355 406.32 250.049 406.482 249.678 406.516C249.307 406.551 248.977 406.448 248.687 406.207C248.397 405.966 248.235 405.66 248.2 405.289C248.178 405.044 248.22 404.813 248.326 404.595C248.427 404.379 248.575 404.198 248.768 404.054C248.958 403.915 249.178 403.834 249.428 403.811Z" fill="white"/>
</svg>
