<svg width="25" height="24" viewBox="0 0 25 24" fill="none" xmlns="http://www.w3.org/2000/svg">
<path fill-rule="evenodd" clip-rule="evenodd" d="M14.8865 12.3335C14.7486 11.9435 14.4931 11.6059 14.1554 11.3671C13.8176 11.1282 13.4141 11 13.0005 11V10.5H12.0005V11C11.4701 11 10.9613 11.2107 10.5863 11.5858C10.2112 11.9609 10.0005 12.4696 10.0005 13C10.0005 13.5304 10.2112 14.0391 10.5863 14.4142C10.9613 14.7893 11.4701 15 12.0005 15V17C11.5655 17 11.195 16.7225 11.057 16.3335C11.0365 16.2699 11.0035 16.211 10.9599 16.1603C10.9162 16.1097 10.8629 16.0683 10.803 16.0386C10.7431 16.0089 10.6778 15.9916 10.6111 15.9875C10.5443 15.9835 10.4775 15.9929 10.4144 16.0152C10.3514 16.0375 10.2935 16.0721 10.2441 16.1172C10.1947 16.1622 10.1548 16.2167 10.1269 16.2775C10.0989 16.3382 10.0834 16.4039 10.0813 16.4707C10.0791 16.5376 10.0904 16.6041 10.1145 16.6665C10.2524 17.0565 10.5078 17.3941 10.8456 17.6329C11.1833 17.8718 11.5868 18 12.0005 18V18.5H13.0005V18C13.5309 18 14.0396 17.7893 14.4147 17.4142C14.7898 17.0391 15.0005 16.5304 15.0005 16C15.0005 15.4696 14.7898 14.9609 14.4147 14.5858C14.0396 14.2107 13.5309 14 13.0005 14V12C13.2073 11.9999 13.409 12.064 13.5779 12.1834C13.7468 12.3027 13.8745 12.4715 13.9435 12.6665C13.9876 12.7915 14.0797 12.8939 14.1993 12.9511C14.2586 12.9795 14.3228 12.9958 14.3884 12.9993C14.454 13.0028 14.5196 12.9934 14.5815 12.9715C14.6434 12.9496 14.7004 12.9158 14.7492 12.8719C14.7981 12.828 14.8378 12.7749 14.8661 12.7157C14.8944 12.6564 14.9108 12.5922 14.9143 12.5266C14.9178 12.461 14.9084 12.3954 14.8865 12.3335ZM12.0005 12C11.7353 12 11.4809 12.1054 11.2934 12.2929C11.1058 12.4804 11.0005 12.7348 11.0005 13C11.0005 13.2652 11.1058 13.5196 11.2934 13.7071C11.4809 13.8946 11.7353 14 12.0005 14V12ZM13.0005 17C13.2657 17 13.5201 16.8946 13.7076 16.7071C13.8951 16.5196 14.0005 16.2652 14.0005 16C14.0005 15.7348 13.8951 15.4804 13.7076 15.2929C13.5201 15.1054 13.2657 15 13.0005 15V17Z" fill="black"/>
<path fill-rule="evenodd" clip-rule="evenodd" d="M7.07698 4.3105C8.30398 3.71 10.317 3 12.52 3C14.677 3 16.637 3.6805 17.8575 4.273L17.9265 4.3065C18.2945 4.4885 18.5915 4.6605 18.8005 4.8L16.9535 7.5C21.2115 11.853 24.5005 20.9985 12.52 20.9985C0.539478 20.9985 3.73998 12.019 8.03498 7.5L6.19998 4.8C6.34148 4.7075 6.52098 4.6 6.73498 4.486C6.84098 4.429 6.95498 4.37 7.07698 4.3105ZM15.7665 7.464L17.245 5.3025C15.87 5.4015 14.234 5.7245 12.659 6.1805C11.534 6.5055 10.284 6.456 9.12648 6.2425C8.83479 6.18842 8.54511 6.12405 8.25798 6.0495L9.21798 7.463C11.2755 8.1955 13.7085 8.1955 15.7665 7.464ZM8.64048 8.315C11.048 9.245 13.9415 9.245 16.349 8.314C17.3539 9.37335 18.1946 10.5772 18.843 11.8855C19.519 13.2645 19.887 14.643 19.827 15.831C19.769 16.9775 19.318 17.957 18.288 18.685C17.2145 19.4435 15.409 19.9985 12.5195 19.9985C9.62698 19.9985 7.81298 19.453 6.72948 18.703C5.69198 17.984 5.23648 17.018 5.17198 15.887C5.10448 14.712 5.46448 13.3405 6.13798 11.952C6.78048 10.628 7.67698 9.3535 8.64048 8.315ZM8.06548 4.958C8.46548 5.077 8.88348 5.1805 9.30748 5.259C10.3825 5.457 11.4605 5.486 12.3805 5.2195C13.4526 4.90717 14.543 4.66154 15.6455 4.484C14.7255 4.207 13.6495 4 12.5195 4C10.797 4 9.19048 4.4805 8.06548 4.958Z" fill="black"/>
</svg>
