<svg width="563" height="76" viewBox="0 0 563 76" fill="none" xmlns="http://www.w3.org/2000/svg">
<mask id="path-1-outside-1_286_15611" maskUnits="userSpaceOnUse" x="-1" y="-1" width="565" height="78" fill="black">
<rect fill="white" x="-1" y="-1" width="565" height="78"/>
<path d="M64.2727 39.0909C64.2727 46.6136 62.8636 53.0568 60.0455 58.4205C57.25 63.7614 53.4318 67.8523 48.5909 70.6932C43.7727 73.5341 38.3068 74.9545 32.1932 74.9545C26.0795 74.9545 20.6023 73.5341 15.7614 70.6932C10.9432 67.8295 7.125 63.7273 4.30682 58.3864C1.51136 53.0227 0.113636 46.5909 0.113636 39.0909C0.113636 31.5682 1.51136 25.1364 4.30682 19.7955C7.125 14.4318 10.9432 10.3295 15.7614 7.48863C20.6023 4.64772 26.0795 3.22727 32.1932 3.22727C38.3068 3.22727 43.7727 4.64772 48.5909 7.48863C53.4318 10.3295 57.25 14.4318 60.0455 19.7955C62.8636 25.1364 64.2727 31.5682 64.2727 39.0909ZM51.5568 39.0909C51.5568 33.7955 50.7273 29.3295 49.0682 25.6932C47.4318 22.0341 45.1591 19.2727 42.25 17.4091C39.3409 15.5227 35.9886 14.5795 32.1932 14.5795C28.3977 14.5795 25.0455 15.5227 22.1364 17.4091C19.2273 19.2727 16.9432 22.0341 15.2841 25.6932C13.6477 29.3295 12.8295 33.7955 12.8295 39.0909C12.8295 44.3864 13.6477 48.8636 15.2841 52.5227C16.9432 56.1591 19.2273 58.9205 22.1364 60.8068C25.0455 62.6705 28.3977 63.6023 32.1932 63.6023C35.9886 63.6023 39.3409 62.6705 42.25 60.8068C45.1591 58.9205 47.4318 56.1591 49.0682 52.5227C50.7273 48.8636 51.5568 44.3864 51.5568 39.0909ZM109.06 51.9773V21.6364H121.401V74H109.435V64.6932H108.889C107.707 67.625 105.764 70.0227 103.06 71.8864C100.378 73.75 97.071 74.6818 93.1392 74.6818C89.7074 74.6818 86.6733 73.9205 84.0369 72.3977C81.4233 70.8523 79.3778 68.6136 77.9006 65.6818C76.4233 62.7273 75.6847 59.1591 75.6847 54.9773V21.6364H88.0256V53.0682C88.0256 56.3864 88.9347 59.0227 90.7528 60.9773C92.571 62.9318 94.9574 63.9091 97.9119 63.9091C99.7301 63.9091 101.491 63.4659 103.196 62.5795C104.901 61.6932 106.298 60.375 107.389 58.625C108.503 56.8523 109.06 54.6364 109.06 51.9773ZM134.091 74V21.6364H146.057V30.3636H146.602C147.557 27.3409 149.193 25.0114 151.511 23.375C153.852 21.7159 156.523 20.8864 159.523 20.8864C160.205 20.8864 160.966 20.9205 161.807 20.9886C162.67 21.0341 163.386 21.1136 163.955 21.2273V32.5795C163.432 32.3977 162.602 32.2386 161.466 32.1023C160.352 31.9432 159.273 31.8636 158.227 31.8636C155.977 31.8636 153.955 32.3523 152.159 33.3295C150.386 34.2841 148.989 35.6136 147.966 37.3182C146.943 39.0227 146.432 40.9886 146.432 43.2159V74H134.091ZM196.511 74V4.18182H222.693C228.057 4.18182 232.557 5.18182 236.193 7.18182C239.852 9.18182 242.614 11.9318 244.477 15.4318C246.364 18.9091 247.307 22.8636 247.307 27.2955C247.307 31.7727 246.364 35.75 244.477 39.2273C242.591 42.7045 239.807 45.4432 236.125 47.4432C232.443 49.4205 227.909 50.4091 222.523 50.4091H205.17V40.0114H220.818C223.955 40.0114 226.523 39.4659 228.523 38.375C230.523 37.2841 232 35.7841 232.955 33.875C233.932 31.9659 234.42 29.7727 234.42 27.2955C234.42 24.8182 233.932 22.6364 232.955 20.75C232 18.8636 230.511 17.3977 228.489 16.3523C226.489 15.2841 223.909 14.75 220.75 14.75H209.159V74H196.511ZM257.747 74V21.6364H269.713V30.3636H270.259C271.213 27.3409 272.849 25.0114 275.168 23.375C277.509 21.7159 280.179 20.8864 283.179 20.8864C283.861 20.8864 284.622 20.9205 285.463 20.9886C286.327 21.0341 287.043 21.1136 287.611 21.2273V32.5795C287.088 32.3977 286.259 32.2386 285.122 32.1023C284.009 31.9432 282.929 31.8636 281.884 31.8636C279.634 31.8636 277.611 32.3523 275.815 33.3295C274.043 34.2841 272.645 35.6136 271.622 37.3182C270.599 39.0227 270.088 40.9886 270.088 43.2159V74H257.747ZM316.494 75.0227C311.381 75.0227 306.949 73.8977 303.199 71.6477C299.449 69.3977 296.54 66.25 294.472 62.2045C292.426 58.1591 291.403 53.4318 291.403 48.0227C291.403 42.6136 292.426 37.875 294.472 33.8068C296.54 29.7386 299.449 26.5795 303.199 24.3295C306.949 22.0795 311.381 20.9545 316.494 20.9545C321.608 20.9545 326.04 22.0795 329.79 24.3295C333.54 26.5795 336.438 29.7386 338.483 33.8068C340.551 37.875 341.585 42.6136 341.585 48.0227C341.585 53.4318 340.551 58.1591 338.483 62.2045C336.438 66.25 333.54 69.3977 329.79 71.6477C326.04 73.8977 321.608 75.0227 316.494 75.0227ZM316.562 65.1364C319.335 65.1364 321.653 64.375 323.517 62.8523C325.381 61.3068 326.767 59.2386 327.676 56.6477C328.608 54.0568 329.074 51.1705 329.074 47.9886C329.074 44.7841 328.608 41.8864 327.676 39.2955C326.767 36.6818 325.381 34.6023 323.517 33.0568C321.653 31.5114 319.335 30.7386 316.562 30.7386C313.722 30.7386 311.358 31.5114 309.472 33.0568C307.608 34.6023 306.21 36.6818 305.278 39.2955C304.369 41.8864 303.915 44.7841 303.915 47.9886C303.915 51.1705 304.369 54.0568 305.278 56.6477C306.21 59.2386 307.608 61.3068 309.472 62.8523C311.358 64.375 313.722 65.1364 316.562 65.1364ZM352.06 74V21.6364H363.855V30.5341H364.469C365.56 27.5341 367.366 25.1932 369.889 23.5114C372.412 21.8068 375.423 20.9545 378.923 20.9545C382.469 20.9545 385.457 21.8182 387.889 23.5455C390.344 25.25 392.071 27.5795 393.071 30.5341H393.616C394.776 27.625 396.73 25.3068 399.48 23.5795C402.253 21.8295 405.537 20.9545 409.332 20.9545C414.151 20.9545 418.082 22.4773 421.128 25.5227C424.173 28.5682 425.696 33.0114 425.696 38.8523V74H413.321V40.7614C413.321 37.5114 412.457 35.1364 410.73 33.6364C409.003 32.1136 406.889 31.3523 404.389 31.3523C401.412 31.3523 399.082 32.2841 397.401 34.1477C395.741 35.9886 394.912 38.3864 394.912 41.3409V74H382.81V40.25C382.81 37.5455 381.991 35.3864 380.355 33.7727C378.741 32.1591 376.628 31.3523 374.014 31.3523C372.241 31.3523 370.628 31.8068 369.173 32.7159C367.719 33.6023 366.56 34.8636 365.696 36.5C364.832 38.1136 364.401 40 364.401 42.1591V74H352.06ZM438.216 74V21.6364H450.557V74H438.216ZM444.42 14.2045C442.466 14.2045 440.784 13.5568 439.375 12.2614C437.966 10.9432 437.261 9.36363 437.261 7.52272C437.261 5.65909 437.966 4.07954 439.375 2.78409C440.784 1.46591 442.466 0.806816 444.42 0.806816C446.398 0.806816 448.08 1.46591 449.466 2.78409C450.875 4.07954 451.58 5.65909 451.58 7.52272C451.58 9.36363 450.875 10.9432 449.466 12.2614C448.08 13.5568 446.398 14.2045 444.42 14.2045ZM504.634 35.4773L493.384 36.7045C493.065 35.5682 492.509 34.5 491.713 33.5C490.94 32.5 489.895 31.6932 488.577 31.0795C487.259 30.4659 485.645 30.1591 483.736 30.1591C481.168 30.1591 479.009 30.7159 477.259 31.8295C475.531 32.9432 474.679 34.3864 474.702 36.1591C474.679 37.6818 475.236 38.9205 476.372 39.875C477.531 40.8295 479.44 41.6136 482.099 42.2273L491.031 44.1364C495.986 45.2045 499.668 46.8977 502.077 49.2159C504.509 51.5341 505.736 54.5682 505.759 58.3182C505.736 61.6136 504.77 64.5227 502.861 67.0455C500.974 69.5455 498.349 71.5 494.986 72.9091C491.622 74.3182 487.759 75.0227 483.395 75.0227C476.986 75.0227 471.827 73.6818 467.918 71C464.009 68.2955 461.679 64.5341 460.929 59.7159L472.963 58.5568C473.509 60.9205 474.668 62.7045 476.44 63.9091C478.213 65.1136 480.52 65.7159 483.361 65.7159C486.293 65.7159 488.645 65.1136 490.418 63.9091C492.213 62.7045 493.111 61.2159 493.111 59.4432C493.111 57.9432 492.531 56.7045 491.372 55.7273C490.236 54.75 488.463 54 486.054 53.4773L477.122 51.6023C472.099 50.5568 468.384 48.7955 465.974 46.3182C463.565 43.8182 462.372 40.6591 462.395 36.8409C462.372 33.6136 463.247 30.8182 465.02 28.4545C466.815 26.0682 469.304 24.2273 472.486 22.9318C475.69 21.6136 479.384 20.9545 483.565 20.9545C489.702 20.9545 494.531 22.2614 498.054 24.875C501.599 27.4886 503.793 31.0227 504.634 35.4773ZM539.116 75.0227C533.866 75.0227 529.332 73.9318 525.514 71.75C521.719 69.5455 518.798 66.4318 516.753 62.4091C514.707 58.3636 513.685 53.6023 513.685 48.125C513.685 42.7386 514.707 38.0114 516.753 33.9432C518.821 29.8523 521.707 26.6705 525.412 24.3977C529.116 22.1023 533.469 20.9545 538.469 20.9545C541.696 20.9545 544.741 21.4773 547.605 22.5227C550.491 23.5455 553.037 25.1364 555.241 27.2955C557.469 29.4545 559.219 32.2045 560.491 35.5455C561.764 38.8636 562.401 42.8182 562.401 47.4091V51.1932H519.48V42.875H550.571C550.548 40.5114 550.037 38.4091 549.037 36.5682C548.037 34.7045 546.639 33.2386 544.844 32.1705C543.071 31.1023 541.003 30.5682 538.639 30.5682C536.116 30.5682 533.901 31.1818 531.991 32.4091C530.082 33.6136 528.594 35.2045 527.526 37.1818C526.48 39.1364 525.946 41.2841 525.923 43.625V50.8864C525.923 53.9318 526.48 56.5455 527.594 58.7273C528.707 60.8864 530.264 62.5455 532.264 63.7045C534.264 64.8409 536.605 65.4091 539.287 65.4091C541.082 65.4091 542.707 65.1591 544.162 64.6591C545.616 64.1364 546.878 63.375 547.946 62.375C549.014 61.375 549.821 60.1364 550.366 58.6591L561.889 59.9545C561.162 63 559.776 65.6591 557.73 67.9318C555.707 70.1818 553.116 71.9318 549.957 73.1818C546.798 74.4091 543.185 75.0227 539.116 75.0227Z"/>
</mask>
<path d="M60.0455 58.4205L59.1602 57.9553L59.1595 57.9567L60.0455 58.4205ZM48.5909 70.6932L48.0848 69.8307L48.083 69.8318L48.5909 70.6932ZM15.7614 70.6932L15.2504 71.5528L15.2552 71.5556L15.7614 70.6932ZM4.30682 58.3864L3.42002 58.8485L3.42239 58.853L4.30682 58.3864ZM4.30682 19.7955L3.42157 19.3303L3.42084 19.3317L4.30682 19.7955ZM15.7614 7.48863L15.2552 6.62618L15.2535 6.62722L15.7614 7.48863ZM48.5909 7.48863L48.083 8.35005L48.0848 8.35109L48.5909 7.48863ZM60.0455 19.7955L59.1587 20.2576L59.161 20.2621L60.0455 19.7955ZM49.0682 25.6932L48.1553 26.1014L48.1584 26.1083L49.0682 25.6932ZM42.25 17.4091L41.7059 18.2481L41.7106 18.2511L42.25 17.4091ZM22.1364 17.4091L22.6758 18.2511L22.6804 18.2481L22.1364 17.4091ZM15.2841 25.6932L14.3733 25.2802L14.3722 25.2828L15.2841 25.6932ZM15.2841 52.5227L14.3712 52.931L14.3743 52.9378L15.2841 52.5227ZM22.1364 60.8068L21.5923 61.6459L21.5969 61.6488L22.1364 60.8068ZM42.25 60.8068L42.7894 61.6489L42.7941 61.6459L42.25 60.8068ZM49.0682 52.5227L48.1574 52.1098L48.1563 52.1124L49.0682 52.5227ZM63.2727 39.0909C63.2727 46.4901 61.887 52.7657 59.1602 57.9553L60.9307 58.8856C63.8403 53.3479 65.2727 46.7372 65.2727 39.0909H63.2727ZM59.1595 57.9567C56.4441 63.1446 52.7522 67.0916 48.0848 69.8307L49.097 71.5556C54.1114 68.6129 58.0559 64.3782 60.9314 58.8842L59.1595 57.9567ZM48.083 69.8318C43.4328 72.5736 38.1453 73.9545 32.1932 73.9545V75.9545C38.4683 75.9545 44.1126 74.4946 49.0988 71.5546L48.083 69.8318ZM32.1932 73.9545C26.2411 73.9545 20.9414 72.5736 16.2675 69.8307L15.2552 71.5556C20.2631 74.4946 25.918 75.9545 32.1932 75.9545V73.9545ZM16.2723 69.8335C11.6247 67.0713 7.93039 63.1108 5.19125 57.9197L3.42239 58.853C6.31961 64.3437 10.2617 68.5878 15.2505 71.5528L16.2723 69.8335ZM5.1936 57.9242C2.48828 52.7335 1.11364 46.4679 1.11364 39.0909H-0.886364C-0.886364 46.7139 0.534447 53.312 3.42003 58.8485L5.1936 57.9242ZM1.11364 39.0909C1.11364 31.6904 2.48855 25.4258 5.1928 20.2592L3.42084 19.3317C0.534178 24.8469 -0.886364 31.4459 -0.886364 39.0909H1.11364ZM5.19206 20.2606C7.93123 15.0473 11.6246 11.0887 16.2693 8.35004L15.2535 6.62722C10.2618 9.57042 6.31877 13.8163 3.42157 19.3303L5.19206 20.2606ZM16.2675 8.35109C20.9414 5.60818 26.2411 4.22727 32.1932 4.22727V2.22727C25.918 2.22727 20.2631 3.68727 15.2552 6.62618L16.2675 8.35109ZM32.1932 4.22727C38.1453 4.22727 43.4328 5.60819 48.083 8.35004L49.0988 6.62722C44.1126 3.68726 38.4683 2.22727 32.1932 2.22727V4.22727ZM48.0848 8.35109C52.7511 11.0896 56.443 15.0471 59.1587 20.2576L60.9322 19.3333C58.057 13.8166 54.1125 9.56952 49.097 6.62618L48.0848 8.35109ZM59.161 20.2621C61.8869 25.4281 63.2727 31.6916 63.2727 39.0909H65.2727C65.2727 31.4448 63.8404 24.8446 60.9299 19.3288L59.161 20.2621ZM52.5568 39.0909C52.5568 33.6965 51.7125 29.0798 49.978 25.2781L48.1584 26.1083C49.7421 29.5793 50.5568 33.8944 50.5568 39.0909H52.5568ZM49.9811 25.2849C48.2782 21.4771 45.8876 18.5518 42.7894 16.5671L41.7106 18.2511C44.4306 19.9936 46.5855 22.5911 48.1553 26.1014L49.9811 25.2849ZM42.7941 16.57C39.7077 14.5687 36.1627 13.5795 32.1932 13.5795V15.5795C35.8146 15.5795 38.9741 16.4767 41.7059 18.2481L42.7941 16.57ZM32.1932 13.5795C28.2236 13.5795 24.6786 14.5687 21.5923 16.57L22.6804 18.2481C25.4123 16.4767 28.5718 15.5795 32.1932 15.5795V13.5795ZM21.5969 16.5671C18.5001 18.5509 16.0989 21.4745 14.3733 25.2802L16.1948 26.1061C17.7875 22.5936 19.9544 19.9945 22.6758 18.2511L21.5969 16.5671ZM14.3722 25.2828C12.662 29.0831 11.8295 33.6981 11.8295 39.0909H13.8295C13.8295 33.8928 14.6334 29.576 16.196 26.1035L14.3722 25.2828ZM11.8295 39.0909C11.8295 44.484 12.6621 49.1093 14.3712 52.931L16.197 52.1145C14.6333 48.618 13.8295 44.2887 13.8295 39.0909H11.8295ZM14.3743 52.9378C16.1001 56.7204 18.5002 59.6408 21.5923 61.6459L22.6804 59.9678C19.9544 58.2001 17.7863 55.5978 16.1939 52.1076L14.3743 52.9378ZM21.5969 61.6488C24.6828 63.6257 28.2261 64.6023 32.1932 64.6023V62.6023C28.5694 62.6023 25.4082 61.7152 22.6758 59.9648L21.5969 61.6488ZM32.1932 64.6023C36.1603 64.6023 39.7036 63.6257 42.7894 61.6488L41.7106 59.9648C38.9782 61.7152 35.817 62.6023 32.1932 62.6023V64.6023ZM42.7941 61.6459C45.8876 59.6399 48.277 56.7178 49.9801 52.9331L48.1563 52.1124C46.5866 55.6004 44.4306 58.201 41.7059 59.9678L42.7941 61.6459ZM49.9789 52.9357C51.7124 49.1126 52.5568 44.4856 52.5568 39.0909H50.5568C50.5568 44.2871 49.7422 48.6147 48.1574 52.1098L49.9789 52.9357ZM109.06 21.6364V20.6364H108.06V21.6364H109.06ZM121.401 21.6364H122.401V20.6364H121.401V21.6364ZM121.401 74V75H122.401V74H121.401ZM109.435 74H108.435V75H109.435V74ZM109.435 64.6932H110.435V63.6932H109.435V64.6932ZM108.889 64.6932V63.6932H108.214L107.962 64.3193L108.889 64.6932ZM103.06 71.8864L102.492 71.0629L102.489 71.0652L103.06 71.8864ZM84.0369 72.3977L83.5279 73.2586L83.5368 73.2637L84.0369 72.3977ZM77.9006 65.6818L77.0061 66.129L77.0075 66.1318L77.9006 65.6818ZM75.6847 21.6364V20.6364H74.6847V21.6364H75.6847ZM88.0256 21.6364H89.0256V20.6364H88.0256V21.6364ZM90.7528 60.9773L90.0207 61.6584L90.7528 60.9773ZM103.196 62.5795L102.735 61.6923L103.196 62.5795ZM107.389 58.625L106.542 58.093L106.541 58.096L107.389 58.625ZM110.06 51.9773V21.6364H108.06V51.9773H110.06ZM109.06 22.6364H121.401V20.6364H109.06V22.6364ZM120.401 21.6364V74H122.401V21.6364H120.401ZM121.401 73H109.435V75H121.401V73ZM110.435 74V64.6932H108.435V74H110.435ZM109.435 63.6932H108.889V65.6932H109.435V63.6932ZM107.962 64.3193C106.856 67.0618 105.042 69.306 102.492 71.0629L103.627 72.7098C106.486 70.7395 108.559 68.1882 109.817 65.067L107.962 64.3193ZM102.489 71.0652C100.006 72.7904 96.9094 73.6818 93.1392 73.6818V75.6818C97.2327 75.6818 100.749 74.7096 103.63 72.7076L102.489 71.0652ZM93.1392 73.6818C89.8602 73.6818 87.0028 72.956 84.5371 71.5318L83.5368 73.2637C86.3438 74.8849 89.5546 75.6818 93.1392 75.6818V73.6818ZM84.5459 71.5369C82.1104 70.0968 80.1921 68.0073 78.7936 65.2318L77.0075 66.1318C78.5636 69.22 80.7362 71.6077 83.528 73.2585L84.5459 71.5369ZM78.795 65.2346C77.4031 62.4509 76.6847 59.044 76.6847 54.9773H74.6847C74.6847 59.2742 75.4435 63.0037 77.0061 66.129L78.795 65.2346ZM76.6847 54.9773V21.6364H74.6847V54.9773H76.6847ZM75.6847 22.6364H88.0256V20.6364H75.6847V22.6364ZM87.0256 21.6364V53.0682H89.0256V21.6364H87.0256ZM87.0256 53.0682C87.0256 56.5748 87.9911 59.4766 90.0207 61.6584L91.485 60.2962C89.8783 58.5689 89.0256 56.1979 89.0256 53.0682H87.0256ZM90.0207 61.6584C92.0493 63.8392 94.7125 64.9091 97.9119 64.9091V62.9091C95.2022 62.9091 93.0927 62.0244 91.485 60.2962L90.0207 61.6584ZM97.9119 64.9091C99.8998 64.9091 101.819 64.4229 103.657 63.4668L102.735 61.6923C101.164 62.5089 99.5604 62.9091 97.9119 62.9091V64.9091ZM103.657 63.4668C105.532 62.4918 107.059 61.0444 108.238 59.154L106.541 58.096C105.537 59.7056 104.269 60.8946 102.735 61.6923L103.657 63.4668ZM108.236 59.157C109.474 57.187 110.06 54.7742 110.06 51.9773H108.06C108.06 54.4985 107.532 56.5175 106.542 58.093L108.236 59.157ZM134.091 74H133.091V75H134.091V74ZM134.091 21.6364V20.6364H133.091V21.6364H134.091ZM146.057 21.6364H147.057V20.6364H146.057V21.6364ZM146.057 30.3636H145.057V31.3636H146.057V30.3636ZM146.602 30.3636V31.3636H147.335L147.556 30.6648L146.602 30.3636ZM151.511 23.375L152.088 24.192L152.09 24.1909L151.511 23.375ZM161.807 20.9886L161.726 21.9854L161.74 21.9865L161.754 21.9873L161.807 20.9886ZM163.955 21.2273H164.955V20.4075L164.151 20.2467L163.955 21.2273ZM163.955 32.5795L163.626 33.524L164.955 33.9861V32.5795H163.955ZM161.466 32.1023L161.324 33.0922L161.336 33.0938L161.347 33.0951L161.466 32.1023ZM152.159 33.3295L152.633 34.21L152.637 34.2079L152.159 33.3295ZM146.432 74V75H147.432V74H146.432ZM135.091 74V21.6364H133.091V74H135.091ZM134.091 22.6364H146.057V20.6364H134.091V22.6364ZM145.057 21.6364V30.3636H147.057V21.6364H145.057ZM146.057 31.3636H146.602V29.3636H146.057V31.3636ZM147.556 30.6648C148.453 27.8249 149.969 25.6875 152.088 24.192L150.935 22.558C148.417 24.3352 146.661 26.857 145.649 30.0625L147.556 30.6648ZM152.09 24.1909C154.253 22.6572 156.72 21.8864 159.523 21.8864V19.8864C156.326 19.8864 153.451 20.7746 150.933 22.5591L152.09 24.1909ZM159.523 21.8864C160.172 21.8864 160.906 21.9189 161.726 21.9854L161.888 19.9919C161.026 19.922 160.237 19.8864 159.523 19.8864V21.8864ZM161.754 21.9873C162.591 22.0313 163.255 22.1071 163.758 22.2079L164.151 20.2467C163.518 20.1202 162.75 20.0369 161.859 19.99L161.754 21.9873ZM162.955 21.2273V32.5795H164.955V21.2273H162.955ZM164.283 31.635C163.653 31.4159 162.734 31.2473 161.585 31.1094L161.347 33.0951C162.471 33.23 163.21 33.3795 163.626 33.524L164.283 31.635ZM161.607 31.1123C160.45 30.947 159.323 30.8636 158.227 30.8636V32.8636C159.222 32.8636 160.254 32.9393 161.324 33.0922L161.607 31.1123ZM158.227 30.8636C155.827 30.8636 153.638 31.3863 151.681 32.4512L152.637 34.2079C154.272 33.3183 156.127 32.8636 158.227 32.8636V30.8636ZM151.685 32.4491C149.756 33.4878 148.225 34.9428 147.108 36.8037L148.823 37.8327C149.752 36.2845 151.017 35.0804 152.633 34.21L151.685 32.4491ZM147.108 36.8037C145.982 38.6818 145.432 40.8298 145.432 43.2159H147.432C147.432 41.1475 147.905 39.3637 148.823 37.8327L147.108 36.8037ZM145.432 43.2159V74H147.432V43.2159H145.432ZM146.432 73H134.091V75H146.432V73ZM196.511 74H195.511V75H196.511V74ZM196.511 4.18182V3.18182H195.511V4.18182H196.511ZM236.193 7.18182L235.711 8.05803L235.714 8.0593L236.193 7.18182ZM244.477 15.4318L243.595 15.9018L243.598 15.9087L244.477 15.4318ZM244.477 39.2273L245.356 39.7041L244.477 39.2273ZM236.125 47.4432L236.598 48.3242L236.602 48.3219L236.125 47.4432ZM205.17 50.4091H204.17V51.4091H205.17V50.4091ZM205.17 40.0114V39.0114H204.17V40.0114H205.17ZM228.523 38.375L229.002 39.2529L228.523 38.375ZM232.955 33.875L232.064 33.4193L232.06 33.4278L232.955 33.875ZM232.955 20.75L232.062 21.2015L232.067 21.21L232.955 20.75ZM228.489 16.3523L228.017 17.2344L228.029 17.2406L228.489 16.3523ZM209.159 14.75V13.75H208.159V14.75H209.159ZM209.159 74V75H210.159V74H209.159ZM197.511 74V4.18182H195.511V74H197.511ZM196.511 5.18182H222.693V3.18182H196.511V5.18182ZM222.693 5.18182C227.936 5.18182 232.26 6.15958 235.711 8.05803L236.675 6.3056C232.854 4.20406 228.177 3.18182 222.693 3.18182V5.18182ZM235.714 8.0593C239.211 9.97079 241.828 12.5832 243.595 15.9018L245.36 14.9618C243.4 11.2804 240.494 8.39284 236.673 6.30434L235.714 8.0593ZM243.598 15.9087C245.396 19.2226 246.307 23.0098 246.307 27.2955H248.307C248.307 22.7175 247.331 18.5956 245.356 14.955L243.598 15.9087ZM246.307 27.2955C246.307 31.6284 245.395 35.4379 243.598 38.7504L245.356 39.7041C247.332 36.0621 248.307 31.917 248.307 27.2955H246.307ZM243.598 38.7504C241.81 42.0475 239.17 44.651 235.648 46.5645L236.602 48.3219C240.444 46.2353 243.372 43.3616 245.356 39.7041L243.598 38.7504ZM235.652 46.5622C232.152 48.442 227.79 49.4091 222.523 49.4091V51.4091C228.028 51.4091 232.735 50.3989 236.598 48.3242L235.652 46.5622ZM222.523 49.4091H205.17V51.4091H222.523V49.4091ZM206.17 50.4091V40.0114H204.17V50.4091H206.17ZM205.17 41.0114H220.818V39.0114H205.17V41.0114ZM220.818 41.0114C224.062 41.0114 226.81 40.4484 229.002 39.2529L228.044 37.4971C226.236 38.4834 223.847 39.0114 220.818 39.0114V41.0114ZM229.002 39.2529C231.168 38.0712 232.797 36.4265 233.849 34.3222L232.06 33.4278C231.203 35.1417 229.877 36.497 228.044 37.4971L229.002 39.2529ZM233.845 34.3307C234.905 32.2601 235.42 29.9065 235.42 27.2955H233.42C233.42 29.6389 232.959 31.6717 232.064 33.4193L233.845 34.3307ZM235.42 27.2955C235.42 24.6847 234.905 22.3404 233.842 20.29L232.067 21.21C232.959 22.9323 233.42 24.9517 233.42 27.2955H235.42ZM233.847 20.2985C232.79 18.2099 231.142 16.598 228.948 15.4639L228.029 17.2406C229.881 18.1974 231.21 19.5174 232.062 21.2015L233.847 20.2985ZM228.96 15.4702C226.769 14.3002 224.012 13.75 220.75 13.75V15.75C223.806 15.75 226.208 16.268 228.018 17.2343L228.96 15.4702ZM220.75 13.75H209.159V15.75H220.75V13.75ZM208.159 14.75V74H210.159V14.75H208.159ZM209.159 73H196.511V75H209.159V73ZM257.747 74H256.747V75H257.747V74ZM257.747 21.6364V20.6364H256.747V21.6364H257.747ZM269.713 21.6364H270.713V20.6364H269.713V21.6364ZM269.713 30.3636H268.713V31.3636H269.713V30.3636ZM270.259 30.3636V31.3636H270.991L271.212 30.6648L270.259 30.3636ZM275.168 23.375L275.744 24.192L275.746 24.1909L275.168 23.375ZM285.463 20.9886L285.382 21.9854L285.396 21.9865L285.411 21.9873L285.463 20.9886ZM287.611 21.2273H288.611V20.4075L287.807 20.2467L287.611 21.2273ZM287.611 32.5795L287.282 33.524L288.611 33.9861V32.5795H287.611ZM285.122 32.1023L284.981 33.0922L284.992 33.0938L285.003 33.0951L285.122 32.1023ZM275.815 33.3295L276.289 34.21L276.293 34.2079L275.815 33.3295ZM270.088 74V75H271.088V74H270.088ZM258.747 74V21.6364H256.747V74H258.747ZM257.747 22.6364H269.713V20.6364H257.747V22.6364ZM268.713 21.6364V30.3636H270.713V21.6364H268.713ZM269.713 31.3636H270.259V29.3636H269.713V31.3636ZM271.212 30.6648C272.109 27.8249 273.626 25.6875 275.744 24.192L274.591 22.558C272.073 24.3352 270.317 26.857 269.305 30.0625L271.212 30.6648ZM275.746 24.1909C277.91 22.6572 280.376 21.8864 283.179 21.8864V19.8864C279.982 19.8864 277.107 20.7746 274.589 22.5591L275.746 24.1909ZM283.179 21.8864C283.828 21.8864 284.562 21.9189 285.382 21.9854L285.544 19.9919C284.682 19.922 283.893 19.8864 283.179 19.8864V21.8864ZM285.411 21.9873C286.247 22.0313 286.911 22.1071 287.415 22.2079L287.807 20.2467C287.174 20.1202 286.406 20.0369 285.516 19.99L285.411 21.9873ZM286.611 21.2273V32.5795H288.611V21.2273H286.611ZM287.939 31.635C287.309 31.4159 286.39 31.2473 285.241 31.1094L285.003 33.0951C286.127 33.23 286.867 33.3795 287.282 33.524L287.939 31.635ZM285.264 31.1123C284.107 30.947 282.98 30.8636 281.884 30.8636V32.8636C282.878 32.8636 283.91 32.9393 284.981 33.0922L285.264 31.1123ZM281.884 30.8636C279.484 30.8636 277.294 31.3863 275.337 32.4512L276.293 34.2079C277.928 33.3183 279.783 32.8636 281.884 32.8636V30.8636ZM275.341 32.4491C273.412 33.4878 271.881 34.9428 270.765 36.8037L272.48 37.8327C273.409 36.2845 274.673 35.0804 276.289 34.21L275.341 32.4491ZM270.765 36.8037C269.638 38.6818 269.088 40.8298 269.088 43.2159H271.088C271.088 41.1475 271.561 39.3637 272.48 37.8327L270.765 36.8037ZM269.088 43.2159V74H271.088V43.2159H269.088ZM270.088 73H257.747V75H270.088V73ZM303.199 71.6477L302.684 72.5052L303.199 71.6477ZM294.472 62.2045L293.579 62.6558L293.581 62.6597L294.472 62.2045ZM294.472 33.8068L293.58 33.3536L293.578 33.3576L294.472 33.8068ZM303.199 24.3295L303.713 25.187L303.199 24.3295ZM329.79 24.3295L329.275 25.187L329.79 24.3295ZM338.483 33.8068L337.59 34.256L337.592 34.26L338.483 33.8068ZM338.483 62.2045L337.593 61.7493L337.591 61.7533L338.483 62.2045ZM329.79 71.6477L329.275 70.7902L329.79 71.6477ZM323.517 62.8523L324.15 63.6267L324.155 63.622L323.517 62.8523ZM327.676 56.6477L326.735 56.3093L326.733 56.3166L327.676 56.6477ZM327.676 39.2955L326.732 39.624L326.735 39.6339L327.676 39.2955ZM323.517 33.0568L324.155 32.2871L323.517 33.0568ZM309.472 33.0568L308.838 32.2833L308.833 32.2871L309.472 33.0568ZM305.278 39.2955L304.336 38.9596L304.335 38.9644L305.278 39.2955ZM305.278 56.6477L304.335 56.9788L304.337 56.9862L305.278 56.6477ZM309.472 62.8523L308.833 63.6221L308.843 63.6304L309.472 62.8523ZM316.494 74.0227C311.531 74.0227 307.283 72.9322 303.713 70.7902L302.684 72.5052C306.614 74.8633 311.23 76.0227 316.494 76.0227V74.0227ZM303.713 70.7902C300.13 68.6404 297.348 65.635 295.362 61.7493L293.581 62.6597C295.731 66.865 298.767 70.1551 302.684 72.5052L303.713 70.7902ZM295.364 61.7533C293.402 57.8723 292.403 53.3051 292.403 48.0227H290.403C290.403 53.5585 291.451 58.4459 293.579 62.6558L295.364 61.7533ZM292.403 48.0227C292.403 42.7405 293.402 38.161 295.365 34.256L293.578 33.3576C291.451 37.589 290.403 42.4868 290.403 48.0227H292.403ZM295.363 34.26C297.35 30.3517 300.132 27.336 303.713 25.187L302.684 23.4721C298.766 25.8231 295.73 29.1256 293.58 33.3536L295.363 34.26ZM303.713 25.187C307.283 23.0451 311.531 21.9545 316.494 21.9545V19.9545C311.23 19.9545 306.614 21.114 302.684 23.4721L303.713 25.187ZM316.494 21.9545C321.458 21.9545 325.705 23.0451 329.275 25.187L330.304 23.4721C326.374 21.114 321.758 19.9545 316.494 19.9545V21.9545ZM329.275 25.187C332.856 27.3354 335.625 30.3497 337.59 34.256L339.376 33.3576C337.25 29.1275 334.224 25.8237 330.304 23.4721L329.275 25.187ZM337.592 34.26C339.576 38.164 340.585 42.7421 340.585 48.0227H342.585C342.585 42.4852 341.526 37.586 339.374 33.3536L337.592 34.26ZM340.585 48.0227C340.585 53.3035 339.576 57.8693 337.593 61.7493L339.373 62.6597C341.526 58.4489 342.585 53.5601 342.585 48.0227H340.585ZM337.591 61.7533C335.627 65.6369 332.857 68.641 329.275 70.7902L330.304 72.5052C334.222 70.1545 337.248 66.8631 339.375 62.6558L337.591 61.7533ZM329.275 70.7902C325.705 72.9322 321.458 74.0227 316.494 74.0227V76.0227C321.758 76.0227 326.374 74.8633 330.304 72.5052L329.275 70.7902ZM316.562 66.1364C319.529 66.1364 322.081 65.3171 324.15 63.6266L322.884 62.0779C321.226 63.4329 319.142 64.1364 316.562 64.1364V66.1364ZM324.155 63.622C326.177 61.9458 327.659 59.7175 328.62 56.9788L326.733 56.3166C325.875 58.7598 324.585 60.6678 322.879 62.0825L324.155 63.622ZM328.617 56.9862C329.594 54.2712 330.074 51.2682 330.074 47.9886H328.074C328.074 51.0727 327.622 53.8424 326.735 56.3093L328.617 56.9862ZM330.074 47.9886C330.074 44.6873 329.594 41.6727 328.617 38.957L326.735 39.6339C327.622 42.1001 328.074 44.8809 328.074 47.9886H330.074ZM328.621 38.9669C327.66 36.2062 326.179 33.9648 324.155 32.2871L322.879 33.8266C324.583 35.2397 325.874 37.1575 326.732 39.624L328.621 38.9669ZM324.155 32.2871C322.087 30.5715 319.533 29.7386 316.562 29.7386V31.7386C319.138 31.7386 321.22 32.4513 322.879 33.8266L324.155 32.2871ZM316.562 29.7386C313.531 29.7386 310.932 30.5679 308.838 32.2833L310.105 33.8304C311.784 32.4548 313.913 31.7386 316.562 31.7386V29.7386ZM308.833 32.2871C306.812 33.9632 305.32 36.2019 304.336 38.9596L306.22 39.6313C307.101 37.1618 308.404 35.2414 310.11 33.8266L308.833 32.2871ZM304.335 38.9644C303.383 41.6778 302.915 44.6898 302.915 47.9886H304.915C304.915 44.8784 305.356 42.0949 306.222 39.6265L304.335 38.9644ZM302.915 47.9886C302.915 51.2656 303.383 54.2661 304.335 56.9788L306.222 56.3166C305.356 53.8475 304.915 51.0753 304.915 47.9886H302.915ZM304.337 56.9862C305.321 59.7218 306.814 61.9475 308.833 63.622L310.11 62.0825C308.402 60.6662 307.099 58.7555 306.219 56.3093L304.337 56.9862ZM308.843 63.6304C310.937 65.3205 313.534 66.1364 316.562 66.1364V64.1364C313.909 64.1364 311.779 63.4295 310.1 62.0742L308.843 63.6304ZM352.06 74H351.06V75H352.06V74ZM352.06 21.6364V20.6364H351.06V21.6364H352.06ZM363.855 21.6364H364.855V20.6364H363.855V21.6364ZM363.855 30.5341H362.855V31.5341H363.855V30.5341ZM364.469 30.5341V31.5341H365.169L365.409 30.8758L364.469 30.5341ZM369.889 23.5114L370.444 24.3434L370.449 24.34L369.889 23.5114ZM387.889 23.5455L387.31 24.3608L387.319 24.3668L387.889 23.5455ZM393.071 30.5341L392.124 30.8547L392.354 31.5341H393.071V30.5341ZM393.616 30.5341V31.5341H394.294L394.545 30.9042L393.616 30.5341ZM399.48 23.5795L400.012 24.4264L400.014 24.4252L399.48 23.5795ZM425.696 74V75H426.696V74H425.696ZM413.321 74H412.321V75H413.321V74ZM410.73 33.6364L410.069 34.3865L410.074 34.3914L410.73 33.6364ZM397.401 34.1477L396.658 33.4778L396.658 33.4783L397.401 34.1477ZM394.912 74V75H395.912V74H394.912ZM382.81 74H381.81V75H382.81V74ZM380.355 33.7727L379.648 34.4799L379.653 34.4848L380.355 33.7727ZM369.173 32.7159L369.694 33.5699L369.703 33.5639L369.173 32.7159ZM365.696 36.5L366.578 36.9719L366.58 36.9668L365.696 36.5ZM364.401 74V75H365.401V74H364.401ZM353.06 74V21.6364H351.06V74H353.06ZM352.06 22.6364H363.855V20.6364H352.06V22.6364ZM362.855 21.6364V30.5341H364.855V21.6364H362.855ZM363.855 31.5341H364.469V29.5341H363.855V31.5341ZM365.409 30.8758C366.431 28.0648 368.108 25.9005 370.444 24.3434L369.335 22.6793C366.625 24.4858 364.689 27.0033 363.529 30.1923L365.409 30.8758ZM370.449 24.34C372.783 22.7632 375.592 21.9545 378.923 21.9545V19.9545C375.254 19.9545 372.041 20.8505 369.329 22.6828L370.449 24.34ZM378.923 21.9545C382.301 21.9545 385.078 22.7749 387.31 24.3607L388.468 22.7302C385.837 20.8614 382.636 19.9545 378.923 19.9545V21.9545ZM387.319 24.3668C389.589 25.9435 391.189 28.0936 392.124 30.8547L394.018 30.2135C392.953 27.0655 391.098 24.5565 388.46 22.7241L387.319 24.3668ZM393.071 31.5341H393.616V29.5341H393.071V31.5341ZM394.545 30.9042C395.623 28.1998 397.434 26.0453 400.012 24.4264L398.948 22.7327C396.026 24.5683 393.928 27.0502 392.688 30.1639L394.545 30.9042ZM400.014 24.4252C402.603 22.7911 405.695 21.9545 409.332 21.9545V19.9545C405.378 19.9545 401.903 20.868 398.946 22.7339L400.014 24.4252ZM409.332 21.9545C413.92 21.9545 417.586 23.3949 420.421 26.2298L421.835 24.8156C418.579 21.5596 414.381 19.9545 409.332 19.9545V21.9545ZM420.421 26.2298C423.22 29.0288 424.696 33.1796 424.696 38.8523H426.696C426.696 32.8431 425.127 28.1076 421.835 24.8156L420.421 26.2298ZM424.696 38.8523V74H426.696V38.8523H424.696ZM425.696 73H413.321V75H425.696V73ZM414.321 74V40.7614H412.321V74H414.321ZM414.321 40.7614C414.321 37.3475 413.412 34.6406 411.386 32.8813L410.074 34.3914C411.503 35.6321 412.321 37.6752 412.321 40.7614H414.321ZM411.391 32.8862C409.465 31.1881 407.11 30.3523 404.389 30.3523V32.3523C406.668 32.3523 408.54 33.0391 410.069 34.3865L411.391 32.8862ZM404.389 30.3523C401.186 30.3523 398.565 31.3648 396.658 33.4778L398.143 34.8177C399.6 33.2034 401.637 32.3523 404.389 32.3523V30.3523ZM396.658 33.4783C394.802 35.537 393.912 38.1893 393.912 41.3409H395.912C395.912 38.5835 396.681 36.4403 398.143 34.8172L396.658 33.4783ZM393.912 41.3409V74H395.912V41.3409H393.912ZM394.912 73H382.81V75H394.912V73ZM383.81 74V40.25H381.81V74H383.81ZM383.81 40.25C383.81 37.3289 382.918 34.8953 381.057 33.0607L379.653 34.4848C381.065 35.8774 381.81 37.762 381.81 40.25H383.81ZM381.062 33.0656C379.233 31.2368 376.851 30.3523 374.014 30.3523V32.3523C376.404 32.3523 378.25 33.0814 379.648 34.4798L381.062 33.0656ZM374.014 30.3523C372.061 30.3523 370.262 30.856 368.643 31.8679L369.703 33.5639C370.993 32.7576 372.422 32.3523 374.014 32.3523V30.3523ZM368.653 31.862C367.031 32.8502 365.752 34.2516 364.812 36.0332L366.58 36.9668C367.367 35.4757 368.406 34.3543 369.694 33.5698L368.653 31.862ZM364.814 36.0281C363.86 37.8109 363.401 39.8649 363.401 42.1591H365.401C365.401 40.1351 365.805 38.4163 366.578 36.9719L364.814 36.0281ZM363.401 42.1591V74H365.401V42.1591H363.401ZM364.401 73H352.06V75H364.401V73ZM438.216 74H437.216V75H438.216V74ZM438.216 21.6364V20.6364H437.216V21.6364H438.216ZM450.557 21.6364H451.557V20.6364H450.557V21.6364ZM450.557 74V75H451.557V74H450.557ZM439.375 12.2614L438.692 12.9917L438.698 12.9975L439.375 12.2614ZM439.375 2.78409L440.052 3.52028L440.058 3.51436L439.375 2.78409ZM449.466 2.78409L448.777 3.50879L448.783 3.51457L448.789 3.52025L449.466 2.78409ZM449.466 12.2614L450.149 12.992L450.149 12.9916L449.466 12.2614ZM439.216 74V21.6364H437.216V74H439.216ZM438.216 22.6364H450.557V20.6364H438.216V22.6364ZM449.557 21.6364V74H451.557V21.6364H449.557ZM450.557 73H438.216V75H450.557V73ZM444.42 13.2045C442.711 13.2045 441.272 12.6471 440.052 11.5252L438.698 12.9975C440.296 14.4666 442.221 15.2045 444.42 15.2045V13.2045ZM440.058 11.5311C438.84 10.3917 438.261 9.0722 438.261 7.52272H436.261C436.261 9.65506 437.092 11.4946 438.692 12.9916L440.058 11.5311ZM438.261 7.52272C438.261 5.94737 438.842 4.63216 440.052 3.52025L438.698 2.04792C437.089 3.52693 436.261 5.37081 436.261 7.52272H438.261ZM440.058 3.51436C441.279 2.37197 442.716 1.80682 444.42 1.80682V-0.193184C442.216 -0.193184 440.289 0.559845 438.692 2.05381L440.058 3.51436ZM444.42 1.80682C446.151 1.80682 447.583 2.37383 448.777 3.50879L450.155 2.05938C448.576 0.557987 446.645 -0.193184 444.42 -0.193184V1.80682ZM448.789 3.52025C449.999 4.63216 450.58 5.94737 450.58 7.52272H452.58C452.58 5.37081 451.751 3.52692 450.143 2.04792L448.789 3.52025ZM450.58 7.52272C450.58 9.0722 450.001 10.3917 448.783 11.5311L450.149 12.9916C451.749 11.4946 452.58 9.65506 452.58 7.52272H450.58ZM448.783 11.5307C447.59 12.6452 446.156 13.2045 444.42 13.2045V15.2045C446.639 15.2045 448.569 14.4684 450.149 12.992L448.783 11.5307ZM504.634 35.4773L504.742 36.4714L505.817 36.3541L505.616 35.2918L504.634 35.4773ZM493.384 36.7045L492.421 36.9742L492.649 37.7906L493.492 37.6986L493.384 36.7045ZM491.713 33.5L490.922 34.1115L490.93 34.1225L491.713 33.5ZM488.577 31.0795L488.999 30.173L488.577 31.0795ZM477.259 31.8295L476.722 30.9859L476.717 30.9891L477.259 31.8295ZM474.702 36.1591L475.702 36.174L475.702 36.1601L475.702 36.1463L474.702 36.1591ZM476.372 39.875L475.729 40.6407L475.736 40.6469L476.372 39.875ZM482.099 42.2273L481.875 43.2017L481.882 43.2035L481.89 43.2052L482.099 42.2273ZM491.031 44.1364L491.242 43.1588L491.24 43.1585L491.031 44.1364ZM502.077 49.2159L501.383 49.9365L501.387 49.9397L502.077 49.2159ZM505.759 58.3182L506.759 58.3251L506.759 58.3121L505.759 58.3182ZM502.861 67.0455L502.063 66.442L502.063 66.4431L502.861 67.0455ZM494.986 72.9091L495.372 73.8314L494.986 72.9091ZM467.918 71L467.349 71.8224L467.352 71.8246L467.918 71ZM460.929 59.7159L460.833 58.7205L459.778 58.8222L459.941 59.8697L460.929 59.7159ZM472.963 58.5568L473.937 58.332L473.74 57.4773L472.867 57.5614L472.963 58.5568ZM476.44 63.9091L477.002 63.082L476.44 63.9091ZM490.418 63.9091L489.86 63.0786L489.856 63.082L490.418 63.9091ZM491.372 55.7273L490.72 56.4855L490.728 56.4918L491.372 55.7273ZM486.054 53.4773L486.266 52.5L486.259 52.4986L486.054 53.4773ZM477.122 51.6023L477.328 50.6236L477.326 50.6233L477.122 51.6023ZM465.974 46.3182L465.254 47.0121L465.258 47.0154L465.974 46.3182ZM462.395 36.8409L463.395 36.8469L463.395 36.8339L462.395 36.8409ZM465.02 28.4545L464.221 27.8533L464.22 27.8545L465.02 28.4545ZM472.486 22.9318L472.863 23.858L472.866 23.8566L472.486 22.9318ZM498.054 24.875L497.458 25.6781L497.461 25.6799L498.054 24.875ZM504.525 34.4832L493.275 35.7104L493.492 37.6986L504.742 36.4714L504.525 34.4832ZM494.346 36.4349C493.989 35.1597 493.367 33.9732 492.496 32.8775L490.93 34.1225C491.65 35.0268 492.141 35.9766 492.421 36.9742L494.346 36.4349ZM492.504 32.8886C491.62 31.7442 490.44 30.8438 488.999 30.173L488.155 31.9861C489.35 32.5425 490.261 33.2558 490.922 34.1114L492.504 32.8886ZM488.999 30.173C487.514 29.4817 485.747 29.1591 483.736 29.1591V31.1591C485.543 31.1591 487.003 31.4501 488.155 31.9861L488.999 30.173ZM483.736 29.1591C481.023 29.1591 478.666 29.7483 476.722 30.9859L477.795 32.6732C479.351 31.6835 481.312 31.1591 483.736 31.1591V29.1591ZM476.717 30.9891C474.754 32.2544 473.674 33.995 473.702 36.1719L475.702 36.1463C475.684 34.7777 476.308 33.632 477.8 32.67L476.717 30.9891ZM473.702 36.1442C473.675 37.9584 474.356 39.487 475.729 40.6407L477.015 39.1093C476.116 38.3539 475.683 37.4053 475.702 36.174L473.702 36.1442ZM475.736 40.6469C477.077 41.7505 479.169 42.5772 481.875 43.2017L482.324 41.2529C479.712 40.65 477.986 39.9085 477.008 39.1031L475.736 40.6469ZM481.89 43.2052L490.822 45.1143L491.24 43.1585L482.308 41.2494L481.89 43.2052ZM490.82 45.1139C495.68 46.1617 499.16 47.7973 501.383 49.9365L502.77 48.4953C500.175 45.9981 496.291 44.2474 491.242 43.1588L490.82 45.1139ZM501.387 49.9397C503.598 52.048 504.737 54.811 504.759 58.3242L506.759 58.3121C506.734 54.3254 505.419 51.0202 502.767 48.4921L501.387 49.9397ZM504.759 58.3113C504.737 61.4009 503.837 64.0986 502.063 66.442L503.658 67.6489C505.703 64.9468 506.734 61.8264 506.759 58.3251L504.759 58.3113ZM502.063 66.4431C500.299 68.7801 497.827 70.6347 494.599 71.9868L495.372 73.8314C498.872 72.3653 501.65 70.3108 503.659 67.6478L502.063 66.4431ZM494.599 71.9868C491.38 73.3356 487.651 74.0227 483.395 74.0227V76.0227C487.866 76.0227 491.865 75.3008 495.372 73.8314L494.599 71.9868ZM483.395 74.0227C477.118 74.0227 472.177 72.7091 468.483 70.1754L467.352 71.8246C471.477 74.6545 476.853 76.0227 483.395 76.0227V74.0227ZM468.487 70.1776C464.809 67.6336 462.626 64.1173 461.917 59.5621L459.941 59.8697C460.732 64.9509 463.208 68.9574 467.349 71.8224L468.487 70.1776ZM461.025 60.7113L473.059 59.5522L472.867 57.5614L460.833 58.7205L461.025 60.7113ZM471.989 58.7817C472.583 61.356 473.869 63.3711 475.878 64.7362L477.002 63.082C475.466 62.0379 474.434 60.4849 473.937 58.332L471.989 58.7817ZM475.878 64.7362C477.863 66.0848 480.384 66.7159 483.361 66.7159V64.7159C480.656 64.7159 478.563 64.1425 477.002 63.082L475.878 64.7362ZM483.361 66.7159C486.421 66.7159 488.99 66.0879 490.98 64.7362L489.856 63.082C488.299 64.1393 486.164 64.7159 483.361 64.7159V66.7159ZM490.975 64.7395C492.978 63.3958 494.111 61.6249 494.111 59.4432H492.111C492.111 60.8069 491.449 62.0133 489.861 63.0787L490.975 64.7395ZM494.111 59.4432C494.111 57.6448 493.398 56.1277 492.017 54.9628L490.728 56.4918C491.664 57.2814 492.111 58.2416 492.111 59.4432H494.111ZM492.024 54.9691C490.705 53.8347 488.745 53.0378 486.266 52.5L485.842 54.4545C488.181 54.9622 489.766 55.6653 490.72 56.4855L492.024 54.9691ZM486.259 52.4986L477.328 50.6236L476.917 52.5809L485.849 54.4559L486.259 52.4986ZM477.326 50.6233C472.409 49.5999 468.909 47.9015 466.691 45.621L465.258 47.0154C467.858 49.6894 471.79 51.5138 476.918 52.5813L477.326 50.6233ZM466.695 45.6243C464.485 43.3317 463.374 40.4327 463.395 36.8469L461.395 36.835C461.371 40.8855 462.645 44.3047 465.254 47.0121L466.695 45.6243ZM463.395 36.8339C463.374 33.804 464.191 31.2268 465.82 29.0545L464.22 27.8545C462.304 30.4096 461.371 33.4233 461.395 36.8479L463.395 36.8339ZM465.819 29.0558C467.49 26.8345 469.823 25.0957 472.863 23.858L472.109 22.0056C468.785 23.3588 466.14 25.3019 464.221 27.8533L465.819 29.0558ZM472.866 23.8566C475.928 22.5972 479.488 21.9545 483.565 21.9545V19.9545C479.279 19.9545 475.453 20.6301 472.105 22.007L472.866 23.8566ZM483.565 21.9545C489.571 21.9545 494.164 23.2344 497.458 25.6781L498.65 24.0719C494.898 21.2883 489.833 19.9545 483.565 19.9545V21.9545ZM497.461 25.6799C500.796 28.1389 502.855 31.4484 503.651 35.6628L505.616 35.2918C504.73 30.597 502.403 26.8384 498.647 24.0701L497.461 25.6799ZM525.514 71.75L525.012 72.6147L525.018 72.6182L525.514 71.75ZM516.753 62.4091L515.86 62.8603L515.861 62.8623L516.753 62.4091ZM516.753 33.9432L515.86 33.492L515.859 33.494L516.753 33.9432ZM525.412 24.3977L525.935 25.2501L525.939 25.2478L525.412 24.3977ZM547.605 22.5227L547.262 23.4621L547.271 23.4653L547.605 22.5227ZM555.241 27.2955L554.542 28.0099L554.545 28.0135L555.241 27.2955ZM560.491 35.5455L559.557 35.9015L559.558 35.9036L560.491 35.5455ZM562.401 51.1932V52.1932H563.401V51.1932H562.401ZM519.48 51.1932H518.48V52.1932H519.48V51.1932ZM519.48 42.875V41.875H518.48V42.875H519.48ZM550.571 42.875V43.875H551.581L551.571 42.8654L550.571 42.875ZM549.037 36.5682L548.156 37.041L548.158 37.0455L549.037 36.5682ZM544.844 32.1705L544.328 33.027L544.332 33.0299L544.844 32.1705ZM531.991 32.4091L532.525 33.2548L532.532 33.2503L531.991 32.4091ZM527.526 37.1818L526.646 36.7065L526.644 36.7102L527.526 37.1818ZM525.923 43.625L524.923 43.6153V43.625H525.923ZM527.594 58.7273L526.703 59.1819L526.705 59.1857L527.594 58.7273ZM532.264 63.7045L531.763 64.5698L531.77 64.574L532.264 63.7045ZM544.162 64.6591L544.487 65.6049L544.5 65.6002L544.162 64.6591ZM550.366 58.6591L550.478 57.6654L549.7 57.5778L549.428 58.3127L550.366 58.6591ZM561.889 59.9545L562.862 60.1868L563.124 59.0871L562.001 58.9608L561.889 59.9545ZM557.73 67.9318L556.987 67.2629L556.986 67.2633L557.73 67.9318ZM549.957 73.1818L550.32 74.114L550.325 74.1117L549.957 73.1818ZM539.116 74.0227C534.007 74.0227 529.651 72.9619 526.01 70.8818L525.018 72.6182C529.014 74.9017 533.726 76.0227 539.116 76.0227V74.0227ZM526.016 70.8853C522.393 68.7804 519.605 65.8119 517.644 61.9558L515.861 62.8623C517.992 67.0517 521.045 70.3105 525.012 72.6147L526.016 70.8853ZM517.645 61.9579C515.684 58.0785 514.685 53.4778 514.685 48.125H512.685C512.685 53.7268 513.731 58.6488 515.86 62.8603L517.645 61.9579ZM514.685 48.125C514.685 42.8663 515.683 38.2979 517.646 34.3924L515.859 33.494C513.732 37.7248 512.685 42.611 512.685 48.125H514.685ZM517.645 34.3944C519.635 30.4594 522.397 27.4205 525.935 25.2501L524.889 23.5453C521.018 25.9204 518.007 29.2452 515.86 33.492L517.645 34.3944ZM525.939 25.2478C529.463 23.0641 533.627 21.9545 538.469 21.9545V19.9545C533.311 19.9545 528.77 21.1404 524.885 23.5477L525.939 25.2478ZM538.469 21.9545C541.586 21.9545 544.515 22.4591 547.262 23.4621L547.948 21.5834C544.968 20.4955 541.806 19.9545 538.469 19.9545V21.9545ZM547.271 23.4653C550.019 24.4391 552.44 25.9517 554.542 28.0099L555.941 26.581C553.634 24.321 550.964 22.6518 547.939 21.5801L547.271 23.4653ZM554.545 28.0135C556.653 30.0563 558.328 32.6764 559.557 35.9015L561.426 35.1895C560.109 31.7327 558.285 28.8527 555.938 26.5774L554.545 28.0135ZM559.558 35.9036C560.776 39.0795 561.401 42.9066 561.401 47.4091H563.401C563.401 42.7298 562.752 38.6478 561.425 35.1873L559.558 35.9036ZM561.401 47.4091V51.1932H563.401V47.4091H561.401ZM562.401 50.1932H519.48V52.1932H562.401V50.1932ZM520.48 51.1932V42.875H518.48V51.1932H520.48ZM519.48 43.875H550.571V41.875H519.48V43.875ZM551.571 42.8654C551.547 40.3595 551.003 38.093 549.916 36.0909L548.158 37.0455C549.071 38.7252 549.55 40.6632 549.571 42.8846L551.571 42.8654ZM549.918 36.0954C548.833 34.0737 547.309 32.4733 545.355 31.311L544.332 33.0299C545.97 34.004 547.241 35.3353 548.156 37.041L549.918 36.0954ZM545.36 31.3139C543.41 30.1392 541.158 29.5682 538.639 29.5682V31.5682C540.847 31.5682 542.732 32.0654 544.328 33.027L545.36 31.3139ZM538.639 29.5682C535.947 29.5682 533.539 30.2256 531.451 31.5679L532.532 33.2503C534.262 32.138 536.286 31.5682 538.639 31.5682V29.5682ZM531.458 31.5634C529.404 32.8592 527.796 34.5774 526.646 36.7065L528.405 37.6571C529.392 35.8317 530.761 34.3681 532.525 33.2548L531.458 31.5634ZM526.644 36.7102C525.518 38.8149 524.948 41.1225 524.923 43.6153L526.923 43.6347C526.945 41.4457 527.442 39.4578 528.407 37.6535L526.644 36.7102ZM524.923 43.625V50.8864H526.923V43.625H524.923ZM524.923 50.8864C524.923 54.0522 525.502 56.8292 526.703 59.1819L528.484 58.2727C527.458 56.2617 526.923 53.8114 526.923 50.8864H524.923ZM526.705 59.1857C527.902 61.5055 529.589 63.3098 531.763 64.5697L532.766 62.8393C530.94 61.7811 529.513 60.2672 528.482 58.2689L526.705 59.1857ZM531.77 64.574C533.944 65.8092 536.461 66.4091 539.287 66.4091V64.4091C536.749 64.4091 534.584 63.8726 532.758 62.8351L531.77 64.574ZM539.287 66.4091C541.175 66.4091 542.912 66.1462 544.487 65.6048L543.837 63.7134C542.503 64.172 540.99 64.4091 539.287 64.4091V66.4091ZM544.5 65.6002C546.076 65.034 547.456 64.2034 548.629 63.105L547.263 61.645C546.299 62.5466 545.157 63.2387 543.824 63.718L544.5 65.6002ZM548.629 63.105C549.82 61.9907 550.709 60.6173 551.305 59.0055L549.428 58.3127C548.933 59.6554 548.209 60.7593 547.263 61.645L548.629 63.105ZM550.255 59.6528L561.777 60.9483L562.001 58.9608L550.478 57.6654L550.255 59.6528ZM560.917 59.7223C560.227 62.6094 558.918 65.1173 556.987 67.2629L558.473 68.6008C560.633 66.2009 562.097 63.3906 562.862 60.1868L560.917 59.7223ZM556.986 67.2633C555.079 69.3848 552.623 71.0518 549.589 72.252L550.325 74.1117C553.61 72.8118 556.336 70.9788 558.474 68.6004L556.986 67.2633ZM549.595 72.2497C546.572 73.4241 543.085 74.0227 539.116 74.0227V76.0227C543.284 76.0227 547.024 75.3941 550.32 74.1139L549.595 72.2497Z" fill="white" mask="url(#path-1-outside-1_286_15611)"/>
</svg>
