<svg width="26" height="26" viewBox="0 0 26 26" fill="none" xmlns="http://www.w3.org/2000/svg">
<path d="M6.80969 8.04761H14.2383C14.895 8.04761 15.5248 8.30849 15.9892 8.77287C16.4536 9.23724 16.7144 9.86707 16.7144 10.5238V15.4762C16.7144 16.1329 16.4536 16.7627 15.9892 17.2271C15.5248 17.6915 14.895 17.9524 14.2383 17.9524H6.80969C6.15296 17.9524 5.52313 17.6915 5.05876 17.2271C4.59438 16.7627 4.3335 16.1329 4.3335 15.4762V10.5238C4.3335 9.86707 4.59438 9.23724 5.05876 8.77287C5.52313 8.30849 6.15296 8.04761 6.80969 8.04761ZM16.7144 11.7619L19.6859 9.53332C19.8698 9.39536 20.0885 9.31135 20.3175 9.29071C20.5465 9.27006 20.7768 9.31358 20.9824 9.41641C21.1881 9.51924 21.361 9.6773 21.4819 9.87289C21.6028 10.0685 21.6668 10.2939 21.6668 10.5238V15.4762C21.6668 15.7061 21.6028 15.9315 21.4819 16.1271C21.361 16.3227 21.1881 16.4807 20.9824 16.5836C20.7768 16.6864 20.5465 16.7299 20.3175 16.7093C20.0885 16.6886 19.8698 16.6046 19.6859 16.4667L16.7144 14.2381V11.7619Z" stroke="white" stroke-linecap="round" stroke-linejoin="round"/>
</svg>
