<svg width="192" height="78" viewBox="0 0 192 78" fill="none" xmlns="http://www.w3.org/2000/svg">
<path d="M51.8496 41.5234V46.4629C51.8496 47.1191 51.7852 47.6465 51.6562 48.0449C51.5273 48.4316 51.2871 48.7832 50.9355 49.0996C50.5957 49.416 50.1562 49.7207 49.6172 50.0137C48.0586 50.8574 46.5586 51.4727 45.1172 51.8594C43.6758 52.2461 42.1055 52.4395 40.4062 52.4395C38.4258 52.4395 36.6211 52.1348 34.9922 51.5254C33.3633 50.916 31.9746 50.0312 30.8262 48.8711C29.6777 47.7109 28.793 46.3047 28.1719 44.6523C27.5625 43 27.2578 41.1543 27.2578 39.1152C27.2578 37.1113 27.5566 35.2773 28.1543 33.6133C28.752 31.9492 29.6309 30.5371 30.791 29.377C31.9512 28.2168 33.3633 27.332 35.0273 26.7227C36.6914 26.1016 38.5781 25.791 40.6875 25.791C42.4219 25.791 43.957 26.0254 45.293 26.4941C46.6289 26.9512 47.7129 27.5312 48.5449 28.2344C49.377 28.9375 50.0039 29.6816 50.4258 30.4668C50.8477 31.252 51.0586 31.9492 51.0586 32.5586C51.0586 33.2148 50.8125 33.7773 50.3203 34.2461C49.8398 34.7031 49.2598 34.9316 48.5801 34.9316C48.2051 34.9316 47.8418 34.8438 47.4902 34.668C47.1504 34.4922 46.8633 34.2461 46.6289 33.9297C45.9844 32.9219 45.4395 32.1602 44.9941 31.6445C44.5488 31.1289 43.9453 30.6953 43.1836 30.3438C42.4336 29.9922 41.4727 29.8164 40.3008 29.8164C39.0938 29.8164 38.0156 30.0273 37.0664 30.4492C36.1172 30.8594 35.3027 31.4629 34.623 32.2598C33.9551 33.0449 33.4395 34.0117 33.0762 35.1602C32.7246 36.3086 32.5488 37.5801 32.5488 38.9746C32.5488 41.998 33.2402 44.3242 34.623 45.9531C36.0176 47.582 37.957 48.3965 40.4414 48.3965C41.6484 48.3965 42.7793 48.2383 43.834 47.9219C44.9004 47.6055 45.9785 47.1543 47.0684 46.5684V42.3848H43.0254C42.0527 42.3848 41.3145 42.2383 40.8105 41.9453C40.3184 41.6523 40.0723 41.1543 40.0723 40.4512C40.0723 39.877 40.2773 39.4023 40.6875 39.0273C41.1094 38.6523 41.6777 38.4648 42.3926 38.4648H48.3164C49.043 38.4648 49.6582 38.5293 50.1621 38.6582C50.666 38.7871 51.0703 39.0742 51.375 39.5195C51.6914 39.9648 51.8496 40.6328 51.8496 41.5234ZM74.4551 42.6836C74.4551 44.1133 74.2324 45.4316 73.7871 46.6387C73.3418 47.8457 72.6973 48.8828 71.8535 49.75C71.0098 50.6172 70.002 51.2852 68.8301 51.7539C67.6582 52.2109 66.3398 52.4395 64.875 52.4395C63.4219 52.4395 62.1152 52.2051 60.9551 51.7363C59.7949 51.2676 58.7871 50.5996 57.9316 49.7324C57.0879 48.8535 56.4434 47.8223 55.998 46.6387C55.5645 45.4434 55.3477 44.125 55.3477 42.6836C55.3477 41.2305 55.5703 39.9004 56.0156 38.6934C56.4609 37.4863 57.0996 36.4551 57.9316 35.5996C58.7637 34.7441 59.7715 34.0879 60.9551 33.6309C62.1387 33.1621 63.4453 32.9277 64.875 32.9277C66.3281 32.9277 67.6465 33.1621 68.8301 33.6309C70.0137 34.0996 71.0273 34.7676 71.8711 35.6348C72.7148 36.502 73.3535 37.5332 73.7871 38.7285C74.2324 39.9238 74.4551 41.2422 74.4551 42.6836ZM69.6387 42.6836C69.6387 40.7266 69.2051 39.2031 68.3379 38.1133C67.4824 37.0234 66.3281 36.4785 64.875 36.4785C63.9375 36.4785 63.1113 36.7246 62.3965 37.2168C61.6816 37.6973 61.1309 38.4121 60.7441 39.3613C60.3574 40.3105 60.1641 41.418 60.1641 42.6836C60.1641 43.9375 60.3516 45.0332 60.7266 45.9707C61.1133 46.9082 61.6582 47.6289 62.3613 48.1328C63.0762 48.625 63.9141 48.8711 64.875 48.8711C66.3281 48.8711 67.4824 48.3262 68.3379 47.2363C69.2051 46.1348 69.6387 44.6172 69.6387 42.6836ZM78.252 49.5215V28.709C78.252 27.748 78.4629 27.0215 78.8848 26.5293C79.3184 26.0371 79.8984 25.791 80.625 25.791C81.3516 25.791 81.9375 26.0371 82.3828 26.5293C82.8281 27.0098 83.0508 27.7363 83.0508 28.709V49.5215C83.0508 50.4941 82.8223 51.2266 82.3652 51.7188C81.9199 52.1992 81.3398 52.4395 80.625 52.4395C79.9219 52.4395 79.3477 52.1875 78.9023 51.6836C78.4688 51.1797 78.252 50.459 78.252 49.5215ZM101.42 43.8613H92.0332C92.0449 44.9512 92.2617 45.9121 92.6836 46.7441C93.1172 47.5762 93.6855 48.2031 94.3887 48.625C95.1035 49.0469 95.8887 49.2578 96.7441 49.2578C97.3184 49.2578 97.8398 49.1934 98.3086 49.0645C98.7891 48.9238 99.252 48.7129 99.6973 48.4316C100.143 48.1387 100.553 47.8281 100.928 47.5C101.303 47.1719 101.789 46.7266 102.387 46.1641C102.633 45.9531 102.984 45.8477 103.441 45.8477C103.934 45.8477 104.332 45.9824 104.637 46.252C104.941 46.5215 105.094 46.9023 105.094 47.3945C105.094 47.8281 104.924 48.3379 104.584 48.9238C104.244 49.498 103.729 50.0547 103.037 50.5938C102.357 51.1211 101.496 51.5605 100.453 51.9121C99.4219 52.2637 98.2324 52.4395 96.8848 52.4395C93.8027 52.4395 91.4062 51.5605 89.6953 49.8027C87.9844 48.0449 87.1289 45.6602 87.1289 42.6484C87.1289 41.2305 87.3398 39.918 87.7617 38.7109C88.1836 37.4922 88.7988 36.4492 89.6074 35.582C90.416 34.7148 91.4121 34.0527 92.5957 33.5957C93.7793 33.127 95.0918 32.8926 96.5332 32.8926C98.4082 32.8926 100.014 33.291 101.35 34.0879C102.697 34.873 103.705 35.8926 104.373 37.1465C105.041 38.4004 105.375 39.6777 105.375 40.9785C105.375 42.1855 105.029 42.9707 104.338 43.334C103.646 43.6855 102.674 43.8613 101.42 43.8613ZM92.0332 41.1367H100.734C100.617 39.4961 100.172 38.2715 99.3984 37.4629C98.6367 36.6426 97.6289 36.2324 96.375 36.2324C95.1797 36.2324 94.1953 36.6484 93.4219 37.4805C92.6602 38.3008 92.1973 39.5195 92.0332 41.1367ZM121.564 49.7324C120.404 50.6348 119.279 51.3145 118.189 51.7715C117.111 52.2168 115.898 52.4395 114.551 52.4395C113.32 52.4395 112.236 52.1992 111.299 51.7188C110.373 51.2266 109.658 50.5645 109.154 49.7324C108.65 48.9004 108.398 47.998 108.398 47.0254C108.398 45.7129 108.814 44.5938 109.646 43.668C110.479 42.7422 111.621 42.1211 113.074 41.8047C113.379 41.7344 114.135 41.5762 115.342 41.3301C116.549 41.084 117.58 40.8613 118.436 40.6621C119.303 40.4512 120.24 40.1992 121.248 39.9062C121.189 38.6406 120.932 37.7148 120.475 37.1289C120.029 36.5312 119.098 36.2324 117.68 36.2324C116.461 36.2324 115.541 36.4023 114.92 36.7422C114.311 37.082 113.783 37.5918 113.338 38.2715C112.904 38.9512 112.594 39.4023 112.406 39.625C112.23 39.8359 111.844 39.9414 111.246 39.9414C110.707 39.9414 110.238 39.7715 109.84 39.4316C109.453 39.0801 109.26 38.6348 109.26 38.0957C109.26 37.252 109.559 36.4316 110.156 35.6348C110.754 34.8379 111.686 34.1816 112.951 33.666C114.217 33.1504 115.793 32.8926 117.68 32.8926C119.789 32.8926 121.447 33.1445 122.654 33.6484C123.861 34.1406 124.711 34.9258 125.203 36.0039C125.707 37.082 125.959 38.5117 125.959 40.293C125.959 41.418 125.953 42.373 125.941 43.1582C125.941 43.9434 125.936 44.8164 125.924 45.7773C125.924 46.6797 126.07 47.623 126.363 48.6074C126.668 49.5801 126.82 50.207 126.82 50.4883C126.82 50.9805 126.586 51.4316 126.117 51.8418C125.66 52.2402 125.139 52.4395 124.553 52.4395C124.061 52.4395 123.574 52.2109 123.094 51.7539C122.613 51.2852 122.104 50.6113 121.564 49.7324ZM121.248 42.7891C120.545 43.0469 119.52 43.3223 118.172 43.6152C116.836 43.8965 115.91 44.1074 115.395 44.248C114.879 44.377 114.387 44.6406 113.918 45.0391C113.449 45.4258 113.215 45.9707 113.215 46.6738C113.215 47.4004 113.49 48.0215 114.041 48.5371C114.592 49.041 115.312 49.293 116.203 49.293C117.152 49.293 118.025 49.0879 118.822 48.6777C119.631 48.2559 120.223 47.7168 120.598 47.0605C121.031 46.334 121.248 45.1387 121.248 43.4746V42.7891ZM135.609 45.5137V49.5215C135.609 50.4941 135.381 51.2266 134.924 51.7188C134.467 52.1992 133.887 52.4395 133.184 52.4395C132.492 52.4395 131.924 52.1934 131.479 51.7012C131.033 51.209 130.811 50.4824 130.811 49.5215V36.1621C130.811 34.0059 131.59 32.9277 133.148 32.9277C133.945 32.9277 134.52 33.1797 134.871 33.6836C135.223 34.1875 135.416 34.9316 135.451 35.916C136.025 34.9316 136.611 34.1875 137.209 33.6836C137.818 33.1797 138.627 32.9277 139.635 32.9277C140.643 32.9277 141.621 33.1797 142.57 33.6836C143.52 34.1875 143.994 34.8555 143.994 35.6875C143.994 36.2734 143.789 36.7598 143.379 37.1465C142.98 37.5215 142.547 37.709 142.078 37.709C141.902 37.709 141.475 37.6035 140.795 37.3926C140.127 37.1699 139.535 37.0586 139.02 37.0586C138.316 37.0586 137.742 37.2461 137.297 37.6211C136.852 37.9844 136.506 38.5293 136.26 39.2559C136.014 39.9824 135.844 40.8496 135.75 41.8574C135.656 42.8535 135.609 44.0723 135.609 45.5137ZM150.99 35.582V36.1621C151.834 35.0488 152.754 34.2344 153.75 33.7188C154.758 33.1914 155.912 32.9277 157.213 32.9277C158.479 32.9277 159.609 33.2031 160.605 33.7539C161.602 34.3047 162.346 35.084 162.838 36.0918C163.154 36.6777 163.359 37.3105 163.453 37.9902C163.547 38.6699 163.594 39.5371 163.594 40.5918V49.5215C163.594 50.4824 163.371 51.209 162.926 51.7012C162.492 52.1934 161.924 52.4395 161.221 52.4395C160.506 52.4395 159.926 52.1875 159.48 51.6836C159.035 51.1797 158.812 50.459 158.812 49.5215V41.5234C158.812 39.9414 158.59 38.7344 158.145 37.9023C157.711 37.0586 156.838 36.6367 155.525 36.6367C154.67 36.6367 153.891 36.8945 153.188 37.4102C152.484 37.9141 151.969 38.6113 151.641 39.502C151.406 40.2168 151.289 41.5527 151.289 43.5098V49.5215C151.289 50.4941 151.061 51.2266 150.604 51.7188C150.158 52.1992 149.578 52.4395 148.863 52.4395C148.172 52.4395 147.604 52.1875 147.158 51.6836C146.713 51.1797 146.49 50.459 146.49 49.5215V35.6523C146.49 34.7383 146.689 34.0586 147.088 33.6133C147.486 33.1562 148.031 32.9277 148.723 32.9277C149.145 32.9277 149.525 33.0273 149.865 33.2266C150.205 33.4258 150.475 33.7246 150.674 34.123C150.885 34.5215 150.99 35.0078 150.99 35.582Z" fill="#623CE7"/>
</svg>
