<svg width="49" height="64" viewBox="0 0 49 64" fill="none" xmlns="http://www.w3.org/2000/svg">
<path d="M40.7002 20C40.7002 31.0457 31.7459 40 20.7002 40C9.6545 40 0.700195 31.0457 0.700195 20C0.700195 8.9543 9.6545 0 20.7002 0C31.7459 0 40.7002 8.9543 40.7002 20ZM9.10872 20C9.10872 26.4018 14.2984 31.5915 20.7002 31.5915C27.102 31.5915 32.2917 26.4018 32.2917 20C32.2917 13.5982 27.102 8.40853 20.7002 8.40853C14.2984 8.40853 9.10872 13.5982 9.10872 20Z" fill="#623CE7"/>
<path d="M14.1579 58.1422C17.1959 61.1802 21.1316 63.1592 25.3821 63.786C29.6325 64.4129 33.9719 63.6543 37.7576 61.6225C41.5434 59.5908 44.5742 56.394 46.4013 52.5054C48.2285 48.6168 48.7549 44.2432 47.9025 40.0322C47.0501 35.8211 44.8643 31.9965 41.6687 29.1246C38.4731 26.2527 34.4376 24.4862 30.1598 24.0867C25.8819 23.6872 21.5892 24.6758 17.917 26.9063C14.2449 29.1368 11.1174 32.6196 9.5 36.6C12.2082 38.5883 14.1631 39.2605 17.5 39.8C18.4389 37.4894 20.1409 35.3719 22.2726 34.077C24.4043 32.7822 26.8963 32.2083 29.3796 32.4402C31.8629 32.6721 34.2056 33.6976 36.0606 35.3647C37.9157 37.0319 39.1845 39.2521 39.6794 41.6967C40.1742 44.1412 39.8686 46.6801 38.8079 48.9375C37.7473 51.1948 35.9879 53.0506 33.7902 54.23C31.5926 55.4094 29.0736 55.8498 26.6061 55.4859C24.1387 55.122 21.854 53.9732 20.0904 52.2096L14.1579 58.1422Z" fill="#FBBC05"/>
</svg>
