<svg width="193" height="79" viewBox="0 0 193 79" fill="none" xmlns="http://www.w3.org/2000/svg">
<path d="M52.3496 42.0234V46.9629C52.3496 47.6191 52.2852 48.1465 52.1562 48.5449C52.0273 48.9316 51.7871 49.2832 51.4355 49.5996C51.0957 49.916 50.6562 50.2207 50.1172 50.5137C48.5586 51.3574 47.0586 51.9727 45.6172 52.3594C44.1758 52.7461 42.6055 52.9395 40.9062 52.9395C38.9258 52.9395 37.1211 52.6348 35.4922 52.0254C33.8633 51.416 32.4746 50.5312 31.3262 49.3711C30.1777 48.2109 29.293 46.8047 28.6719 45.1523C28.0625 43.5 27.7578 41.6543 27.7578 39.6152C27.7578 37.6113 28.0566 35.7773 28.6543 34.1133C29.252 32.4492 30.1309 31.0371 31.291 29.877C32.4512 28.7168 33.8633 27.832 35.5273 27.2227C37.1914 26.6016 39.0781 26.291 41.1875 26.291C42.9219 26.291 44.457 26.5254 45.793 26.9941C47.1289 27.4512 48.2129 28.0312 49.0449 28.7344C49.877 29.4375 50.5039 30.1816 50.9258 30.9668C51.3477 31.752 51.5586 32.4492 51.5586 33.0586C51.5586 33.7148 51.3125 34.2773 50.8203 34.7461C50.3398 35.2031 49.7598 35.4316 49.0801 35.4316C48.7051 35.4316 48.3418 35.3438 47.9902 35.168C47.6504 34.9922 47.3633 34.7461 47.1289 34.4297C46.4844 33.4219 45.9395 32.6602 45.4941 32.1445C45.0488 31.6289 44.4453 31.1953 43.6836 30.8438C42.9336 30.4922 41.9727 30.3164 40.8008 30.3164C39.5938 30.3164 38.5156 30.5273 37.5664 30.9492C36.6172 31.3594 35.8027 31.9629 35.123 32.7598C34.4551 33.5449 33.9395 34.5117 33.5762 35.6602C33.2246 36.8086 33.0488 38.0801 33.0488 39.4746C33.0488 42.498 33.7402 44.8242 35.123 46.4531C36.5176 48.082 38.457 48.8965 40.9414 48.8965C42.1484 48.8965 43.2793 48.7383 44.334 48.4219C45.4004 48.1055 46.4785 47.6543 47.5684 47.0684V42.8848H43.5254C42.5527 42.8848 41.8145 42.7383 41.3105 42.4453C40.8184 42.1523 40.5723 41.6543 40.5723 40.9512C40.5723 40.377 40.7773 39.9023 41.1875 39.5273C41.6094 39.1523 42.1777 38.9648 42.8926 38.9648H48.8164C49.543 38.9648 50.1582 39.0293 50.6621 39.1582C51.166 39.2871 51.5703 39.5742 51.875 40.0195C52.1914 40.4648 52.3496 41.1328 52.3496 42.0234ZM74.9551 43.1836C74.9551 44.6133 74.7324 45.9316 74.2871 47.1387C73.8418 48.3457 73.1973 49.3828 72.3535 50.25C71.5098 51.1172 70.502 51.7852 69.3301 52.2539C68.1582 52.7109 66.8398 52.9395 65.375 52.9395C63.9219 52.9395 62.6152 52.7051 61.4551 52.2363C60.2949 51.7676 59.2871 51.0996 58.4316 50.2324C57.5879 49.3535 56.9434 48.3223 56.498 47.1387C56.0645 45.9434 55.8477 44.625 55.8477 43.1836C55.8477 41.7305 56.0703 40.4004 56.5156 39.1934C56.9609 37.9863 57.5996 36.9551 58.4316 36.0996C59.2637 35.2441 60.2715 34.5879 61.4551 34.1309C62.6387 33.6621 63.9453 33.4277 65.375 33.4277C66.8281 33.4277 68.1465 33.6621 69.3301 34.1309C70.5137 34.5996 71.5273 35.2676 72.3711 36.1348C73.2148 37.002 73.8535 38.0332 74.2871 39.2285C74.7324 40.4238 74.9551 41.7422 74.9551 43.1836ZM70.1387 43.1836C70.1387 41.2266 69.7051 39.7031 68.8379 38.6133C67.9824 37.5234 66.8281 36.9785 65.375 36.9785C64.4375 36.9785 63.6113 37.2246 62.8965 37.7168C62.1816 38.1973 61.6309 38.9121 61.2441 39.8613C60.8574 40.8105 60.6641 41.918 60.6641 43.1836C60.6641 44.4375 60.8516 45.5332 61.2266 46.4707C61.6133 47.4082 62.1582 48.1289 62.8613 48.6328C63.5762 49.125 64.4141 49.3711 65.375 49.3711C66.8281 49.3711 67.9824 48.8262 68.8379 47.7363C69.7051 46.6348 70.1387 45.1172 70.1387 43.1836ZM78.752 50.0215V29.209C78.752 28.248 78.9629 27.5215 79.3848 27.0293C79.8184 26.5371 80.3984 26.291 81.125 26.291C81.8516 26.291 82.4375 26.5371 82.8828 27.0293C83.3281 27.5098 83.5508 28.2363 83.5508 29.209V50.0215C83.5508 50.9941 83.3223 51.7266 82.8652 52.2188C82.4199 52.6992 81.8398 52.9395 81.125 52.9395C80.4219 52.9395 79.8477 52.6875 79.4023 52.1836C78.9688 51.6797 78.752 50.959 78.752 50.0215ZM101.92 44.3613H92.5332C92.5449 45.4512 92.7617 46.4121 93.1836 47.2441C93.6172 48.0762 94.1855 48.7031 94.8887 49.125C95.6035 49.5469 96.3887 49.7578 97.2441 49.7578C97.8184 49.7578 98.3398 49.6934 98.8086 49.5645C99.2891 49.4238 99.752 49.2129 100.197 48.9316C100.643 48.6387 101.053 48.3281 101.428 48C101.803 47.6719 102.289 47.2266 102.887 46.6641C103.133 46.4531 103.484 46.3477 103.941 46.3477C104.434 46.3477 104.832 46.4824 105.137 46.752C105.441 47.0215 105.594 47.4023 105.594 47.8945C105.594 48.3281 105.424 48.8379 105.084 49.4238C104.744 49.998 104.229 50.5547 103.537 51.0938C102.857 51.6211 101.996 52.0605 100.953 52.4121C99.9219 52.7637 98.7324 52.9395 97.3848 52.9395C94.3027 52.9395 91.9062 52.0605 90.1953 50.3027C88.4844 48.5449 87.6289 46.1602 87.6289 43.1484C87.6289 41.7305 87.8398 40.418 88.2617 39.2109C88.6836 37.9922 89.2988 36.9492 90.1074 36.082C90.916 35.2148 91.9121 34.5527 93.0957 34.0957C94.2793 33.627 95.5918 33.3926 97.0332 33.3926C98.9082 33.3926 100.514 33.791 101.85 34.5879C103.197 35.373 104.205 36.3926 104.873 37.6465C105.541 38.9004 105.875 40.1777 105.875 41.4785C105.875 42.6855 105.529 43.4707 104.838 43.834C104.146 44.1855 103.174 44.3613 101.92 44.3613ZM92.5332 41.6367H101.234C101.117 39.9961 100.672 38.7715 99.8984 37.9629C99.1367 37.1426 98.1289 36.7324 96.875 36.7324C95.6797 36.7324 94.6953 37.1484 93.9219 37.9805C93.1602 38.8008 92.6973 40.0195 92.5332 41.6367ZM122.064 50.2324C120.904 51.1348 119.779 51.8145 118.689 52.2715C117.611 52.7168 116.398 52.9395 115.051 52.9395C113.82 52.9395 112.736 52.6992 111.799 52.2188C110.873 51.7266 110.158 51.0645 109.654 50.2324C109.15 49.4004 108.898 48.498 108.898 47.5254C108.898 46.2129 109.314 45.0938 110.146 44.168C110.979 43.2422 112.121 42.6211 113.574 42.3047C113.879 42.2344 114.635 42.0762 115.842 41.8301C117.049 41.584 118.08 41.3613 118.936 41.1621C119.803 40.9512 120.74 40.6992 121.748 40.4062C121.689 39.1406 121.432 38.2148 120.975 37.6289C120.529 37.0312 119.598 36.7324 118.18 36.7324C116.961 36.7324 116.041 36.9023 115.42 37.2422C114.811 37.582 114.283 38.0918 113.838 38.7715C113.404 39.4512 113.094 39.9023 112.906 40.125C112.73 40.3359 112.344 40.4414 111.746 40.4414C111.207 40.4414 110.738 40.2715 110.34 39.9316C109.953 39.5801 109.76 39.1348 109.76 38.5957C109.76 37.752 110.059 36.9316 110.656 36.1348C111.254 35.3379 112.186 34.6816 113.451 34.166C114.717 33.6504 116.293 33.3926 118.18 33.3926C120.289 33.3926 121.947 33.6445 123.154 34.1484C124.361 34.6406 125.211 35.4258 125.703 36.5039C126.207 37.582 126.459 39.0117 126.459 40.793C126.459 41.918 126.453 42.873 126.441 43.6582C126.441 44.4434 126.436 45.3164 126.424 46.2773C126.424 47.1797 126.57 48.123 126.863 49.1074C127.168 50.0801 127.32 50.707 127.32 50.9883C127.32 51.4805 127.086 51.9316 126.617 52.3418C126.16 52.7402 125.639 52.9395 125.053 52.9395C124.561 52.9395 124.074 52.7109 123.594 52.2539C123.113 51.7852 122.604 51.1113 122.064 50.2324ZM121.748 43.2891C121.045 43.5469 120.02 43.8223 118.672 44.1152C117.336 44.3965 116.41 44.6074 115.895 44.748C115.379 44.877 114.887 45.1406 114.418 45.5391C113.949 45.9258 113.715 46.4707 113.715 47.1738C113.715 47.9004 113.99 48.5215 114.541 49.0371C115.092 49.541 115.812 49.793 116.703 49.793C117.652 49.793 118.525 49.5879 119.322 49.1777C120.131 48.7559 120.723 48.2168 121.098 47.5605C121.531 46.834 121.748 45.6387 121.748 43.9746V43.2891ZM136.109 46.0137V50.0215C136.109 50.9941 135.881 51.7266 135.424 52.2188C134.967 52.6992 134.387 52.9395 133.684 52.9395C132.992 52.9395 132.424 52.6934 131.979 52.2012C131.533 51.709 131.311 50.9824 131.311 50.0215V36.6621C131.311 34.5059 132.09 33.4277 133.648 33.4277C134.445 33.4277 135.02 33.6797 135.371 34.1836C135.723 34.6875 135.916 35.4316 135.951 36.416C136.525 35.4316 137.111 34.6875 137.709 34.1836C138.318 33.6797 139.127 33.4277 140.135 33.4277C141.143 33.4277 142.121 33.6797 143.07 34.1836C144.02 34.6875 144.494 35.3555 144.494 36.1875C144.494 36.7734 144.289 37.2598 143.879 37.6465C143.48 38.0215 143.047 38.209 142.578 38.209C142.402 38.209 141.975 38.1035 141.295 37.8926C140.627 37.6699 140.035 37.5586 139.52 37.5586C138.816 37.5586 138.242 37.7461 137.797 38.1211C137.352 38.4844 137.006 39.0293 136.76 39.7559C136.514 40.4824 136.344 41.3496 136.25 42.3574C136.156 43.3535 136.109 44.5723 136.109 46.0137ZM151.49 36.082V36.6621C152.334 35.5488 153.254 34.7344 154.25 34.2188C155.258 33.6914 156.412 33.4277 157.713 33.4277C158.979 33.4277 160.109 33.7031 161.105 34.2539C162.102 34.8047 162.846 35.584 163.338 36.5918C163.654 37.1777 163.859 37.8105 163.953 38.4902C164.047 39.1699 164.094 40.0371 164.094 41.0918V50.0215C164.094 50.9824 163.871 51.709 163.426 52.2012C162.992 52.6934 162.424 52.9395 161.721 52.9395C161.006 52.9395 160.426 52.6875 159.98 52.1836C159.535 51.6797 159.312 50.959 159.312 50.0215V42.0234C159.312 40.4414 159.09 39.2344 158.645 38.4023C158.211 37.5586 157.338 37.1367 156.025 37.1367C155.17 37.1367 154.391 37.3945 153.688 37.9102C152.984 38.4141 152.469 39.1113 152.141 40.002C151.906 40.7168 151.789 42.0527 151.789 44.0098V50.0215C151.789 50.9941 151.561 51.7266 151.104 52.2188C150.658 52.6992 150.078 52.9395 149.363 52.9395C148.672 52.9395 148.104 52.6875 147.658 52.1836C147.213 51.6797 146.99 50.959 146.99 50.0215V36.1523C146.99 35.2383 147.189 34.5586 147.588 34.1133C147.986 33.6562 148.531 33.4277 149.223 33.4277C149.645 33.4277 150.025 33.5273 150.365 33.7266C150.705 33.9258 150.975 34.2246 151.174 34.623C151.385 35.0215 151.49 35.5078 151.49 36.082Z" fill="white"/>
</svg>
