<svg width="122" height="25" viewBox="0 0 122 25" fill="none" xmlns="http://www.w3.org/2000/svg">
<path d="M21.9219 14.6875V19.0781C21.9219 19.6615 21.8646 20.1302 21.75 20.4844C21.6354 20.8281 21.4219 21.1406 21.1094 21.4219C20.8073 21.7031 20.4167 21.974 19.9375 22.2344C18.5521 22.9844 17.2188 23.5312 15.9375 23.875C14.6562 24.2188 13.2604 24.3906 11.75 24.3906C9.98958 24.3906 8.38542 24.1198 6.9375 23.5781C5.48958 23.0365 4.25521 22.25 3.23438 21.2188C2.21354 20.1875 1.42708 18.9375 0.875 17.4688C0.333333 16 0.0625 14.3594 0.0625 12.5469C0.0625 10.7656 0.328125 9.13542 0.859375 7.65625C1.39062 6.17708 2.17188 4.92188 3.20312 3.89062C4.23438 2.85938 5.48958 2.07292 6.96875 1.53125C8.44792 0.979167 10.125 0.703125 12 0.703125C13.5417 0.703125 14.9062 0.911458 16.0938 1.32812C17.2812 1.73438 18.2448 2.25 18.9844 2.875C19.724 3.5 20.2812 4.16146 20.6562 4.85938C21.0312 5.55729 21.2188 6.17708 21.2188 6.71875C21.2188 7.30208 21 7.80208 20.5625 8.21875C20.1354 8.625 19.6198 8.82812 19.0156 8.82812C18.6823 8.82812 18.3594 8.75 18.0469 8.59375C17.7448 8.4375 17.4896 8.21875 17.2812 7.9375C16.7083 7.04167 16.224 6.36458 15.8281 5.90625C15.4323 5.44792 14.8958 5.0625 14.2188 4.75C13.5521 4.4375 12.6979 4.28125 11.6562 4.28125C10.5833 4.28125 9.625 4.46875 8.78125 4.84375C7.9375 5.20833 7.21354 5.74479 6.60938 6.45312C6.01562 7.15104 5.55729 8.01042 5.23438 9.03125C4.92188 10.0521 4.76562 11.1823 4.76562 12.4219C4.76562 15.1094 5.38021 17.1771 6.60938 18.625C7.84896 20.0729 9.57292 20.7969 11.7812 20.7969C12.8542 20.7969 13.8594 20.6562 14.7969 20.375C15.7448 20.0938 16.7031 19.6927 17.6719 19.1719V15.4531H14.0781C13.2135 15.4531 12.5573 15.3229 12.1094 15.0625C11.6719 14.8021 11.4531 14.3594 11.4531 13.7344C11.4531 13.224 11.6354 12.8021 12 12.4688C12.375 12.1354 12.8802 11.9688 13.5156 11.9688H18.7812C19.4271 11.9688 19.974 12.026 20.4219 12.1406C20.8698 12.2552 21.2292 12.5104 21.5 12.9062C21.7812 13.3021 21.9219 13.8958 21.9219 14.6875ZM42.0156 15.7188C42.0156 16.9896 41.8177 18.1615 41.4219 19.2344C41.026 20.3073 40.4531 21.2292 39.7031 22C38.9531 22.7708 38.0573 23.3646 37.0156 23.7812C35.974 24.1875 34.8021 24.3906 33.5 24.3906C32.2083 24.3906 31.0469 24.1823 30.0156 23.7656C28.9844 23.349 28.0885 22.7552 27.3281 21.9844C26.5781 21.2031 26.0052 20.2865 25.6094 19.2344C25.224 18.1719 25.0312 17 25.0312 15.7188C25.0312 14.4271 25.2292 13.2448 25.625 12.1719C26.0208 11.099 26.5885 10.1823 27.3281 9.42188C28.0677 8.66146 28.9635 8.07812 30.0156 7.67188C31.0677 7.25521 32.2292 7.04688 33.5 7.04688C34.7917 7.04688 35.9635 7.25521 37.0156 7.67188C38.0677 8.08854 38.9688 8.68229 39.7188 9.45312C40.4688 10.224 41.0365 11.1406 41.4219 12.2031C41.8177 13.2656 42.0156 14.4375 42.0156 15.7188ZM37.7344 15.7188C37.7344 13.9792 37.349 12.625 36.5781 11.6562C35.8177 10.6875 34.7917 10.2031 33.5 10.2031C32.6667 10.2031 31.9323 10.4219 31.2969 10.8594C30.6615 11.2865 30.1719 11.9219 29.8281 12.7656C29.4844 13.6094 29.3125 14.5938 29.3125 15.7188C29.3125 16.8333 29.4792 17.8073 29.8125 18.6406C30.1562 19.474 30.6406 20.1146 31.2656 20.5625C31.901 21 32.6458 21.2188 33.5 21.2188C34.7917 21.2188 35.8177 20.7344 36.5781 19.7656C37.349 18.7865 37.7344 17.4375 37.7344 15.7188ZM45.3906 21.7969V3.29688C45.3906 2.44271 45.5781 1.79688 45.9531 1.35938C46.3385 0.921875 46.8542 0.703125 47.5 0.703125C48.1458 0.703125 48.6667 0.921875 49.0625 1.35938C49.4583 1.78646 49.6562 2.43229 49.6562 3.29688V21.7969C49.6562 22.6615 49.4531 23.3125 49.0469 23.75C48.651 24.1771 48.1354 24.3906 47.5 24.3906C46.875 24.3906 46.3646 24.1667 45.9688 23.7188C45.5833 23.2708 45.3906 22.6302 45.3906 21.7969ZM65.9844 16.7656H57.6406C57.651 17.7344 57.8438 18.5885 58.2188 19.3281C58.6042 20.0677 59.1094 20.625 59.7344 21C60.3698 21.375 61.0677 21.5625 61.8281 21.5625C62.3385 21.5625 62.8021 21.5052 63.2188 21.3906C63.6458 21.2656 64.0573 21.0781 64.4531 20.8281C64.849 20.5677 65.2135 20.2917 65.5469 20C65.8802 19.7083 66.3125 19.3125 66.8438 18.8125C67.0625 18.625 67.375 18.5312 67.7812 18.5312C68.2188 18.5312 68.5729 18.651 68.8438 18.8906C69.1146 19.1302 69.25 19.4688 69.25 19.9062C69.25 20.2917 69.099 20.7448 68.7969 21.2656C68.4948 21.776 68.0365 22.2708 67.4219 22.75C66.8177 23.2188 66.0521 23.6094 65.125 23.9219C64.2083 24.2344 63.151 24.3906 61.9531 24.3906C59.2135 24.3906 57.0833 23.6094 55.5625 22.0469C54.0417 20.4844 53.2812 18.3646 53.2812 15.6875C53.2812 14.4271 53.4688 13.2604 53.8438 12.1875C54.2188 11.1042 54.7656 10.1771 55.4844 9.40625C56.2031 8.63542 57.0885 8.04688 58.1406 7.64062C59.1927 7.22396 60.3594 7.01562 61.6406 7.01562C63.3073 7.01562 64.7344 7.36979 65.9219 8.07812C67.1198 8.77604 68.0156 9.68229 68.6094 10.7969C69.2031 11.9115 69.5 13.0469 69.5 14.2031C69.5 15.276 69.1927 15.974 68.5781 16.2969C67.9635 16.6094 67.099 16.7656 65.9844 16.7656ZM57.6406 14.3438H65.375C65.2708 12.8854 64.875 11.7969 64.1875 11.0781C63.5104 10.349 62.6146 9.98438 61.5 9.98438C60.4375 9.98438 59.5625 10.3542 58.875 11.0938C58.1979 11.8229 57.7865 12.9062 57.6406 14.3438ZM83.8906 21.9844C82.8594 22.7865 81.8594 23.3906 80.8906 23.7969C79.9323 24.1927 78.8542 24.3906 77.6562 24.3906C76.5625 24.3906 75.599 24.1771 74.7656 23.75C73.9427 23.3125 73.3073 22.724 72.8594 21.9844C72.4115 21.2448 72.1875 20.4427 72.1875 19.5781C72.1875 18.4115 72.5573 17.4167 73.2969 16.5938C74.0365 15.7708 75.0521 15.2188 76.3438 14.9375C76.6146 14.875 77.2865 14.7344 78.3594 14.5156C79.4323 14.2969 80.349 14.099 81.1094 13.9219C81.8802 13.7344 82.7135 13.5104 83.6094 13.25C83.5573 12.125 83.3281 11.3021 82.9219 10.7812C82.526 10.25 81.6979 9.98438 80.4375 9.98438C79.3542 9.98438 78.5365 10.1354 77.9844 10.4375C77.4427 10.7396 76.974 11.1927 76.5781 11.7969C76.1927 12.401 75.9167 12.8021 75.75 13C75.5938 13.1875 75.25 13.2812 74.7188 13.2812C74.2396 13.2812 73.8229 13.1302 73.4688 12.8281C73.125 12.5156 72.9531 12.1198 72.9531 11.6406C72.9531 10.8906 73.2188 10.1615 73.75 9.45312C74.2812 8.74479 75.1094 8.16146 76.2344 7.70312C77.3594 7.24479 78.7604 7.01562 80.4375 7.01562C82.3125 7.01562 83.7865 7.23958 84.8594 7.6875C85.9323 8.125 86.6875 8.82292 87.125 9.78125C87.5729 10.7396 87.7969 12.0104 87.7969 13.5938C87.7969 14.5938 87.7917 15.4427 87.7812 16.1406C87.7812 16.8385 87.776 17.6146 87.7656 18.4688C87.7656 19.2708 87.8958 20.1094 88.1562 20.9844C88.4271 21.849 88.5625 22.4062 88.5625 22.6562C88.5625 23.0938 88.3542 23.4948 87.9375 23.8594C87.5312 24.2135 87.0677 24.3906 86.5469 24.3906C86.1094 24.3906 85.6771 24.1875 85.25 23.7812C84.8229 23.3646 84.3698 22.7656 83.8906 21.9844ZM83.6094 15.8125C82.9844 16.0417 82.0729 16.2865 80.875 16.5469C79.6875 16.7969 78.8646 16.9844 78.4062 17.1094C77.9479 17.224 77.5104 17.4583 77.0938 17.8125C76.6771 18.1562 76.4688 18.6406 76.4688 19.2656C76.4688 19.9115 76.7135 20.4635 77.2031 20.9219C77.6927 21.3698 78.3333 21.5938 79.125 21.5938C79.9688 21.5938 80.7448 21.4115 81.4531 21.0469C82.1719 20.6719 82.6979 20.1927 83.0312 19.6094C83.4167 18.9635 83.6094 17.901 83.6094 16.4219V15.8125ZM96.375 18.2344V21.7969C96.375 22.6615 96.1719 23.3125 95.7656 23.75C95.3594 24.1771 94.8438 24.3906 94.2188 24.3906C93.6042 24.3906 93.099 24.1719 92.7031 23.7344C92.3073 23.2969 92.1094 22.651 92.1094 21.7969V9.92188C92.1094 8.00521 92.8021 7.04688 94.1875 7.04688C94.8958 7.04688 95.4062 7.27083 95.7188 7.71875C96.0312 8.16667 96.2031 8.82812 96.2344 9.70312C96.7448 8.82812 97.2656 8.16667 97.7969 7.71875C98.3385 7.27083 99.0573 7.04688 99.9531 7.04688C100.849 7.04688 101.719 7.27083 102.562 7.71875C103.406 8.16667 103.828 8.76042 103.828 9.5C103.828 10.0208 103.646 10.4531 103.281 10.7969C102.927 11.1302 102.542 11.2969 102.125 11.2969C101.969 11.2969 101.589 11.2031 100.984 11.0156C100.391 10.8177 99.8646 10.7188 99.4062 10.7188C98.7812 10.7188 98.2708 10.8854 97.875 11.2188C97.4792 11.5417 97.1719 12.026 96.9531 12.6719C96.7344 13.3177 96.5833 14.0885 96.5 14.9844C96.4167 15.8698 96.375 16.9531 96.375 18.2344ZM110.047 9.40625V9.92188C110.797 8.93229 111.615 8.20833 112.5 7.75C113.396 7.28125 114.422 7.04688 115.578 7.04688C116.703 7.04688 117.708 7.29167 118.594 7.78125C119.479 8.27083 120.141 8.96354 120.578 9.85938C120.859 10.3802 121.042 10.9427 121.125 11.5469C121.208 12.151 121.25 12.9219 121.25 13.8594V21.7969C121.25 22.651 121.052 23.2969 120.656 23.7344C120.271 24.1719 119.766 24.3906 119.141 24.3906C118.505 24.3906 117.99 24.1667 117.594 23.7188C117.198 23.2708 117 22.6302 117 21.7969V14.6875C117 13.2812 116.802 12.2083 116.406 11.4688C116.021 10.7188 115.245 10.3438 114.078 10.3438C113.318 10.3438 112.625 10.5729 112 11.0312C111.375 11.4792 110.917 12.099 110.625 12.8906C110.417 13.526 110.312 14.7135 110.312 16.4531V21.7969C110.312 22.6615 110.109 23.3125 109.703 23.75C109.307 24.1771 108.792 24.3906 108.156 24.3906C107.542 24.3906 107.036 24.1667 106.641 23.7188C106.245 23.2708 106.047 22.6302 106.047 21.7969V9.46875C106.047 8.65625 106.224 8.05208 106.578 7.65625C106.932 7.25 107.417 7.04688 108.031 7.04688C108.406 7.04688 108.745 7.13542 109.047 7.3125C109.349 7.48958 109.589 7.75521 109.766 8.10938C109.953 8.46354 110.047 8.89583 110.047 9.40625Z" fill="#623CE7"/>
</svg>
